<svg width="337" height="262" viewBox="0 0 337 262" fill="none" xmlns="http://www.w3.org/2000/svg">
<g clip-path="url(#clip0_314_619)">
<path d="M83.3075 257.195C86.1804 247.218 87.1905 238.333 86.8386 230.442C84.9205 187.108 42.0876 173.625 42.0876 173.625C42.0876 173.625 35.1121 192.986 40.8242 214.119C45.1049 229.949 56.5084 246.778 83.3075 257.195Z" fill="#685E4D"/>
<path d="M46.4091 181.412L83.0861 255.774C83.2499 256.107 82.7078 256.302 82.5445 255.971L45.8676 181.611C45.7032 181.277 46.2459 181.079 46.4091 181.412Z" fill="black"/>
<path d="M61.452 213.002L66.2171 199.089L67.7699 194.517C67.8878 194.162 68.4135 194.406 68.295 194.754L62.8027 210.926C62.2847 212.45 62.4939 211.715 61.9777 213.238C61.8569 213.594 61.333 213.352 61.452 213.002Z" fill="black"/>
<path d="M72.2097 234.814L76.9754 220.9L78.5282 216.329C78.6461 215.974 79.1717 216.218 79.0527 216.565L73.5604 232.737C73.043 234.261 73.2522 233.526 72.7354 235.05C72.6151 235.405 72.0912 235.163 72.2097 234.814Z" fill="black"/>
<path d="M53.7068 229.179L67.6143 233.801L72.1761 235.331C72.5296 235.449 72.654 234.884 72.3057 234.767L56.1683 229.356C54.6479 228.847 55.3562 229.125 53.8358 228.615C53.484 228.497 53.3579 229.062 53.7068 229.179Z" fill="black"/>
<path d="M42.6831 206.83L56.5906 211.452L61.1524 212.981C61.506 213.099 61.6303 212.534 61.2814 212.418L45.1446 207.007C43.6236 206.498 44.3325 206.776 42.8121 206.266C42.4603 206.148 42.3348 206.713 42.6831 206.83Z" fill="black"/>
<path d="M83.6939 257.25C79.8457 247.611 75.1991 239.983 70.0851 233.977C42.0249 201.004 0 216.848 0 216.848C0 216.848 6.36328 236.42 23.8137 249.549C36.8874 259.385 56.1858 265.599 83.6939 257.25Z" fill="#464646"/>
<path d="M8.17899 220.32L82.6497 256.271C82.9826 256.431 82.675 256.922 82.3438 256.761L7.87315 220.809C7.5396 220.648 7.84781 220.158 8.17899 220.32Z" fill="#685E4D"/>
<path d="M39.391 235.923L34.6235 222.01L33.0465 217.447C32.9246 217.092 33.4856 216.962 33.6064 217.311L39.1824 233.453C39.708 234.974 39.4222 234.265 39.9484 235.786C40.0722 236.139 39.5112 236.272 39.391 235.923Z" fill="#685E4D"/>
<path d="M61.2347 246.467L56.4673 232.554L54.8903 227.991C54.7683 227.636 55.3293 227.506 55.4501 227.855L61.0285 243.996C61.5541 245.517 61.2689 244.808 61.7945 246.329C61.9159 246.683 61.3549 246.816 61.2347 246.467Z" fill="#685E4D"/>
<path d="M43.1964 253.461L56.9908 248.509L61.5237 246.895C61.8737 246.771 61.6268 246.248 61.2803 246.371L45.2454 252.08C43.7344 252.617 44.4634 252.399 42.9524 252.937C42.6006 253.061 42.8499 253.584 43.1964 253.461Z" fill="#685E4D"/>
<path d="M20.8153 242.657L34.6103 237.705L39.1432 236.091C39.4932 235.967 39.2457 235.443 38.8992 235.567L22.8643 241.273C21.3533 241.811 22.0829 241.592 20.5719 242.13C20.2219 242.257 20.4688 242.78 20.8153 242.657Z" fill="#685E4D"/>
<path d="M178.254 261.704H77.9337C75.1486 261.704 72.4729 260.615 70.4724 258.669C68.472 256.723 67.3038 254.072 67.2149 251.276L60.6412 45.3346C60.5953 43.892 60.8386 42.4548 61.3565 41.1084C61.8745 39.762 62.6565 38.5339 63.6562 37.497C64.656 36.4601 65.853 35.6356 67.1762 35.0724C68.4994 34.5092 69.9218 34.2188 71.3589 34.2185H171.679C174.464 34.2187 177.139 35.3067 179.14 37.2523C181.14 39.1979 182.308 41.8486 182.398 44.6439L188.972 250.588C189.018 252.031 188.774 253.468 188.256 254.814C187.738 256.161 186.956 257.389 185.956 258.426C184.957 259.463 183.76 260.287 182.436 260.85C181.113 261.414 179.691 261.704 178.254 261.704Z" fill="#FCD139"/>
<path d="M85.1953 262C82.3304 262.012 79.5744 260.899 77.5164 258.897C75.4584 256.895 74.2619 254.164 74.1825 251.287L67.6082 45.3442C67.5608 43.8617 67.8106 42.3848 68.3427 41.0011C68.8748 39.6175 69.6784 38.3554 70.7057 37.2898C71.733 36.2242 72.9631 35.3769 74.3228 34.7981C75.6826 34.2194 77.1443 33.9211 78.6211 33.9209C78.6992 33.9209 78.7742 33.9521 78.8294 34.0076C78.8847 34.0631 78.9157 34.1384 78.9157 34.2168C78.9157 34.2953 78.8847 34.3706 78.8294 34.4261C78.7742 34.4816 78.6992 34.5128 78.6211 34.5128C77.2233 34.5129 75.8399 34.7952 74.5529 35.3429C73.2659 35.8906 72.1016 36.6925 71.1293 37.701C70.1569 38.7095 69.3962 39.904 68.8925 41.2135C68.3888 42.5231 68.1522 43.9209 68.1969 45.3241L74.7712 251.268C74.8467 253.99 75.9795 256.575 77.9274 258.47C79.8752 260.364 82.4837 261.419 85.1953 261.407C85.2735 261.407 85.3484 261.438 85.4037 261.494C85.459 261.549 85.49 261.625 85.49 261.703C85.49 261.782 85.459 261.857 85.4037 261.912C85.3484 261.968 85.2735 261.999 85.1953 261.999V262Z" fill="white"/>
<path d="M188.695 240.951H82.1078L75.9932 50.1545H182.58L188.695 240.951Z" fill="#403625"/>
<path d="M158.416 256.007H113.651C112.241 256.007 110.889 255.444 109.892 254.443C108.895 253.442 108.335 252.084 108.335 250.667C108.335 249.251 108.895 247.893 109.892 246.892C110.889 245.891 112.241 245.328 113.651 245.328H158.416C159.826 245.328 161.178 245.891 162.175 246.892C163.172 247.893 163.732 249.251 163.732 250.667C163.732 252.084 163.172 253.442 162.175 254.443C161.178 255.444 159.826 256.007 158.416 256.007ZM113.651 245.92C112.397 245.92 111.195 246.42 110.309 247.311C109.422 248.201 108.924 249.408 108.924 250.667C108.924 251.927 109.422 253.134 110.309 254.024C111.195 254.915 112.397 255.415 113.651 255.415H158.416C159.669 255.415 160.872 254.915 161.758 254.024C162.644 253.134 163.142 251.927 163.142 250.667C163.142 249.408 162.644 248.201 161.758 247.311C160.872 246.42 159.669 245.92 158.416 245.92H113.651Z" fill="white"/>
<path d="M162.12 46.2101H100.873C100.444 46.2101 100.033 46.039 99.7294 45.7344C99.4262 45.4299 99.2559 45.0169 99.2559 44.5862C99.2559 44.1556 99.4262 43.7425 99.7294 43.438C100.033 43.1335 100.444 42.9624 100.873 42.9624H162.12C162.549 42.9624 162.96 43.1335 163.263 43.438C163.566 43.7425 163.737 44.1556 163.737 44.5862C163.737 45.0169 163.566 45.4299 163.263 45.7344C162.96 46.039 162.549 46.2101 162.12 46.2101ZM100.873 43.5543C100.6 43.5543 100.339 43.663 100.146 43.8565C99.9534 44.0501 99.8452 44.3125 99.8452 44.5862C99.8452 44.8599 99.9534 45.1224 100.146 45.3159C100.339 45.5095 100.6 45.6182 100.873 45.6182H162.12C162.392 45.6182 162.654 45.5095 162.846 45.3159C163.039 45.1224 163.147 44.8599 163.147 44.5862C163.147 44.3125 163.039 44.0501 162.846 43.8565C162.654 43.663 162.392 43.5543 162.12 43.5543H100.873Z" fill="white"/>
<path d="M66.6442 139.105C66.5677 139.105 66.4941 139.076 66.4391 139.022C66.3841 138.969 66.352 138.896 66.3496 138.819L63.9923 65.0077C63.9911 64.9688 63.9975 64.9301 64.0111 64.8937C64.0248 64.8573 64.0454 64.824 64.0719 64.7956C64.0984 64.7673 64.1302 64.7444 64.1655 64.7284C64.2008 64.7124 64.2389 64.7035 64.2776 64.7023C64.3556 64.6999 64.4314 64.7287 64.4883 64.7824C64.5452 64.8362 64.5786 64.9104 64.5811 64.9888L66.9383 138.8C66.9408 138.878 66.9122 138.955 66.8589 139.012C66.8055 139.069 66.7317 139.103 66.6536 139.105H66.6442Z" fill="white"/>
<path d="M195.892 108.072H95.4525C91.5469 108.072 88.3809 111.252 88.3809 115.174V137.614C88.3809 141.537 91.5469 144.717 95.4525 144.717H195.892C199.797 144.717 202.964 141.537 202.964 137.614V115.174C202.964 111.252 199.797 108.072 195.892 108.072Z" fill="black"/>
<path d="M125.649 126.453C125.648 126.716 125.544 126.968 125.359 127.154C125.174 127.34 124.923 127.445 124.661 127.445H122.176C122.042 130.224 120.978 132.875 119.155 134.971C120.111 135.767 121.194 136.396 122.359 136.831C122.583 136.902 122.774 137.052 122.898 137.253C123.022 137.453 123.07 137.692 123.035 137.925C122.999 138.159 122.882 138.372 122.704 138.526C122.526 138.68 122.299 138.766 122.064 138.767C121.964 138.766 121.865 138.751 121.769 138.723C120.289 138.196 118.918 137.4 117.725 136.374C116.54 137.389 115.185 138.184 113.724 138.723C113.628 138.751 113.529 138.766 113.429 138.767C113.194 138.766 112.967 138.68 112.789 138.526C112.611 138.372 112.494 138.159 112.458 137.925C112.422 137.692 112.471 137.453 112.595 137.253C112.719 137.052 112.91 136.902 113.134 136.831C114.298 136.411 115.381 135.793 116.338 135.006C115.236 133.745 114.408 132.267 113.909 130.666C113.829 130.415 113.853 130.144 113.973 129.91C114.093 129.677 114.301 129.502 114.55 129.422C114.8 129.343 115.07 129.366 115.302 129.487C115.534 129.608 115.709 129.816 115.788 130.067C116.2 131.371 116.872 132.578 117.763 133.613C119.219 131.876 120.076 129.712 120.204 127.445H111.668C111.406 127.445 111.155 127.34 110.97 127.154C110.785 126.968 110.681 126.716 110.681 126.453C110.681 126.19 110.785 125.938 110.97 125.752C111.155 125.566 111.406 125.461 111.668 125.461H116.649V123.292C116.649 123.028 116.753 122.776 116.938 122.59C117.123 122.404 117.374 122.3 117.636 122.3C117.898 122.3 118.149 122.404 118.334 122.59C118.52 122.776 118.624 123.028 118.624 123.292V125.461H124.663C124.924 125.462 125.175 125.566 125.36 125.752C125.545 125.938 125.648 126.19 125.649 126.453Z" fill="#685E4D"/>
<path d="M104.45 129.625L102.692 125.083L99.6193 117.137C99.5467 116.952 99.4208 116.792 99.2576 116.68C99.0944 116.567 98.9015 116.506 98.7035 116.504H98.6994C98.5007 116.505 98.3067 116.565 98.1425 116.677C97.9783 116.79 97.8516 116.949 97.7789 117.135L94.6821 125.087C94.6677 125.116 94.6557 125.147 94.6462 125.178L92.9125 129.625C92.8652 129.746 92.8423 129.876 92.8449 130.006C92.8476 130.136 92.8757 130.265 92.9278 130.384C92.9799 130.503 93.0548 130.611 93.1484 130.701C93.242 130.792 93.3523 130.862 93.4732 130.91C93.594 130.957 93.723 130.98 93.8527 130.978C93.9824 130.975 94.1103 130.947 94.2291 130.895C94.348 130.842 94.4554 130.767 94.5452 130.673C94.6351 130.579 94.7056 130.468 94.7528 130.347L96.2656 126.463H101.108L102.609 130.343C102.681 130.529 102.808 130.689 102.972 130.803C103.136 130.916 103.33 130.977 103.529 130.978C103.652 130.978 103.774 130.955 103.889 130.91C104.01 130.863 104.12 130.792 104.214 130.702C104.308 130.612 104.383 130.504 104.435 130.384C104.487 130.265 104.515 130.136 104.518 130.006C104.52 129.876 104.497 129.746 104.45 129.625ZM97.0358 124.479L98.6947 120.223L100.342 124.479H97.0358Z" fill="#685E4D"/>
<path d="M110.264 138.013C110.265 138.078 110.258 138.143 110.245 138.207L110.234 138.262C110.227 138.284 110.222 138.306 110.214 138.33C110.208 138.35 110.201 138.37 110.192 138.389C110.155 138.484 110.104 138.572 110.041 138.651C110.029 138.667 110.016 138.682 110.003 138.696C109.938 138.767 109.864 138.829 109.782 138.879C109.76 138.892 109.738 138.905 109.716 138.915L105.27 141.209C105.033 141.331 104.757 141.353 104.504 141.271C104.251 141.189 104.04 141.009 103.919 140.771C103.797 140.533 103.775 140.257 103.857 140.002C103.938 139.748 104.117 139.536 104.354 139.414L105.967 138.581C104.156 138.083 102.482 137.179 101.07 135.936C99.6583 134.693 98.5457 133.145 97.8164 131.407C97.7128 131.161 97.7109 130.883 97.8111 130.635C97.9114 130.387 98.1055 130.19 98.3509 130.086C98.5963 129.981 98.8728 129.98 99.1196 130.08C99.3664 130.181 99.5632 130.376 99.6668 130.622C100.336 132.219 101.391 133.623 102.736 134.708C104.081 135.793 105.674 136.525 107.371 136.837L106.491 135.382C106.423 135.269 106.377 135.143 106.357 135.012C106.337 134.881 106.343 134.748 106.374 134.619C106.405 134.491 106.461 134.37 106.539 134.263C106.617 134.156 106.715 134.066 106.828 133.997C106.94 133.928 107.065 133.883 107.196 133.862C107.326 133.842 107.459 133.848 107.587 133.879C107.715 133.911 107.835 133.967 107.942 134.045C108.048 134.124 108.138 134.222 108.206 134.335L110.096 137.46L110.118 137.495C110.13 137.514 110.142 137.534 110.152 137.555C110.174 137.596 110.192 137.639 110.207 137.683C110.214 137.705 110.222 137.727 110.227 137.749C110.231 137.759 110.234 137.768 110.236 137.778C110.24 137.79 110.242 137.803 110.244 137.815C110.257 137.88 110.264 137.947 110.264 138.013Z" fill="#685E4D"/>
<path d="M120.06 122.236C119.929 122.297 119.787 122.329 119.642 122.329C119.45 122.329 119.261 122.274 119.1 122.169C118.938 122.065 118.809 121.916 118.73 121.74C117.614 119.297 115.605 117.379 113.12 116.383C110.635 115.386 107.863 115.387 105.379 116.386L107.848 117.013C108.09 117.068 108.303 117.212 108.445 117.416C108.588 117.62 108.65 117.87 108.62 118.117C108.589 118.365 108.468 118.592 108.281 118.755C108.093 118.918 107.852 119.005 107.604 119C107.52 118.999 107.437 118.989 107.356 118.969L102.443 117.722L102.413 117.715C102.41 117.715 102.408 117.715 102.404 117.711C102.383 117.707 102.361 117.701 102.341 117.693C102.237 117.659 102.14 117.607 102.054 117.541L102.005 117.5C101.988 117.486 101.973 117.473 101.959 117.458C101.915 117.415 101.875 117.367 101.841 117.315C101.83 117.299 101.817 117.28 101.808 117.264C101.749 117.171 101.707 117.069 101.684 116.961C101.678 116.942 101.674 116.922 101.673 116.902C101.667 116.877 101.664 116.851 101.662 116.825C101.662 116.794 101.658 116.766 101.658 116.732C101.658 116.697 101.658 116.672 101.662 116.644C101.662 116.633 101.662 116.624 101.666 116.613C101.669 116.584 101.675 116.553 101.68 116.524C101.684 116.512 101.686 116.501 101.689 116.488L102.768 111.555C102.796 111.426 102.85 111.303 102.925 111.194C103 111.086 103.096 110.993 103.207 110.922C103.319 110.85 103.443 110.802 103.572 110.778C103.702 110.755 103.835 110.758 103.964 110.786C104.093 110.815 104.215 110.868 104.323 110.944C104.431 111.02 104.524 111.116 104.595 111.228C104.666 111.339 104.714 111.464 104.737 111.594C104.761 111.725 104.758 111.858 104.73 111.988L104.125 114.729C107.119 113.368 110.528 113.253 113.606 114.409C116.684 115.565 119.182 117.897 120.552 120.897C120.608 121.018 120.639 121.148 120.645 121.28C120.65 121.413 120.629 121.545 120.583 121.669C120.538 121.793 120.468 121.908 120.378 122.005C120.288 122.102 120.18 122.18 120.06 122.236Z" fill="#685E4D"/>
<path d="M170.708 118.206H131.716C130.945 118.206 130.319 118.834 130.319 119.609C130.319 120.384 130.945 121.012 131.716 121.012H170.708C171.48 121.012 172.105 120.384 172.105 119.609C172.105 118.834 171.48 118.206 170.708 118.206Z" fill="#685E4D"/>
<path d="M194.973 124.855H131.716C130.945 124.855 130.319 125.483 130.319 126.258C130.319 127.033 130.945 127.661 131.716 127.661H194.973C195.744 127.661 196.369 127.033 196.369 126.258C196.369 125.483 195.744 124.855 194.973 124.855Z" fill="#685E4D"/>
<path d="M194.973 131.777H131.716C130.945 131.777 130.319 132.405 130.319 133.18C130.319 133.955 130.945 134.583 131.716 134.583H194.973C195.744 134.583 196.369 133.955 196.369 133.18C196.369 132.405 195.744 131.777 194.973 131.777Z" fill="#685E4D"/>
<path d="M192.261 145.012H91.8214C89.8684 145.01 87.996 144.23 86.615 142.843C85.234 141.456 84.4573 139.575 84.4551 137.614V115.174C84.4574 113.213 85.2343 111.332 86.6152 109.945C87.9961 108.558 89.8684 107.778 91.8214 107.776H192.261C194.214 107.778 196.086 108.558 197.467 109.945C198.848 111.332 199.625 113.213 199.627 115.174V137.614C199.625 139.575 198.848 141.456 197.467 142.843C196.086 144.23 194.214 145.01 192.261 145.012ZM91.8214 108.368C90.0246 108.37 88.302 109.088 87.0315 110.364C85.7611 111.64 85.0464 113.37 85.0444 115.174V137.614C85.0464 139.418 85.7611 141.149 87.0315 142.425C88.302 143.701 90.0246 144.418 91.8214 144.42H192.261C194.058 144.418 195.78 143.701 197.051 142.425C198.321 141.149 199.036 139.418 199.038 137.614V115.174C199.036 113.37 198.321 111.64 197.051 110.364C195.78 109.088 194.058 108.37 192.261 108.368H91.8214Z" fill="white"/>
<path d="M206.972 151.878H106.533C102.627 151.878 99.4609 155.058 99.4609 158.981V181.421C99.4609 185.343 102.627 188.523 106.533 188.523H206.972C210.878 188.523 214.044 185.343 214.044 181.421V158.981C214.044 155.058 210.878 151.878 206.972 151.878Z" fill="#FCD139"/>
<path d="M181.788 162.012H142.796C142.025 162.012 141.399 162.64 141.399 163.415C141.399 164.19 142.025 164.818 142.796 164.818H181.788C182.56 164.818 183.185 164.19 183.185 163.415C183.185 162.64 182.56 162.012 181.788 162.012Z" fill="#685E4D"/>
<path d="M206.053 168.662H142.796C142.025 168.662 141.399 169.29 141.399 170.064C141.399 170.839 142.025 171.467 142.796 171.467H206.053C206.824 171.467 207.45 170.839 207.45 170.064C207.45 169.29 206.824 168.662 206.053 168.662Z" fill="#685E4D"/>
<path d="M206.053 175.584H142.796C142.025 175.584 141.399 176.212 141.399 176.986C141.399 177.761 142.025 178.389 142.796 178.389H206.053C206.824 178.389 207.45 177.761 207.45 176.986C207.45 176.212 206.824 175.584 206.053 175.584Z" fill="#685E4D"/>
<path d="M115.546 176.869C115.565 177.035 115.548 177.203 115.497 177.363C115.446 177.522 115.362 177.669 115.251 177.794C115.14 177.918 115.004 178.018 114.851 178.086C114.699 178.154 114.534 178.189 114.368 178.189C114.1 178.189 113.84 178.097 113.63 177.93L104.927 170.946C104.789 170.834 104.677 170.693 104.601 170.532C104.524 170.372 104.484 170.196 104.484 170.018C104.484 169.84 104.524 169.664 104.601 169.503C104.677 169.343 104.789 169.201 104.927 169.09L113.518 162.201C113.763 162.004 114.076 161.914 114.388 161.948C114.699 161.983 114.985 162.141 115.181 162.387C115.377 162.634 115.467 162.948 115.432 163.261C115.398 163.574 115.24 163.861 114.995 164.057L107.563 170.019L115.106 176.073C115.229 176.169 115.331 176.289 115.407 176.426C115.483 176.563 115.53 176.713 115.546 176.869Z" fill="#685E4D"/>
<path d="M137.578 170.02C137.579 170.198 137.539 170.374 137.462 170.534C137.386 170.695 137.274 170.836 137.135 170.946L128.432 177.931C128.311 178.033 128.171 178.11 128.02 178.157C127.869 178.203 127.711 178.22 127.554 178.204C127.397 178.188 127.244 178.141 127.105 178.065C126.967 177.989 126.844 177.887 126.746 177.763C126.648 177.639 126.575 177.496 126.532 177.343C126.49 177.191 126.478 177.031 126.498 176.873C126.517 176.716 126.568 176.564 126.648 176.427C126.727 176.29 126.833 176.17 126.959 176.074L134.502 170.021L127.069 164.059C126.948 163.961 126.847 163.841 126.772 163.704C126.697 163.567 126.65 163.417 126.632 163.262C126.615 163.107 126.629 162.95 126.672 162.8C126.715 162.65 126.787 162.511 126.884 162.389C126.981 162.267 127.101 162.165 127.237 162.09C127.373 162.015 127.523 161.967 127.677 161.95C127.831 161.932 127.988 161.946 128.137 161.989C128.286 162.033 128.425 162.105 128.547 162.202L137.138 169.091C137.276 169.202 137.388 169.344 137.464 169.505C137.54 169.666 137.579 169.842 137.578 170.02Z" fill="#685E4D"/>
<path d="M125.011 160.718C125.085 160.855 125.13 161.006 125.145 161.162C125.159 161.317 125.142 161.474 125.095 161.622L119.711 179.207C119.644 179.423 119.517 179.616 119.346 179.763C119.174 179.91 118.964 180.004 118.741 180.036C118.688 180.043 118.635 180.047 118.582 180.047C118.463 180.047 118.345 180.029 118.233 179.992C118.084 179.946 117.946 179.872 117.826 179.772C117.707 179.673 117.607 179.551 117.535 179.413C117.462 179.275 117.417 179.125 117.402 178.969C117.387 178.814 117.403 178.657 117.448 178.508L122.833 160.929C122.902 160.704 123.035 160.504 123.217 160.354C123.399 160.205 123.621 160.114 123.854 160.091C124.088 160.069 124.323 160.117 124.529 160.229C124.736 160.342 124.905 160.513 125.014 160.722L125.011 160.718Z" fill="#685E4D"/>
<path d="M203.34 188.819H102.901C100.948 188.817 99.0761 188.036 97.6951 186.649C96.3141 185.262 95.5373 183.382 95.5352 181.42V158.981C95.5373 157.019 96.3141 155.139 97.6951 153.752C99.0761 152.365 100.948 151.584 102.901 151.582H203.34C205.293 151.584 207.166 152.365 208.547 153.752C209.928 155.139 210.704 157.019 210.707 158.981V181.42C210.704 183.382 209.928 185.262 208.547 186.649C207.166 188.036 205.293 188.817 203.34 188.819ZM102.901 152.174C101.105 152.176 99.3821 152.894 98.1116 154.17C96.8411 155.446 96.1265 157.176 96.1245 158.981V181.42C96.1265 183.225 96.8411 184.955 98.1116 186.231C99.3821 187.507 101.105 188.225 102.901 188.227H203.34C205.137 188.225 206.86 187.507 208.13 186.231C209.401 184.955 210.115 183.225 210.117 181.42V158.981C210.115 157.176 209.401 155.446 208.13 154.17C206.86 152.894 205.137 152.176 203.34 152.174H102.901Z" fill="white"/>
<path d="M222.325 193.431H121.885C117.98 193.431 114.813 196.611 114.813 200.533V222.973C114.813 226.896 117.98 230.076 121.885 230.076H222.325C226.23 230.076 229.396 226.896 229.396 222.973V200.533C229.396 196.611 226.23 193.431 222.325 193.431Z" fill="black"/>
<path d="M197.141 203.565H158.149C157.377 203.565 156.752 204.193 156.752 204.968C156.752 205.742 157.377 206.37 158.149 206.37H197.141C197.912 206.37 198.538 205.742 198.538 204.968C198.538 204.193 197.912 203.565 197.141 203.565Z" fill="#685E4D"/>
<path d="M221.405 210.214H158.149C157.377 210.214 156.752 210.842 156.752 211.617C156.752 212.392 157.377 213.02 158.149 213.02H221.405C222.177 213.02 222.802 212.392 222.802 211.617C222.802 210.842 222.177 210.214 221.405 210.214Z" fill="#685E4D"/>
<path d="M221.405 217.136H158.149C157.377 217.136 156.752 217.764 156.752 218.539C156.752 219.314 157.377 219.942 158.149 219.942H221.405C222.177 219.942 222.802 219.314 222.802 218.539C222.802 217.764 222.177 217.136 221.405 217.136Z" fill="#685E4D"/>
<path d="M131.527 225.813C131.464 225.812 131.401 225.807 131.34 225.795C129.707 225.5 128.138 224.922 126.701 224.089C125.258 223.264 123.973 222.186 122.908 220.906C122.731 220.692 122.645 220.417 122.669 220.14C122.693 219.863 122.826 219.606 123.037 219.427L123.954 218.647C123.528 218.045 123.158 217.404 122.849 216.733L121.73 217.14C121.6 217.187 121.462 217.208 121.324 217.202C121.186 217.195 121.051 217.162 120.926 217.103C120.8 217.044 120.688 216.961 120.595 216.859C120.502 216.756 120.43 216.636 120.383 216.506C119.233 213.35 119.233 209.888 120.383 206.732C120.43 206.602 120.502 206.482 120.595 206.379C120.688 206.277 120.8 206.194 120.926 206.135C121.051 206.076 121.186 206.042 121.324 206.036C121.462 206.03 121.6 206.051 121.73 206.098L122.849 206.505C123.158 205.833 123.528 205.192 123.954 204.589L123.041 203.807C122.829 203.627 122.697 203.37 122.672 203.092C122.648 202.815 122.734 202.539 122.911 202.324C123.978 201.045 125.262 199.966 126.705 199.139C128.142 198.308 129.711 197.731 131.343 197.435C131.479 197.411 131.619 197.413 131.754 197.443C131.889 197.472 132.017 197.528 132.131 197.608C132.244 197.687 132.341 197.788 132.416 197.905C132.491 198.022 132.542 198.153 132.566 198.289L132.776 199.473C133.508 199.406 134.244 199.406 134.976 199.473L135.187 198.289C135.211 198.153 135.261 198.022 135.336 197.905C135.41 197.788 135.507 197.687 135.62 197.608C135.734 197.529 135.862 197.473 135.997 197.443C136.132 197.413 136.271 197.411 136.407 197.435C139.695 198.038 142.674 199.764 144.839 202.322C145.017 202.536 145.104 202.812 145.08 203.091C145.056 203.369 144.923 203.626 144.711 203.806L143.794 204.585C144.219 205.189 144.588 205.83 144.896 206.501L146.016 206.093C146.279 205.998 146.568 206.011 146.821 206.131C147.074 206.25 147.269 206.465 147.364 206.729C147.924 208.295 148.214 209.944 148.222 211.608V211.62C148.214 213.284 147.924 214.934 147.364 216.499C147.317 216.63 147.245 216.75 147.152 216.853C147.059 216.955 146.946 217.039 146.821 217.098C146.696 217.157 146.56 217.19 146.422 217.197C146.284 217.203 146.146 217.182 146.016 217.135L144.896 216.728C144.588 217.398 144.219 218.039 143.794 218.641L144.712 219.422C144.924 219.602 145.056 219.86 145.08 220.138C145.104 220.416 145.017 220.692 144.839 220.906C142.684 223.475 139.701 225.204 136.408 225.792C136.272 225.817 136.132 225.815 135.997 225.785C135.862 225.755 135.734 225.699 135.621 225.62C135.507 225.541 135.411 225.44 135.336 225.323C135.261 225.206 135.211 225.075 135.187 224.938L134.976 223.755C134.244 223.821 133.507 223.821 132.775 223.755L132.566 224.938C132.523 225.183 132.396 225.404 132.207 225.564C132.017 225.723 131.778 225.811 131.53 225.811L131.527 225.813ZM125.228 220.33C125.981 221.081 126.829 221.73 127.751 222.258C128.671 222.792 129.657 223.204 130.684 223.483L130.876 222.392C130.9 222.255 130.951 222.125 131.026 222.008C131.1 221.891 131.197 221.789 131.31 221.71C131.424 221.63 131.552 221.574 131.687 221.545C131.822 221.515 131.961 221.512 132.097 221.537C133.271 221.747 134.472 221.747 135.645 221.537C135.781 221.512 135.921 221.515 136.056 221.544C136.191 221.574 136.318 221.63 136.432 221.71C136.545 221.789 136.642 221.89 136.716 222.007C136.791 222.124 136.842 222.254 136.866 222.391L137.06 223.482C139.117 222.917 140.995 221.831 142.514 220.328L141.663 219.604C141.45 219.423 141.318 219.164 141.295 218.885C141.271 218.606 141.36 218.329 141.54 218.115C142.31 217.205 142.91 216.162 143.312 215.037C143.358 214.906 143.43 214.786 143.523 214.683C143.616 214.58 143.729 214.497 143.854 214.438C143.979 214.378 144.115 214.345 144.253 214.338C144.391 214.332 144.529 214.353 144.66 214.4L145.697 214.777C146.258 212.708 146.258 210.527 145.697 208.459L144.66 208.835C144.529 208.882 144.391 208.903 144.253 208.897C144.115 208.89 143.979 208.856 143.854 208.797C143.729 208.738 143.616 208.654 143.523 208.552C143.43 208.449 143.358 208.328 143.312 208.198C142.909 207.072 142.309 206.028 141.539 205.115C141.45 205.009 141.382 204.886 141.34 204.754C141.298 204.622 141.283 204.483 141.295 204.345C141.306 204.207 141.345 204.072 141.408 203.949C141.472 203.826 141.559 203.716 141.664 203.627L142.513 202.906C140.995 201.402 139.117 200.316 137.061 199.751L136.866 200.843C136.817 201.119 136.661 201.364 136.432 201.525C136.203 201.685 135.92 201.747 135.645 201.698C134.473 201.488 133.273 201.488 132.101 201.698C131.965 201.723 131.825 201.72 131.69 201.691C131.555 201.661 131.427 201.605 131.314 201.526C131.2 201.446 131.104 201.346 131.029 201.229C130.955 201.112 130.904 200.981 130.879 200.845L130.685 199.751C129.659 200.03 128.672 200.441 127.751 200.974C126.83 201.504 125.982 202.153 125.229 202.904L126.081 203.628C126.187 203.717 126.274 203.827 126.337 203.95C126.401 204.073 126.439 204.208 126.451 204.346C126.462 204.485 126.447 204.624 126.405 204.756C126.362 204.888 126.295 205.011 126.206 205.117C125.434 206.029 124.833 207.072 124.43 208.198C124.383 208.329 124.312 208.449 124.219 208.552C124.126 208.655 124.013 208.739 123.888 208.798C123.763 208.857 123.627 208.891 123.489 208.898C123.351 208.904 123.212 208.883 123.082 208.836L122.046 208.459C121.484 210.527 121.484 212.709 122.046 214.777L123.082 214.4C123.212 214.353 123.351 214.332 123.489 214.339C123.627 214.345 123.763 214.379 123.888 214.438C124.013 214.497 124.125 214.581 124.218 214.684C124.311 214.787 124.383 214.907 124.43 215.038C124.832 216.163 125.433 217.206 126.204 218.116C126.294 218.222 126.362 218.344 126.404 218.476C126.446 218.608 126.462 218.748 126.451 218.886C126.439 219.024 126.401 219.159 126.338 219.283C126.275 219.406 126.188 219.516 126.082 219.605L125.228 220.33Z" fill="#685E4D"/>
<path d="M133.874 217.709C132.675 217.709 131.501 217.352 130.504 216.682C129.506 216.013 128.728 215.061 128.269 213.947C127.81 212.834 127.69 211.609 127.924 210.427C128.159 209.245 128.737 208.159 129.585 207.307C130.434 206.455 131.515 205.875 132.692 205.64C133.869 205.405 135.089 205.527 136.198 205.988C137.306 206.45 138.253 207.231 138.919 208.234C139.586 209.236 139.941 210.415 139.94 211.62C139.938 213.235 139.299 214.783 138.161 215.925C137.024 217.066 135.482 217.708 133.874 217.709ZM133.874 207.637C133.091 207.637 132.325 207.87 131.673 208.308C131.022 208.745 130.514 209.366 130.214 210.093C129.914 210.82 129.836 211.62 129.989 212.392C130.142 213.164 130.519 213.873 131.073 214.43C131.627 214.986 132.333 215.365 133.101 215.519C133.87 215.673 134.666 215.594 135.39 215.293C136.114 214.992 136.733 214.482 137.168 213.827C137.604 213.173 137.836 212.404 137.836 211.617C137.835 210.562 137.418 209.55 136.675 208.804C135.932 208.058 134.925 207.638 133.874 207.637Z" fill="#685E4D"/>
<path d="M218.693 230.371H118.254C116.301 230.369 114.429 229.589 113.048 228.202C111.667 226.815 110.89 224.934 110.888 222.973V200.533C110.89 198.572 111.667 196.691 113.048 195.304C114.429 193.917 116.301 193.137 118.254 193.135H218.693C220.646 193.137 222.518 193.917 223.899 195.304C225.28 196.691 226.057 198.572 226.059 200.533V222.973C226.057 224.934 225.28 226.815 223.899 228.202C222.518 229.589 220.646 230.369 218.693 230.371ZM118.254 193.727C116.457 193.729 114.735 194.446 113.464 195.723C112.194 196.999 111.479 198.729 111.477 200.533V222.973C111.479 224.777 112.194 226.507 113.464 227.783C114.735 229.06 116.457 229.777 118.254 229.779H218.693C220.49 229.777 222.212 229.06 223.483 227.783C224.753 226.507 225.468 224.777 225.47 222.973V200.533C225.468 198.729 224.753 196.999 223.483 195.723C222.212 194.446 220.49 193.729 218.693 193.727H118.254Z" fill="white"/>
<path d="M126.772 94.9088C151.568 94.9088 171.669 74.7197 171.669 49.8151C171.669 24.9106 151.568 4.72144 126.772 4.72144C101.976 4.72144 81.875 24.9106 81.875 49.8151C81.875 74.7197 101.976 94.9088 126.772 94.9088Z" fill="black"/>
<path d="M126.772 97.3208C117.417 97.3208 108.273 94.5347 100.495 89.3147C92.7163 84.0947 86.654 76.6753 83.074 67.9948C79.4941 59.3143 78.5575 49.7625 80.3825 40.5473C82.2075 31.3321 86.7123 22.8674 93.3271 16.2237C99.9419 9.57988 108.37 5.05541 117.545 3.2224C126.72 1.38938 136.23 2.33015 144.873 5.92574C153.515 9.52133 160.902 15.6102 166.1 23.4225C171.297 31.2348 174.071 40.4195 174.071 49.8152C174.057 62.4101 169.069 74.4851 160.202 83.391C151.335 92.2969 139.312 97.3066 126.772 97.3208ZM126.772 2.90147C117.534 2.90147 108.503 5.65292 100.822 10.8079C93.1406 15.9628 87.1538 23.2897 83.6185 31.8621C80.0832 40.4345 79.1582 49.8672 80.9605 58.9676C82.7627 68.068 87.2114 76.4272 93.7438 82.9882C100.276 89.5492 108.599 94.0173 117.66 95.8275C126.72 97.6377 136.112 96.7086 144.647 93.1578C153.182 89.607 160.477 83.594 165.61 75.8791C170.742 68.1642 173.481 59.0939 173.481 49.8152C173.467 37.3772 168.542 25.4527 159.785 16.6578C151.028 7.86278 139.156 2.91557 126.772 2.90147Z" fill="white"/>
<mask id="mask0_314_619" style="mask-type:luminance" maskUnits="userSpaceOnUse" x="81" y="4" width="104" height="91">
<path d="M184.918 32.1488V54.4627H171.433C170.303 65.3745 165.25 75.4979 157.221 82.9359C149.192 90.3738 138.738 94.6157 127.818 94.8665C116.898 95.1174 106.262 91.36 97.903 84.2985C89.5437 77.2371 84.0353 67.3562 82.4099 56.5078C80.7846 45.6593 83.1539 34.5878 89.0739 25.3683C94.9939 16.1487 104.058 9.41386 114.568 6.4259C125.078 3.43793 136.312 4.40195 146.165 9.13727C156.018 13.8726 163.813 22.0542 168.09 32.1488H184.918Z" fill="white"/>
</mask>
<g mask="url(#mask0_314_619)">
<path d="M171.134 105.091C170.003 105.09 168.912 104.675 168.063 103.925C167.214 103.175 166.665 102.141 166.519 101.015C162.496 70.0429 149.21 66.0732 149.075 66.0347C149.15 66.0548 149.19 66.0613 149.19 66.0613L151.156 56.9097C151.728 57.034 156.905 58.303 162.427 64.5828C169.247 72.3406 173.733 84.1901 175.761 99.7998C175.92 101.031 175.587 102.275 174.833 103.26C174.079 104.244 172.967 104.887 171.742 105.047C171.54 105.075 171.337 105.09 171.134 105.091Z" fill="white"/>
<path d="M139.332 86.4497H117.664V102.42H139.332V86.4497Z" fill="white"/>
<path d="M155.157 32.7999C155.159 34.28 155.049 35.758 154.827 37.2212C154.416 39.9778 153.034 42.4949 150.933 44.3153C148.831 46.1356 146.149 47.1383 143.374 47.1412H110.161C107.446 47.1584 104.813 46.2091 102.728 44.4617C100.644 42.7143 99.2436 40.2818 98.7753 37.5959C98.5146 36.0113 98.3844 34.4078 98.3858 32.8017C98.3858 16.8641 111.097 8.18292 126.774 8.18292C128.665 8.17953 130.554 8.31186 132.426 8.57889C145.391 10.4392 155.157 18.8285 155.157 32.7999Z" fill="#685E4D"/>
<path d="M155.157 32.7998C155.159 34.2799 155.049 35.758 154.827 37.2212C154.416 39.9778 153.034 42.4949 150.933 44.3152C148.831 46.1355 146.149 47.1382 143.374 47.1411H121.469C118.754 47.1584 116.121 46.2091 114.037 44.4617C111.953 42.7143 110.552 40.2818 110.084 37.5959C109.823 36.0112 109.693 34.4077 109.694 32.8016C109.694 18.8332 119.456 10.4385 132.426 8.57886C145.391 10.4391 155.157 18.8285 155.157 32.7998Z" fill="white"/>
<path d="M101.869 42.1943C100.354 42.1933 98.9016 41.5885 97.8305 40.5127C96.7594 39.4369 96.1572 37.978 96.1562 36.4566V30.0678C96.1562 28.546 96.7581 27.0866 97.8295 26.0106C98.9008 24.9346 100.354 24.3301 101.869 24.3301C103.384 24.3301 104.837 24.9346 105.908 26.0106C106.98 27.0866 107.582 28.546 107.582 30.0678V36.4566C107.581 37.978 106.979 39.4369 105.907 40.5127C104.836 41.5885 103.384 42.1933 101.869 42.1943ZM101.869 24.922C100.51 24.9229 99.2078 25.4654 98.2472 26.4302C97.2866 27.395 96.7465 28.7033 96.7456 30.0678V36.4566C96.7456 37.8213 97.2853 39.1302 98.2462 40.0952C99.207 41.0602 100.51 41.6024 101.869 41.6024C103.228 41.6024 104.531 41.0602 105.492 40.0952C106.453 39.1302 106.992 37.8213 106.992 36.4566V30.0678C106.991 28.7033 106.451 27.395 105.491 26.4302C104.53 25.4654 103.227 24.9229 101.869 24.922Z" fill="white"/>
<path d="M129.05 35.2343C131.674 35.2343 133.801 32.9744 133.801 30.1867C133.801 27.399 131.674 25.1392 129.05 25.1392C126.426 25.1392 124.299 27.399 124.299 30.1867C124.299 32.9744 126.426 35.2343 129.05 35.2343Z" fill="#FCD139"/>
<path d="M148.054 35.2343C150.678 35.2343 152.805 32.9744 152.805 30.1867C152.805 27.399 150.678 25.1392 148.054 25.1392C145.43 25.1392 143.303 27.399 143.303 30.1867C143.303 32.9744 145.43 35.2343 148.054 35.2343Z" fill="#FCD139"/>
<path d="M134.508 52.0829H121.787C121.709 52.0829 121.634 52.0517 121.578 51.9962C121.523 51.9407 121.492 51.8655 121.492 51.787V47.8462C121.492 47.7677 121.523 47.6925 121.578 47.637C121.634 47.5815 121.709 47.5503 121.787 47.5503H134.508C134.586 47.5503 134.661 47.5815 134.716 47.637C134.772 47.6925 134.803 47.7677 134.803 47.8462V51.7893C134.802 51.8674 134.771 51.9421 134.716 51.9971C134.66 52.0521 134.586 52.0829 134.508 52.0829ZM122.081 51.491H134.213V48.1422H122.081V51.491Z" fill="white"/>
<path d="M99.417 67.4035C99.4151 65.9234 99.5256 64.4454 99.7476 62.9822C100.159 60.2256 101.54 57.7085 103.642 55.8883C105.744 54.068 108.426 53.0652 111.201 53.0622H144.415C147.13 53.045 149.763 53.9944 151.847 55.7418C153.931 57.4892 155.332 59.9216 155.8 62.6075C156.061 64.1921 156.191 65.7956 156.19 67.4018C156.19 83.3388 143.479 92.0205 127.801 92.0205C125.91 92.0239 124.022 91.8916 122.149 91.6245C109.184 89.7666 99.417 81.3749 99.417 67.4035Z" fill="#685E4D"/>
<path d="M153.353 64.2745C153.346 66.4652 152.476 68.5642 150.934 70.1133C149.391 71.6624 147.301 72.5359 145.12 72.543H122.482C120.298 72.543 118.204 71.6719 116.66 70.1212C115.116 68.5706 114.249 66.4674 114.249 64.2745C114.249 62.0815 115.116 59.9783 116.66 58.4277C118.204 56.877 120.298 56.0059 122.482 56.0059H145.12C147.302 56.0118 149.392 56.8849 150.935 58.4342C152.478 59.9836 153.347 62.0833 153.353 64.2745Z" fill="#FCD139"/>
<path d="M116.579 89.0375C116.515 89.0375 116.453 89.0167 116.402 88.9783C113.691 86.9108 112.305 83.8958 111.622 81.7301C110.828 78.9283 110.397 76.0354 110.34 73.1229C110.037 66.886 110.268 60.6345 111.029 54.4372C111.041 54.3611 111.082 54.2925 111.143 54.246C111.204 54.1995 111.281 54.1788 111.357 54.1883C111.433 54.1978 111.502 54.2367 111.55 54.2968C111.598 54.3568 111.621 54.4333 111.614 54.51C110.856 60.674 110.627 66.8918 110.929 73.0951C110.984 75.9567 111.405 78.7992 112.183 81.5525C112.841 83.636 114.169 86.5344 116.759 88.5077C116.808 88.545 116.845 88.597 116.863 88.6562C116.881 88.7155 116.881 88.7791 116.861 88.8381C116.842 88.897 116.804 88.9482 116.754 88.9846C116.704 89.0209 116.644 89.0404 116.582 89.0404L116.579 89.0375Z" fill="white"/>
<path d="M103.11 74.8069C101.601 74.8052 100.153 74.2021 99.0858 73.1298C98.0182 72.0576 97.4177 70.6039 97.416 69.0876V60.9308C97.416 59.4139 98.016 57.9591 99.084 56.8864C100.152 55.8138 101.6 55.2112 103.111 55.2112C104.621 55.2112 106.07 55.8138 107.138 56.8864C108.205 57.9591 108.805 59.4139 108.805 60.9308V69.0876C108.804 70.604 108.203 72.0578 107.135 73.1301C106.068 74.2023 104.62 74.8053 103.11 74.8069ZM103.11 55.8034C101.757 55.8049 100.459 56.3456 99.5023 57.3069C98.5452 58.2681 98.0069 59.5714 98.0053 60.9308V69.0876C98.0053 70.4475 98.5432 71.7518 99.5007 72.7134C100.458 73.6751 101.757 74.2153 103.111 74.2153C104.465 74.2153 105.763 73.6751 106.721 72.7134C107.678 71.7518 108.216 70.4475 108.216 69.0876V60.9308C108.215 59.5713 107.676 58.2679 106.719 57.3067C105.762 56.3454 104.464 55.8048 103.11 55.8034Z" fill="white"/>
<path d="M139.558 34.2288H135.669C135.669 34.2288 135.256 37.9357 139.36 37.9357C143.463 37.9357 142.993 34.2288 142.993 34.2288H139.558Z" fill="#685E4D"/>
<path d="M85.1667 106.589C86.2974 106.587 87.3889 106.173 88.238 105.423C89.0871 104.673 89.6359 103.638 89.7821 102.512C92.688 80.1392 100.427 71.857 104.551 68.968C105.315 68.4338 105.903 67.6821 106.239 66.8095C106.576 65.9369 106.644 64.9834 106.436 64.0714C106.269 63.3285 105.924 62.6378 105.431 62.0591C104.939 61.4804 104.313 61.0311 103.608 60.7502C102.903 60.4693 102.141 60.3652 101.387 60.447C100.633 60.5288 99.9104 60.7941 99.2817 61.2197C97.2867 62.6108 95.4705 64.2442 93.8742 66.0826C87.0749 73.8173 82.595 85.6194 80.556 101.163C80.449 101.833 80.4881 102.518 80.6705 103.171C80.853 103.824 81.1746 104.429 81.6129 104.945C82.0513 105.461 82.596 105.875 83.2094 106.159C83.8228 106.443 84.4902 106.589 85.1655 106.589H85.1667Z" fill="white"/>
<path d="M102.067 34.4104C101.989 34.4104 101.914 34.3793 101.859 34.3238C101.803 34.2683 101.772 34.193 101.772 34.1145V17.3897C101.772 17.3112 101.803 17.2359 101.859 17.1804C101.914 17.1249 101.989 17.0938 102.067 17.0938C102.145 17.0938 102.22 17.1249 102.275 17.1804C102.331 17.2359 102.362 17.3112 102.362 17.3897V34.1145C102.362 34.193 102.331 34.2683 102.275 34.3238C102.22 34.3793 102.145 34.4104 102.067 34.4104Z" fill="white"/>
<path d="M102.071 37.5634C103.462 37.5634 104.59 35.8955 104.59 33.8381C104.59 31.7807 103.462 30.1128 102.071 30.1128C100.679 30.1128 99.5508 31.7807 99.5508 33.8381C99.5508 35.8955 100.679 37.5634 102.071 37.5634Z" fill="#FCD139"/>
<path d="M101.891 20.3851C103.452 20.3851 104.717 19.1142 104.717 17.5464C104.717 15.9787 103.452 14.7078 101.891 14.7078C100.33 14.7078 99.0645 15.9787 99.0645 17.5464C99.0645 19.1142 100.33 20.3851 101.891 20.3851Z" fill="white"/>
<path d="M133.403 57.0547H133.403C132.856 57.0547 132.413 57.4996 132.413 58.0485V70.8994C132.413 71.4482 132.856 71.8932 133.403 71.8932H133.403C133.95 71.8932 134.393 71.4482 134.393 70.8994V58.0485C134.393 57.4996 133.95 57.0547 133.403 57.0547Z" fill="#685E4D"/>
<path d="M130.372 60.6143H130.371C129.825 60.6143 129.382 61.0592 129.382 61.608V67.3392C129.382 67.8881 129.825 68.333 130.371 68.333H130.372C130.918 68.333 131.361 67.8881 131.361 67.3392V61.608C131.361 61.0592 130.918 60.6143 130.372 60.6143Z" fill="#685E4D"/>
<path d="M124.704 59.8857H124.703C124.157 59.8857 123.714 60.3307 123.714 60.8795V68.0685C123.714 68.6174 124.157 69.0623 124.703 69.0623H124.704C125.25 69.0623 125.693 68.6174 125.693 68.0685V60.8795C125.693 60.3307 125.25 59.8857 124.704 59.8857Z" fill="#685E4D"/>
<path d="M127.441 61.959H127.441C126.894 61.959 126.451 62.4039 126.451 62.9528V65.9944C126.451 66.5433 126.894 66.9882 127.441 66.9882H127.441C127.988 66.9882 128.431 66.5433 128.431 65.9944V62.9528C128.431 62.4039 127.988 61.959 127.441 61.959Z" fill="#685E4D"/>
<path d="M121.883 61.959H121.882C121.336 61.959 120.893 62.4039 120.893 62.9528V65.9944C120.893 66.5433 121.336 66.9882 121.882 66.9882H121.883C122.429 66.9882 122.872 66.5433 122.872 65.9944V62.9528C122.872 62.4039 122.429 61.959 121.883 61.959Z" fill="#685E4D"/>
<path d="M136.423 68.333H136.424C136.97 68.333 137.413 67.8881 137.413 67.3392V61.608C137.413 61.0592 136.97 60.6143 136.424 60.6143H136.423C135.877 60.6143 135.434 61.0592 135.434 61.608V67.3392C135.434 67.8881 135.877 68.333 136.423 68.333Z" fill="#685E4D"/>
<path d="M142.091 69.0623H142.092C142.638 69.0623 143.081 68.6173 143.081 68.0685V60.8795C143.081 60.3306 142.638 59.8857 142.092 59.8857H142.091C141.545 59.8857 141.102 60.3306 141.102 60.8795V68.0685C141.102 68.6173 141.545 69.0623 142.091 69.0623Z" fill="#685E4D"/>
<path d="M139.353 66.9883H139.353C139.9 66.9883 140.343 66.5434 140.343 65.9945V62.9528C140.343 62.404 139.9 61.9591 139.353 61.9591H139.353C138.806 61.9591 138.363 62.404 138.363 62.9528V65.9945C138.363 66.5434 138.806 66.9883 139.353 66.9883Z" fill="#685E4D"/>
<path d="M144.912 66.9883H144.913C145.459 66.9883 145.902 66.5434 145.902 65.9945V62.9528C145.902 62.404 145.459 61.9591 144.913 61.9591H144.912C144.366 61.9591 143.923 62.404 143.923 62.9528V65.9945C143.923 66.5434 144.366 66.9883 144.912 66.9883Z" fill="#685E4D"/>
</g>
<path d="M312.216 213.835L298.24 227.463L297.5 234.115C297.5 234.115 286.282 244.491 293.524 251.983L322.131 224.091L312.216 213.835Z" fill="#FCD139"/>
<path d="M305.864 209.903L296.549 223.212L299.829 225.913L310.901 215.118L305.864 209.903Z" fill="#DBCDB5"/>
<path d="M293.004 250.948C292.945 250.948 292.888 250.93 292.839 250.897C292.791 250.865 292.753 250.818 292.731 250.763C292.709 250.709 292.703 250.649 292.715 250.591C292.727 250.534 292.756 250.481 292.798 250.44L320.391 223.536C320.447 223.481 320.523 223.451 320.601 223.452C320.679 223.453 320.754 223.485 320.809 223.541C320.864 223.597 320.894 223.673 320.893 223.752C320.892 223.83 320.86 223.905 320.804 223.96L293.209 250.861C293.154 250.916 293.081 250.947 293.004 250.948Z" fill="white"/>
<path d="M297.498 234.411C297.437 234.411 297.377 234.392 297.328 234.357C297.278 234.322 297.24 234.272 297.22 234.214C297.2 234.157 297.198 234.094 297.214 234.035C297.231 233.977 297.265 233.924 297.312 233.886C297.54 233.7 302.94 229.352 307.013 229.883C307.091 229.894 307.161 229.934 307.208 229.997C307.256 230.059 307.277 230.138 307.267 230.216C307.256 230.294 307.216 230.364 307.154 230.412C307.092 230.46 307.013 230.481 306.936 230.471C303.117 229.966 297.737 234.302 297.684 234.346C297.631 234.388 297.565 234.412 297.498 234.411Z" fill="white"/>
<path d="M298.373 230.374C297.917 230.376 297.461 230.354 297.007 230.309C295.985 230.225 294.993 229.912 294.107 229.393C293.664 229.146 293.298 228.78 293.051 228.336C292.916 228.09 292.85 227.812 292.859 227.531C292.869 227.251 292.953 226.978 293.104 226.742C293.318 226.489 293.594 226.297 293.905 226.186C294.215 226.074 294.55 226.046 294.875 226.105C295.992 226.238 297.046 226.693 297.91 227.416C298.536 227.928 299.114 228.495 299.639 229.11C299.623 228.103 299.752 227.098 300.021 226.127C300.366 224.852 301.099 223.717 302.117 222.879C302.399 222.642 302.729 222.468 303.084 222.369C303.282 222.314 303.49 222.302 303.694 222.335C303.897 222.367 304.091 222.444 304.262 222.559C304.793 222.934 304.969 223.679 304.747 224.601C304.436 225.807 303.838 226.92 303.005 227.843C302.383 228.545 301.689 229.18 300.935 229.737C302.115 229.737 303.283 229.498 304.368 229.033C304.987 228.783 305.549 228.411 306.022 227.939C306.476 227.485 306.756 226.885 306.812 226.245C306.834 225.941 306.781 225.637 306.658 225.359C306.535 225.082 306.344 224.839 306.104 224.654C306.072 224.631 306.045 224.603 306.023 224.57C306.002 224.537 305.987 224.501 305.98 224.462C305.973 224.423 305.974 224.384 305.982 224.345C305.991 224.307 306.007 224.271 306.029 224.239C306.052 224.206 306.08 224.179 306.113 224.158C306.146 224.137 306.183 224.123 306.222 224.117C306.26 224.11 306.3 224.112 306.338 224.121C306.376 224.13 306.412 224.146 306.443 224.169C306.765 224.413 307.02 224.734 307.187 225.102C307.355 225.47 307.428 225.874 307.401 226.277C307.338 227.059 307.001 227.793 306.449 228.349C305.923 228.878 305.296 229.296 304.605 229.577C303.197 230.194 301.655 230.437 300.127 230.283C300.083 230.31 300.034 230.325 299.983 230.327C299.454 230.35 298.915 230.374 298.373 230.374ZM294.61 226.685C294.42 226.668 294.229 226.695 294.051 226.765C293.873 226.834 293.714 226.943 293.585 227.084C293.497 227.232 293.45 227.401 293.449 227.574C293.447 227.746 293.491 227.916 293.575 228.066C293.775 228.413 294.066 228.697 294.416 228.889C295.227 229.36 296.133 229.643 297.068 229.718C297.849 229.787 298.635 229.799 299.419 229.755C298.854 229.072 298.226 228.444 297.545 227.879C296.77 227.228 295.825 226.815 294.822 226.691C294.767 226.69 294.694 226.685 294.61 226.685ZM303.476 222.913C303.391 222.913 303.307 222.923 303.225 222.944C302.95 223.024 302.696 223.161 302.478 223.346C301.559 224.108 300.897 225.138 300.586 226.294C300.298 227.343 300.179 228.431 300.232 229.518C301.084 228.922 301.865 228.23 302.559 227.454C303.329 226.603 303.883 225.577 304.172 224.464C304.231 224.214 304.39 223.376 303.92 223.043C303.789 222.955 303.633 222.91 303.476 222.913Z" fill="white"/>
<path d="M253.771 247.31H234.29L229.145 251.565C229.145 251.565 213.901 251.162 213.901 261.604H253.771V247.31Z" fill="#FCD139"/>
<path d="M251.938 240.048L236.026 243.079L236.507 247.311H251.938L251.938 240.048Z" fill="#DBCDB5"/>
<path d="M252.909 260.584H214.452C214.374 260.584 214.299 260.552 214.244 260.497C214.188 260.441 214.157 260.366 214.157 260.288C214.157 260.209 214.188 260.134 214.244 260.078C214.299 260.023 214.374 259.992 214.452 259.992H252.909C252.987 259.992 253.062 260.023 253.117 260.078C253.172 260.134 253.203 260.209 253.203 260.288C253.203 260.366 253.172 260.441 253.117 260.497C253.062 260.552 252.987 260.584 252.909 260.584Z" fill="white"/>
<path d="M238.677 255.667C238.633 255.667 238.589 255.657 238.549 255.638C238.509 255.618 238.474 255.59 238.447 255.555C236.056 252.524 229.188 251.868 229.119 251.862C229.041 251.855 228.969 251.817 228.919 251.756C228.868 251.696 228.844 251.618 228.851 251.539C228.858 251.461 228.895 251.388 228.956 251.338C229.016 251.287 229.094 251.263 229.172 251.27C229.466 251.296 236.361 251.955 238.908 255.185C238.943 255.229 238.964 255.281 238.97 255.336C238.976 255.392 238.967 255.448 238.943 255.498C238.919 255.548 238.881 255.59 238.834 255.62C238.787 255.649 238.733 255.665 238.677 255.665V255.667Z" fill="white"/>
<path d="M239.408 253.693C238.717 253.679 238.034 253.539 237.393 253.279C235.935 252.729 234.644 251.807 233.649 250.603C233.631 250.581 233.616 250.557 233.605 250.53L233.555 250.585C232.797 249.942 232.088 249.242 231.434 248.493C230.758 247.717 230.263 246.799 229.987 245.807C229.841 245.32 229.833 244.802 229.962 244.31C230.036 244.039 230.182 243.794 230.383 243.599C230.584 243.404 230.834 243.267 231.107 243.203C231.435 243.171 231.765 243.227 232.065 243.364C232.365 243.501 232.624 243.715 232.816 243.984C233.525 244.861 233.965 245.926 234.084 247.05C234.178 247.854 234.2 248.665 234.15 249.473C234.836 248.738 235.625 248.107 236.492 247.601C237.624 246.927 238.937 246.625 240.248 246.736C240.616 246.764 240.973 246.87 241.297 247.047C241.477 247.147 241.634 247.284 241.757 247.449C241.88 247.614 241.966 247.804 242.01 248.006C242.128 248.645 241.739 249.303 240.941 249.811C239.882 250.46 238.681 250.84 237.443 250.918C236.511 250.986 235.573 250.956 234.647 250.828C235.486 251.663 236.491 252.31 237.597 252.728C238.214 252.98 238.875 253.106 239.541 253.099C240.182 253.092 240.798 252.856 241.283 252.436C241.509 252.234 241.682 251.978 241.786 251.692C241.89 251.406 241.921 251.099 241.878 250.798C241.866 250.722 241.884 250.645 241.928 250.582C241.972 250.519 242.039 250.476 242.114 250.462C242.189 250.447 242.267 250.463 242.331 250.505C242.395 250.547 242.44 250.613 242.457 250.688C242.518 251.088 242.479 251.497 242.344 251.878C242.209 252.259 241.981 252.6 241.682 252.871C241.094 253.388 240.342 253.679 239.561 253.691C239.515 253.692 239.461 253.693 239.408 253.693ZM234.296 250.182C235.321 250.35 236.361 250.399 237.397 250.328C238.54 250.257 239.649 249.908 240.629 249.311C240.844 249.174 241.539 248.682 241.434 248.114C241.405 247.996 241.351 247.886 241.277 247.79C241.202 247.694 241.109 247.615 241.002 247.557C240.75 247.423 240.472 247.343 240.187 247.324C238.999 247.226 237.809 247.502 236.785 248.116C235.852 248.667 235.011 249.365 234.296 250.182ZM231.35 243.772C231.305 243.772 231.26 243.776 231.215 243.784C231.049 243.829 230.899 243.918 230.778 244.041C230.657 244.163 230.57 244.316 230.527 244.483C230.43 244.871 230.441 245.278 230.559 245.66C230.813 246.567 231.266 247.405 231.884 248.114C232.398 248.71 232.952 249.268 233.545 249.785C233.613 248.9 233.599 248.011 233.502 247.129C233.398 246.119 233.006 245.162 232.371 244.372C232.122 244.045 231.756 243.829 231.35 243.772Z" fill="white"/>
<path d="M307.687 210.263L296.282 224.973C293.294 222.461 266.836 199.898 258.492 181.282C255.384 174.349 253.247 164.39 251.787 154.456C250.345 144.654 249.561 134.873 249.146 128.05C250.762 128.177 252.473 128.247 254.266 128.232C260.095 128.188 265.891 127.367 271.505 125.793C272.232 125.592 272.965 125.377 273.706 125.147C274.072 125.034 274.443 124.914 274.813 124.792C276.098 124.369 277.403 123.9 278.727 123.384C279.34 125.223 279.805 127.108 280.118 129.022C281.497 137.854 281.002 171.105 281.002 171.105C285.549 181.238 298.063 202.171 307.687 210.263Z" fill="white"/>
<path d="M253.771 239.699L233.251 243.606C226.716 209.064 225 173.776 228.153 138.759V138.748C228.662 133.551 229.538 128.396 230.775 123.323C230.801 123.337 230.938 123.414 231.187 123.538C233.078 124.443 235.038 125.198 237.047 125.795C240.988 126.986 245.045 127.742 249.148 128.052C249.561 134.875 251.098 149.386 252.539 159.189C251.528 178.722 247.235 205.07 253.771 239.699Z" fill="white"/>
<path d="M252.536 159.483C252.465 159.482 252.396 159.456 252.343 159.409C252.289 159.362 252.255 159.297 252.245 159.226L248.881 134.038L235.728 130.942C235.689 130.934 235.652 130.918 235.62 130.896C235.587 130.873 235.56 130.844 235.539 130.811C235.517 130.778 235.503 130.74 235.496 130.701C235.49 130.662 235.491 130.622 235.5 130.584C235.509 130.545 235.526 130.509 235.549 130.477C235.572 130.445 235.602 130.418 235.635 130.398C235.669 130.377 235.707 130.364 235.746 130.359C235.785 130.353 235.824 130.355 235.863 130.366L249.411 133.555L249.438 133.757L252.829 159.149C252.839 159.227 252.818 159.305 252.771 159.368C252.723 159.43 252.653 159.471 252.576 159.481C252.563 159.483 252.549 159.483 252.536 159.483Z" fill="#F6EFE0"/>
<path d="M300.696 217.074C300.653 217.074 300.609 217.064 300.57 217.046C300.53 217.027 300.495 217 300.468 216.966C299.37 215.613 273.55 183.73 271.139 173.844C268.738 163.998 266.592 130.041 266.57 129.7C266.565 129.621 266.591 129.544 266.643 129.486C266.695 129.427 266.768 129.391 266.846 129.386C266.884 129.383 266.923 129.388 266.96 129.4C266.997 129.413 267.031 129.433 267.06 129.458C267.089 129.484 267.113 129.515 267.129 129.55C267.146 129.585 267.156 129.624 267.158 129.662C267.18 130.004 269.323 163.908 271.711 173.703C274.091 183.46 300.656 216.259 300.924 216.591C300.96 216.634 300.982 216.687 300.989 216.742C300.995 216.798 300.986 216.854 300.962 216.905C300.938 216.955 300.901 216.998 300.854 217.028C300.807 217.058 300.752 217.074 300.696 217.074Z" fill="#F6EFE0"/>
<path d="M257.245 115.726C257.386 120.916 257.616 124.974 257.866 128.107C256.631 128.186 255.431 128.227 254.264 128.231C252.471 128.245 250.76 128.176 249.145 128.048C245.099 127.742 241.099 127.002 237.21 125.842C239.417 106.347 246.763 63.4829 246.937 62.469V62.4619L246.941 62.4548L261.573 62.4507C261.573 62.4507 256.788 98.9218 257.245 115.726Z" fill="#685E4D"/>
<path d="M273.188 111.645C275.476 115.332 277.335 119.271 278.727 123.384C280.443 127.575 281.938 131.854 283.206 136.203C283.206 136.203 278.395 144.962 274.325 145.554C270.256 146.146 259.087 137.492 259.087 137.492C259.087 137.492 258.426 135.124 257.867 128.109C257.616 124.976 257.387 120.917 257.246 115.728C256.788 98.9236 261.573 62.4524 261.573 62.4524H266.025C269.265 62.4529 272.415 63.5189 274.994 65.4873C277.573 67.4558 279.44 70.2185 280.309 73.3531L286.454 96.4714C286.938 98.2173 287.024 100.05 286.706 101.834C286.388 103.618 285.674 105.307 284.617 106.776C283.56 108.245 282.188 109.456 280.601 110.319C279.015 111.182 277.255 111.675 275.453 111.762C274.696 111.791 273.938 111.752 273.188 111.645Z" fill="#FCD139"/>
<path d="M274.074 135.713C273.999 135.713 273.928 135.685 273.873 135.635C268.775 130.885 265.021 124.864 262.994 118.183C262.983 118.146 262.979 118.107 262.983 118.068C262.987 118.029 262.998 117.992 263.016 117.957C263.034 117.923 263.059 117.893 263.089 117.868C263.119 117.843 263.153 117.825 263.19 117.814C263.227 117.802 263.266 117.798 263.305 117.802C263.343 117.806 263.381 117.817 263.415 117.836C263.449 117.854 263.479 117.879 263.504 117.909C263.528 117.939 263.547 117.973 263.558 118.011C265.554 124.591 269.252 130.522 274.274 135.2C274.318 135.24 274.348 135.293 274.362 135.351C274.375 135.409 274.371 135.47 274.349 135.525C274.327 135.581 274.289 135.628 274.24 135.662C274.191 135.696 274.133 135.713 274.074 135.713Z" fill="white"/>
<path d="M246.941 62.4551L246.937 62.4622V62.4693C246.76 63.4832 239.418 106.347 237.21 125.843C236.853 128.54 236.646 131.254 236.59 133.975C236.59 133.975 231.949 143.022 227.491 141.881C225.022 141.25 228.133 130.423 231.401 120.883C231.401 120.876 231.404 120.872 231.404 120.868C232.036 118.523 232.694 116.441 233.314 114.636C234.259 111.791 235.415 109.021 236.771 106.35C236.773 106.343 236.775 106.337 236.778 106.331L235.696 98.1562H220.629L230.915 71.8962C232.005 69.1128 233.904 66.7236 236.365 65.0396C238.826 63.3557 241.735 62.455 244.713 62.4551H246.941Z" fill="#FCD139"/>
<path d="M292.502 48.6263C291.754 52.5392 288.53 55.5993 284.845 56.799C280.64 58.1698 275.931 57.4222 272.035 55.4531C270.399 54.6255 268.884 53.5751 267.533 52.3315C266.348 51.4146 265.263 50.3731 264.298 49.2247C262.943 47.6014 261.833 45.7866 261.005 43.8386C260.034 41.7008 259.523 39.3815 259.505 37.0319C259.493 34.948 260.278 32.9391 261.698 31.4197C262.393 30.703 263.267 30.1883 264.229 29.9302C265.191 29.6721 266.205 29.6802 267.162 29.9536C269.018 30.5408 270.002 32.2436 270.986 33.7973C271.48 34.65 272.11 35.4151 272.852 36.0618C273.657 36.6875 274.576 37.1499 275.557 37.4232C279.591 38.6229 284.043 37.4415 287.945 39.2319C291.449 40.8442 293.217 44.8957 292.502 48.6263Z" fill="#5F5555"/>
<path d="M266.04 41.4124C266.04 44.8897 264.665 48.2247 262.217 50.6835C259.769 53.1424 256.448 54.5238 252.986 54.5238C245.777 54.5238 237.819 44.1155 237.819 36.8744C237.819 29.6334 245.775 28.301 252.986 28.301C256.448 28.301 259.769 29.6824 262.217 32.1413C264.665 34.6001 266.04 37.935 266.04 41.4124Z" fill="#5F5555"/>
<path d="M265.9 47.822C265.134 50.2433 263.518 51.6875 261.267 51.2495L261.575 62.4527L259.176 64.4781C258.274 65.239 257.219 65.7951 256.083 66.1082C254.947 66.4213 253.758 66.4841 252.595 66.2922C251.433 66.1004 250.326 65.6584 249.35 64.9966C248.374 64.3348 247.551 63.4688 246.94 62.458L247.666 58.4924L245.894 57.0666C244.434 55.8909 243.255 54.4006 242.445 52.7058C241.634 51.011 241.214 49.155 241.214 47.2751V41.1668C247.016 42.5998 250.941 41.0135 253.246 39.3758C254.239 38.6981 255.106 37.8516 255.81 36.8745L256.826 38.6579L259.238 42.888V42.917L259.248 42.9058C260.015 42.1366 261.024 41.6573 262.102 41.5492C262.661 41.4978 263.224 41.56 263.758 41.7321C266.147 42.4938 266.721 45.2289 265.9 47.822Z" fill="#DBCDB5"/>
<path d="M250.227 59.7536C249.272 59.7525 248.346 59.4231 247.603 58.8202L247.48 58.7202C247.42 58.6703 247.382 58.5983 247.374 58.5202C247.367 58.4421 247.391 58.3641 247.44 58.3035C247.49 58.2429 247.562 58.2047 247.639 58.1971C247.717 58.1896 247.795 58.2134 247.855 58.2633L247.973 58.3621C248.611 58.8806 249.406 59.1634 250.226 59.1634C251.046 59.1634 251.842 58.8806 252.479 58.3621L254.832 56.4681C254.863 56.4424 254.897 56.4229 254.935 56.411C254.973 56.399 255.012 56.3948 255.052 56.3985C255.091 56.4023 255.129 56.4139 255.164 56.4327C255.198 56.4515 255.229 56.4772 255.254 56.5081C255.278 56.539 255.297 56.5746 255.307 56.6128C255.318 56.6509 255.321 56.6909 255.316 56.7302C255.311 56.7695 255.298 56.8075 255.279 56.8417C255.259 56.876 255.232 56.906 255.201 56.9298L252.848 58.8238C252.106 59.4253 251.181 59.7535 250.227 59.7536Z" fill="black"/>
<path d="M262.078 50.3284C262 50.333 261.923 50.3061 261.865 50.2539C261.806 50.2016 261.771 50.1281 261.767 50.0496C261.762 49.9711 261.789 49.8941 261.841 49.8353C261.893 49.7766 261.966 49.7411 262.044 49.7365C262.484 49.6719 262.894 49.4741 263.219 49.1697C263.544 48.8653 263.768 48.4686 263.863 48.0325C263.95 47.611 263.883 47.1722 263.674 46.7966C263.573 46.621 263.432 46.4713 263.264 46.3594C263.095 46.2474 262.903 46.1762 262.703 46.1515C262.512 46.1318 262.32 46.1673 262.148 46.2537C261.977 46.3401 261.834 46.4738 261.735 46.6392C261.703 46.6987 261.651 46.745 261.588 46.7706C261.526 46.7961 261.456 46.7993 261.391 46.7795C261.327 46.7597 261.271 46.7182 261.233 46.662C261.195 46.6057 261.178 46.5381 261.184 46.4705C261.219 45.5126 261.462 44.5739 261.896 43.72C262.102 43.3404 262.4 43.019 262.762 42.7855C262.958 42.6598 263.179 42.5776 263.408 42.5442C263.638 42.5108 263.873 42.5271 264.096 42.5919C264.335 42.6655 264.547 42.8085 264.705 43.0028C264.863 43.1972 264.96 43.4341 264.985 43.6839C264.989 43.7624 264.963 43.8396 264.911 43.8984C264.859 43.9572 264.786 43.9929 264.708 43.9976C264.63 44.0024 264.553 43.9757 264.494 43.9235C264.436 43.8713 264.4 43.7979 264.395 43.7195C264.379 43.589 264.324 43.4663 264.239 43.3663C264.154 43.2662 264.042 43.1932 263.916 43.156C263.773 43.1177 263.624 43.11 263.477 43.1333C263.331 43.1567 263.191 43.2106 263.067 43.2915C262.789 43.4739 262.561 43.7234 262.404 44.0172C262.118 44.5503 261.934 45.1324 261.861 45.7336C262.136 45.5912 262.446 45.5306 262.755 45.559C263.048 45.5929 263.329 45.6947 263.576 45.8565C263.824 46.0183 264.03 46.2356 264.179 46.4912C264.462 46.9915 264.555 47.5777 264.441 48.1414C264.324 48.7016 264.038 49.2119 263.621 49.6022C263.204 49.9925 262.678 50.2437 262.113 50.3213C262.102 50.3278 262.091 50.3284 262.078 50.3284Z" fill="black"/>
<path d="M243.597 46.988C244.278 46.988 244.83 46.3745 244.83 45.6178C244.83 44.861 244.278 44.2476 243.597 44.2476C242.916 44.2476 242.364 44.861 242.364 45.6178C242.364 46.3745 242.916 46.988 243.597 46.988Z" fill="black"/>
<path d="M251.092 46.988C251.773 46.988 252.325 46.3745 252.325 45.6178C252.325 44.861 251.773 44.2476 251.092 44.2476C250.411 44.2476 249.859 44.861 249.859 45.6178C249.859 46.3745 250.411 46.988 251.092 46.988Z" fill="black"/>
<path d="M244.62 42.4156C244.155 42.2621 243.66 42.2283 243.179 42.3173C242.697 42.4062 242.246 42.615 241.866 42.9246C241.785 42.9839 241.73 43.0731 241.715 43.1727C241.699 43.2722 241.723 43.374 241.782 43.4555C241.841 43.5371 241.93 43.5917 242.029 43.6075C242.128 43.6233 242.23 43.5988 242.311 43.5396C242.386 43.4758 242.465 43.4165 242.547 43.362C242.587 43.3354 242.627 43.3105 242.669 43.2868L242.683 43.2791L242.748 43.2466C242.836 43.2042 242.927 43.1671 243.019 43.1353C243.065 43.1193 243.112 43.1057 243.159 43.0915L243.182 43.0856L243.26 43.0684C243.356 43.0494 243.453 43.036 243.55 43.0282C243.598 43.024 243.647 43.0217 243.696 43.0205H243.778C243.875 43.0256 243.972 43.0361 244.068 43.0519C244.116 43.0602 244.164 43.0696 244.212 43.0809L244.283 43.0986H244.295L244.309 43.1028C244.4 43.1419 244.503 43.1442 244.597 43.109C244.69 43.0739 244.766 43.004 244.809 42.914C244.848 42.8225 244.85 42.7194 244.815 42.6264C244.78 42.5335 244.71 42.4579 244.62 42.4156Z" fill="black"/>
<path d="M249.888 42.9186C249.931 43.0086 250.008 43.0783 250.101 43.1135C250.194 43.1486 250.297 43.1464 250.389 43.1074L250.402 43.1033H250.415C250.438 43.0973 250.462 43.0908 250.486 43.0855C250.533 43.0743 250.581 43.0648 250.629 43.0565C250.726 43.0407 250.823 43.0303 250.92 43.0251H251.001C251.05 43.0251 251.099 43.0287 251.148 43.0328C251.245 43.0406 251.342 43.0541 251.438 43.0731L251.516 43.0902L251.539 43.0962C251.585 43.1104 251.632 43.124 251.678 43.14C251.771 43.1716 251.861 43.2088 251.949 43.2512L252.015 43.2838L252.029 43.2915C252.07 43.3152 252.111 43.34 252.151 43.3667C252.233 43.4212 252.312 43.4805 252.387 43.5442C252.468 43.6035 252.569 43.6279 252.668 43.6121C252.767 43.5964 252.856 43.5417 252.915 43.4602C252.974 43.3786 252.999 43.2769 252.983 43.1773C252.967 43.0777 252.913 42.9885 252.832 42.9293C252.452 42.6197 252 42.4108 251.519 42.3219C251.038 42.233 250.542 42.2668 250.078 42.4202C249.988 42.4624 249.918 42.538 249.883 42.6309C249.847 42.7239 249.849 42.827 249.888 42.9186Z" fill="black"/>
<path d="M244.836 51.5157C244.759 51.5157 244.685 51.4853 244.63 51.4311C244.595 51.3969 244.569 51.3544 244.555 51.3076C244.54 51.2608 244.537 51.2111 244.546 51.163L245.757 44.9305C245.772 44.8534 245.817 44.7854 245.881 44.7415C245.946 44.6976 246.026 44.6814 246.102 44.6964C246.179 44.7114 246.247 44.7564 246.291 44.8215C246.334 44.8866 246.35 44.9664 246.335 45.0435L245.211 50.8363L248.193 50.1911C248.231 50.1815 248.271 50.1798 248.31 50.186C248.349 50.1922 248.386 50.2062 248.42 50.2271C248.453 50.2481 248.482 50.2756 248.505 50.308C248.528 50.3404 248.544 50.3771 248.552 50.4158C248.56 50.4546 248.561 50.4946 248.554 50.5335C248.546 50.5725 248.531 50.6095 248.509 50.6425C248.487 50.6755 248.459 50.7037 248.426 50.7255C248.393 50.7473 248.356 50.7622 248.317 50.7694L244.899 51.5092C244.879 51.5135 244.857 51.5157 244.836 51.5157Z" fill="black"/>
<path d="M248.936 53.2809C248.866 53.2812 248.798 53.2566 248.745 53.2116C248.691 53.1666 248.656 53.1041 248.644 53.0351C248.632 52.9661 248.645 52.8951 248.68 52.8348C248.716 52.7745 248.771 52.7287 248.837 52.7056C249.437 52.4807 249.96 52.0871 250.343 51.5717C250.726 51.0564 250.953 50.4411 250.997 49.7994C251.002 49.7209 251.037 49.6474 251.095 49.5949C251.153 49.5424 251.23 49.5152 251.308 49.5195C251.386 49.5237 251.459 49.559 251.512 49.6175C251.564 49.676 251.591 49.7529 251.587 49.8314C251.535 50.5894 251.267 51.3162 250.814 51.925C250.361 52.5339 249.744 52.9988 249.035 53.2643C249.003 53.2754 248.969 53.281 248.936 53.2809Z" fill="black"/>
<path d="M253.733 66.6935C252.299 66.702 250.889 66.3256 249.648 65.6031C248.407 64.8806 247.382 63.8383 246.677 62.584C246.642 62.5134 246.637 62.4319 246.662 62.3575C246.688 62.2831 246.742 62.2218 246.812 62.1872C246.882 62.1526 246.963 62.1474 247.037 62.1729C247.112 62.1984 247.173 62.2524 247.207 62.323C247.852 63.488 248.8 64.4548 249.951 65.12C251.101 65.7852 252.409 66.1237 253.736 66.0992C258.392 66.0992 261.314 62.3112 261.342 62.2697C261.365 62.2387 261.394 62.2125 261.428 62.1927C261.461 62.1729 261.498 62.1598 261.536 62.1543C261.574 62.1488 261.613 62.151 261.651 62.1606C261.688 62.1703 261.724 62.1872 261.754 62.2106C261.785 62.2339 261.812 62.2631 261.831 62.2965C261.851 62.33 261.864 62.367 261.869 62.4055C261.875 62.4439 261.873 62.4831 261.863 62.5208C261.854 62.5584 261.837 62.5938 261.813 62.6249C261.683 62.7959 258.689 66.6935 253.733 66.6935Z" fill="black"/>
<path d="M245.502 111.414L246.299 121.944L238.092 116.25C231.976 118.914 225.086 119.173 218.788 116.975C212.49 114.778 207.245 110.283 204.091 104.384C200.937 98.4838 200.106 91.6093 201.761 85.1228C203.417 78.6363 207.439 73.0113 213.029 69.3629C218.62 65.7145 225.371 64.309 231.945 65.4251C238.519 66.5412 244.435 70.0973 248.521 75.3886C252.607 80.6799 254.565 87.32 254.005 93.9926C253.446 100.665 250.411 106.883 245.502 111.414Z" fill="#737373"/>
<path d="M246.299 122.239C246.24 122.239 246.181 122.221 246.132 122.187L238.059 116.586C236.778 117.135 235.456 117.585 234.107 117.931C234.032 117.948 233.953 117.935 233.887 117.895C233.821 117.855 233.774 117.79 233.755 117.715C233.736 117.64 233.747 117.561 233.786 117.494C233.824 117.427 233.888 117.378 233.962 117.357C235.334 117.006 236.676 116.544 237.974 115.978C238.02 115.958 238.07 115.95 238.12 115.955C238.17 115.959 238.218 115.977 238.259 116.006L245.958 121.347L245.207 111.436C245.204 111.391 245.211 111.346 245.227 111.304C245.244 111.262 245.27 111.225 245.303 111.195C248.48 108.261 250.889 104.587 252.32 100.497C253.75 96.4078 254.158 92.0277 253.506 87.7428C252.855 83.4578 251.164 79.3994 248.584 75.925C246.003 72.4507 242.612 69.6668 238.708 67.8187C238.645 67.7811 238.598 67.7212 238.576 67.6506C238.555 67.5801 238.56 67.5041 238.592 67.4374C238.623 67.3707 238.678 67.3182 238.746 67.2902C238.814 67.2622 238.89 67.2607 238.959 67.286C242.939 69.1704 246.398 72.0061 249.033 75.5447C251.669 79.0834 253.4 83.217 254.076 87.5837C254.752 91.9503 254.352 96.4168 252.91 100.592C251.468 104.767 249.03 108.524 245.807 111.533L246.593 121.92C246.597 121.96 246.591 122.001 246.578 122.04C246.564 122.078 246.543 122.114 246.515 122.144C246.488 122.173 246.454 122.197 246.417 122.214C246.38 122.23 246.339 122.238 246.299 122.238L246.299 122.239Z" fill="white"/>
<path d="M200.258 83.491C200.228 83.4912 200.199 83.4866 200.17 83.4774C200.133 83.4659 200.099 83.4471 200.069 83.4222C200.039 83.3973 200.015 83.3667 199.997 83.3323C199.979 83.2978 199.968 83.2601 199.964 83.2213C199.961 83.1825 199.965 83.1435 199.976 83.1063C202.206 76.0797 206.957 70.1365 213.305 66.4312C213.339 66.4118 213.376 66.3992 213.414 66.3941C213.453 66.3891 213.492 66.3917 213.529 66.4017C213.566 66.4118 213.601 66.4292 213.632 66.4529C213.663 66.4766 213.689 66.5061 213.708 66.5398C213.727 66.5735 213.74 66.6107 213.745 66.6493C213.75 66.6878 213.747 66.727 213.737 66.7646C213.727 66.8022 213.71 66.8374 213.686 66.8682C213.663 66.8991 213.633 66.9249 213.6 66.9444C207.379 70.5754 202.724 76.3995 200.54 83.285C200.521 83.3451 200.484 83.3975 200.433 83.4345C200.382 83.4716 200.321 83.4914 200.258 83.491Z" fill="white"/>
<path d="M198.523 82.9762C198.48 82.9764 198.436 82.9668 198.397 82.948C198.357 82.9293 198.322 82.9019 198.294 82.8679C198.267 82.8339 198.247 82.7941 198.236 82.7514C198.226 82.7087 198.225 82.6642 198.233 82.6211C198.685 80.429 199.546 78.3429 200.771 76.4732C200.814 76.4077 200.881 76.3622 200.958 76.3465C201.035 76.3309 201.114 76.3464 201.179 76.3897C201.245 76.4331 201.29 76.5006 201.306 76.5775C201.321 76.6545 201.306 76.7345 201.263 76.7999C200.079 78.6061 199.247 80.6216 198.812 82.7394C198.798 82.8062 198.762 82.8662 198.709 82.9093C198.657 82.9525 198.591 82.9761 198.523 82.9762Z" fill="white"/>
<path d="M208.437 94.4531C207.707 94.453 206.994 94.2355 206.386 93.8279C205.779 93.4204 205.306 92.8412 205.027 92.1636C204.748 91.4861 204.675 90.7405 204.817 90.0212C204.96 89.3019 205.311 88.6413 205.828 88.1227C206.344 87.6042 207.002 87.2511 207.718 87.1081C208.434 86.965 209.176 87.0385 209.851 87.3192C210.526 87.5999 211.102 88.0751 211.508 88.6849C211.914 89.2947 212.13 90.0116 212.13 90.745C212.129 91.7282 211.739 92.6707 211.047 93.3659C210.355 94.061 209.416 94.452 208.437 94.4531ZM208.437 87.6287C207.824 87.6289 207.224 87.8117 206.714 88.1542C206.204 88.4967 205.806 88.9834 205.571 89.5529C205.337 90.1223 205.275 90.7489 205.395 91.3533C205.515 91.9578 205.81 92.513 206.244 92.9487C206.678 93.3845 207.231 93.6812 207.833 93.8014C208.435 93.9216 209.059 93.8599 209.626 93.624C210.192 93.3881 210.677 92.9887 211.018 92.4762C211.359 91.9638 211.541 91.3613 211.541 90.745C211.54 89.9187 211.213 89.1265 210.631 88.5423C210.049 87.9581 209.26 87.6295 208.437 87.6287Z" fill="white"/>
<path d="M221.12 94.4531C220.39 94.4529 219.677 94.2352 219.07 93.8276C218.463 93.42 217.99 92.8408 217.71 92.1632C217.431 91.4856 217.358 90.7401 217.501 90.0209C217.643 89.3016 217.995 88.641 218.511 88.1225C219.028 87.6041 219.686 87.251 220.402 87.108C221.118 86.965 221.86 87.0385 222.535 87.3192C223.209 87.5999 223.786 88.0752 224.192 88.685C224.597 89.2948 224.814 90.0117 224.814 90.745C224.813 91.7283 224.423 92.6711 223.731 93.3663C223.038 94.0615 222.1 94.4524 221.12 94.4531ZM221.12 87.6287C220.507 87.629 219.907 87.8119 219.397 88.1545C218.887 88.4971 218.489 88.9838 218.255 89.5533C218.02 90.1227 217.959 90.7493 218.079 91.3537C218.199 91.9581 218.494 92.5133 218.928 92.949C219.362 93.3847 219.915 93.6813 220.517 93.8015C221.119 93.9216 221.742 93.8598 222.309 93.6239C222.876 93.388 223.361 92.9886 223.702 92.4762C224.042 91.9637 224.224 91.3613 224.224 90.745C224.224 89.9186 223.896 89.1262 223.314 88.5419C222.732 87.9577 221.943 87.6292 221.12 87.6287Z" fill="white"/>
<path d="M233.194 94.4531C232.463 94.4533 231.749 94.2359 231.142 93.8285C230.535 93.4211 230.062 92.842 229.782 92.1645C229.503 91.4869 229.429 90.7413 229.572 90.022C229.714 89.3026 230.066 88.6418 230.582 88.1232C231.098 87.6045 231.756 87.2513 232.472 87.1082C233.189 86.965 233.931 87.0384 234.606 87.3191C235.28 87.5997 235.857 88.075 236.263 88.6848C236.668 89.2946 236.885 90.0116 236.885 90.745C236.884 91.728 236.494 92.6703 235.802 93.3655C235.11 94.0606 234.172 94.4517 233.194 94.4531ZM233.194 87.6287C232.58 87.6286 231.98 87.8113 231.47 88.1536C230.959 88.496 230.562 88.9826 230.327 89.5521C230.092 90.1215 230.03 90.7481 230.15 91.3526C230.269 91.9571 230.565 92.5124 230.999 92.9483C231.433 93.3842 231.986 93.681 232.587 93.8013C233.189 93.9216 233.813 93.86 234.38 93.6241C234.947 93.3883 235.432 92.9888 235.773 92.4764C236.114 91.9639 236.296 91.3614 236.296 90.745C236.295 89.9189 235.968 89.1269 235.386 88.5427C234.805 87.9585 234.016 87.6298 233.194 87.6287Z" fill="white"/>
<path d="M200.681 85.1182C200.882 85.1435 201.077 85.2089 201.253 85.3105C201.429 85.4121 201.584 85.548 201.707 85.7101C201.958 86.0357 202.07 86.4479 202.019 86.8565L201.559 90.4859C201.493 90.8819 201.277 91.2368 200.956 91.4763C200.636 91.7157 200.235 91.8211 199.839 91.7704C199.442 91.7196 199.081 91.5166 198.83 91.204C198.579 90.8913 198.459 90.4934 198.494 90.0935L198.955 86.4635C199.008 86.056 199.219 85.6859 199.542 85.4338C199.865 85.1818 200.274 85.0684 200.681 85.1182Z" fill="#DBCDB5"/>
<path d="M205.399 98.2326C205.504 98.5649 205.474 98.9255 205.316 99.2358C205.157 99.5462 204.884 99.7812 204.554 99.8898L201.612 100.845C201.282 100.95 200.922 100.921 200.613 100.762C200.304 100.603 200.07 100.327 199.962 99.9958C199.857 99.6634 199.887 99.3026 200.045 98.9922C200.204 98.6817 200.478 98.4468 200.808 98.3385L203.749 97.3838C204.08 97.278 204.439 97.3079 204.748 97.4669C205.057 97.6259 205.291 97.9011 205.399 98.2326Z" fill="#DBCDB5"/>
<path d="M204.966 95.3381C205.09 95.7299 205.054 96.1549 204.868 96.5207C204.681 96.8865 204.358 97.1635 203.969 97.2914L200.502 98.4159C200.113 98.5425 199.689 98.5084 199.324 98.3211C198.959 98.1338 198.683 97.8086 198.557 97.4171C198.431 97.0256 198.465 96.5999 198.652 96.2335C198.838 95.8672 199.162 95.5902 199.552 95.4636L203.019 94.339C203.409 94.2131 203.833 94.2475 204.198 94.4348C204.563 94.622 204.839 94.9468 204.966 95.3381Z" fill="#DBCDB5"/>
<path d="M204.015 92.3835C204.139 92.7752 204.104 93.2002 203.917 93.5661C203.731 93.9319 203.408 94.2089 203.019 94.3367L199.552 95.4613C199.162 95.5858 198.739 95.5505 198.374 95.3632C198.01 95.1758 197.734 94.8516 197.607 94.461C197.544 94.267 197.521 94.0625 197.537 93.8593C197.554 93.6561 197.611 93.4582 197.704 93.2772C197.891 92.9113 198.215 92.6346 198.604 92.5078L202.07 91.3832C202.46 91.2585 202.884 91.2937 203.248 91.4811C203.612 91.6685 203.888 91.9928 204.015 92.3835Z" fill="#DBCDB5"/>
<path d="M203.025 89.4437C203.087 89.6444 203.104 89.8561 203.076 90.0641C203.048 90.2722 202.974 90.4715 202.862 90.6482C202.617 91.0408 202.241 91.3329 201.801 91.4721L198.83 92.4369C198.419 92.6001 197.961 92.5948 197.554 92.422C197.147 92.2491 196.824 91.9227 196.654 91.5129C196.593 91.312 196.576 91.1001 196.604 90.8918C196.632 90.6835 196.705 90.4839 196.818 90.3067C197.061 89.9132 197.438 89.6208 197.878 89.4828L200.85 88.518C201.261 88.3547 201.72 88.3602 202.127 88.5334C202.534 88.7066 202.856 89.0336 203.025 89.4437Z" fill="#DBCDB5"/>
<path d="M198.6 89.5443C198.529 89.5442 198.461 89.5186 198.408 89.4721C198.354 89.4256 198.319 89.3614 198.309 89.2911C198.299 89.2208 198.314 89.1492 198.352 89.0893C198.39 89.0293 198.448 88.9852 198.516 88.9648L201.676 88.0178C201.713 88.0053 201.753 88.0005 201.792 88.0036C201.831 88.0068 201.87 88.0179 201.905 88.0362C201.94 88.0545 201.971 88.0797 201.996 88.1103C202.021 88.1409 202.04 88.1762 202.051 88.2142C202.062 88.2522 202.066 88.2921 202.061 88.3316C202.057 88.371 202.045 88.4091 202.025 88.4437C202.006 88.4782 201.98 88.5085 201.949 88.5328C201.918 88.557 201.882 88.5747 201.844 88.5848L198.684 89.5318C198.657 89.5399 198.628 89.5441 198.6 89.5443Z" fill="black"/>
<path d="M198.601 92.8068C198.531 92.8065 198.463 92.7812 198.41 92.7355C198.357 92.6897 198.322 92.6265 198.311 92.5571C198.3 92.4876 198.314 92.4166 198.351 92.3566C198.387 92.2966 198.444 92.2517 198.51 92.2297L201.977 91.1052C202.051 91.0843 202.129 91.0929 202.196 91.129C202.264 91.1652 202.314 91.2261 202.338 91.299C202.361 91.3719 202.355 91.4511 202.322 91.5199C202.288 91.5888 202.23 91.6418 202.158 91.668L198.691 92.7926C198.662 92.8019 198.632 92.8067 198.601 92.8068Z" fill="black"/>
<path d="M199.552 95.7614C199.481 95.7617 199.413 95.7367 199.36 95.6909C199.306 95.6452 199.271 95.5817 199.26 95.5119C199.248 95.4421 199.263 95.3707 199.299 95.3105C199.336 95.2503 199.393 95.2054 199.46 95.1837L202.927 94.0592C203.001 94.0359 203.081 94.0429 203.15 94.0786C203.219 94.1144 203.271 94.176 203.295 94.2501C203.319 94.3243 203.313 94.4049 203.278 94.4745C203.243 94.5441 203.182 94.5972 203.109 94.622L199.642 95.7466C199.613 95.7561 199.582 95.7611 199.552 95.7614Z" fill="black"/>
<path d="M200.257 98.7699C200.186 98.7701 200.118 98.7451 200.065 98.6994C200.011 98.6536 199.976 98.5901 199.965 98.5203C199.954 98.4506 199.968 98.3791 200.005 98.319C200.041 98.2588 200.098 98.2138 200.165 98.1922L204.169 96.8818C204.243 96.8574 204.324 96.8638 204.394 96.8993C204.464 96.9349 204.516 96.9968 204.541 97.0715C204.565 97.1461 204.559 97.2274 204.523 97.2973C204.488 97.3673 204.426 97.4203 204.352 97.4446L200.348 98.7557C200.319 98.765 200.288 98.7698 200.257 98.7699Z" fill="black"/>
<path d="M268.675 94.5679L249.13 91.5269L245.815 107.718L266.933 110.748L268.675 94.5679Z" fill="#FCD139"/>
<path d="M248.666 93.7909L246.298 105.362C245.923 105.411 245.544 105.423 245.166 105.399L230.867 104.48C230.451 104.453 230.062 104.261 229.786 103.947C229.51 103.632 229.369 103.221 229.394 102.802C229.407 102.595 229.46 102.392 229.552 102.206C229.644 102.02 229.772 101.855 229.928 101.719C230.03 101.626 230.145 101.548 230.269 101.49L228.973 101.381C228.662 101.361 228.364 101.25 228.117 101.06C227.869 100.871 227.683 100.611 227.583 100.315C227.483 100.02 227.472 99.7003 227.553 99.3983C227.633 99.0963 227.801 98.8252 228.036 98.6195C228.149 98.4874 228.292 98.3839 228.452 98.3174C228.613 98.2509 228.786 98.2232 228.959 98.2365C228.543 98.2094 228.155 98.0175 227.88 97.7029C227.605 97.3884 227.466 96.9769 227.493 96.5591C227.52 96.1413 227.711 95.7514 228.024 95.4751C228.337 95.1989 228.747 95.0589 229.163 95.0859C228.747 95.0582 228.358 94.8662 228.083 94.5517C227.807 94.2373 227.667 93.826 227.692 93.408C227.721 92.9901 227.912 92.6004 228.225 92.3234C228.537 92.0464 228.946 91.9044 229.362 91.9282L240.574 92.6468L237.495 90.1816C237.288 90.0154 237.115 89.8098 236.986 89.5764C236.858 89.3431 236.776 89.0866 236.746 88.8216C236.716 88.5566 236.739 88.2883 236.812 88.032C236.886 87.7757 237.008 87.5364 237.174 87.3278C237.339 87.1193 237.544 86.9455 237.776 86.8163C238.009 86.6872 238.264 86.6054 238.528 86.5754C238.792 86.5454 239.059 86.5679 239.314 86.6416C239.569 86.7153 239.808 86.8388 240.015 87.005L243.551 89.8353L243.576 89.8572L248.666 93.7909Z" fill="#DBCDB5"/>
<path d="M273.189 111.942C273.175 111.942 273.161 111.942 273.147 111.942L245.774 108.014C245.734 108.008 245.695 107.994 245.661 107.973C245.626 107.952 245.597 107.924 245.574 107.89C245.55 107.857 245.534 107.819 245.526 107.779C245.518 107.74 245.519 107.698 245.527 107.659L248.842 91.4666C248.858 91.3929 248.902 91.3281 248.964 91.285C249.025 91.2419 249.101 91.2237 249.175 91.234L268.275 94.2064L264.15 78.5251C264.13 78.4492 264.141 78.3684 264.18 78.3006C264.22 78.2327 264.284 78.1833 264.36 78.1632C264.435 78.1431 264.516 78.154 264.583 78.1934C264.651 78.2329 264.7 78.2977 264.72 78.3736L268.963 94.4923C268.976 94.5398 268.976 94.5897 268.965 94.6375C268.953 94.6853 268.93 94.7295 268.897 94.766C268.864 94.8026 268.823 94.8303 268.777 94.8468C268.731 94.8633 268.681 94.868 268.633 94.8605L249.363 91.862L246.168 107.469L273.23 111.353C273.304 111.363 273.371 111.401 273.418 111.46C273.465 111.518 273.488 111.591 273.483 111.666C273.477 111.741 273.444 111.811 273.39 111.862C273.336 111.913 273.264 111.941 273.189 111.942H273.189Z" fill="white"/>
<path d="M236.377 95.8212H236.358L228.992 95.3476C228.953 95.3452 228.915 95.3351 228.881 95.3179C228.846 95.3008 228.815 95.2769 228.789 95.2477C228.764 95.2186 228.744 95.1846 228.732 95.1478C228.719 95.111 228.714 95.0721 228.716 95.0334C228.717 94.9939 228.726 94.9551 228.742 94.9193C228.759 94.8835 228.782 94.8515 228.812 94.8255C228.841 94.7994 228.876 94.7799 228.913 94.7681C228.951 94.7563 228.99 94.7525 229.029 94.7569L236.396 95.2305C236.474 95.233 236.548 95.2666 236.601 95.3238C236.655 95.3811 236.683 95.4574 236.681 95.5359C236.678 95.6144 236.645 95.6886 236.588 95.7424C236.531 95.7961 236.455 95.8248 236.377 95.8223V95.8212Z" fill="black"/>
<path d="M236.173 99.0268H236.154L228.787 98.5532C228.71 98.5482 228.637 98.5124 228.585 98.4536C228.534 98.3948 228.507 98.3178 228.512 98.2396C228.513 98.2001 228.522 98.1613 228.539 98.1256C228.555 98.0898 228.579 98.0579 228.608 98.0319C228.638 98.0058 228.672 97.9862 228.71 97.9743C228.747 97.9624 228.787 97.9584 228.826 97.9625L236.192 98.4361C236.27 98.4386 236.344 98.4723 236.398 98.5296C236.451 98.587 236.48 98.6633 236.477 98.7418C236.474 98.8202 236.441 98.8945 236.384 98.9482C236.327 99.0018 236.251 99.0305 236.173 99.0279V99.0268Z" fill="black"/>
<path d="M236.322 102.149H236.305L230.235 101.76C230.157 101.754 230.085 101.718 230.033 101.66C229.982 101.601 229.956 101.524 229.961 101.446C229.961 101.406 229.97 101.367 229.986 101.332C230.003 101.296 230.026 101.264 230.056 101.238C230.085 101.211 230.12 101.192 230.157 101.18C230.195 101.168 230.234 101.164 230.273 101.169L236.343 101.558C236.421 101.56 236.495 101.594 236.549 101.651C236.602 101.709 236.631 101.785 236.628 101.863C236.626 101.942 236.592 102.016 236.535 102.07C236.478 102.123 236.402 102.152 236.324 102.15L236.322 102.149Z" fill="black"/>
<path d="M294.645 176.13C294.593 176.13 294.543 176.116 294.498 176.09C294.453 176.064 294.416 176.027 294.39 175.982L291.611 171.149C291.585 171.104 291.571 171.053 291.571 171.001C291.571 170.949 291.585 170.898 291.611 170.853L294.39 166.021C294.416 165.976 294.453 165.939 294.498 165.913C294.543 165.887 294.593 165.873 294.645 165.873C294.697 165.873 294.748 165.887 294.792 165.912C294.837 165.938 294.874 165.976 294.9 166.02L297.686 170.853C297.712 170.898 297.725 170.949 297.725 171.001C297.725 171.052 297.712 171.103 297.686 171.148L294.9 175.981C294.874 176.026 294.837 176.064 294.793 176.09C294.748 176.116 294.697 176.13 294.645 176.13ZM292.205 171.001L294.646 175.243L297.09 171.001L294.646 166.76L292.205 171.001Z" fill="white"/>
<path d="M286.917 170.339C286.585 170.339 286.261 170.241 285.985 170.056C285.709 169.87 285.493 169.607 285.366 169.299C285.239 168.991 285.206 168.652 285.27 168.325C285.335 167.998 285.495 167.698 285.73 167.462C285.964 167.226 286.263 167.066 286.589 167C286.915 166.935 287.252 166.969 287.559 167.096C287.865 167.224 288.128 167.44 288.312 167.717C288.496 167.994 288.595 168.32 288.595 168.654C288.594 169.1 288.417 169.529 288.103 169.845C287.788 170.161 287.362 170.339 286.917 170.339ZM286.917 167.558C286.702 167.557 286.491 167.621 286.312 167.742C286.133 167.862 285.993 168.032 285.911 168.232C285.828 168.432 285.806 168.652 285.848 168.864C285.89 169.077 285.994 169.272 286.146 169.425C286.299 169.578 286.493 169.682 286.704 169.724C286.915 169.766 287.134 169.745 287.333 169.662C287.532 169.579 287.702 169.439 287.822 169.259C287.942 169.079 288.006 168.868 288.006 168.651C288.005 168.362 287.89 168.085 287.686 167.88C287.482 167.675 287.205 167.56 286.917 167.56V167.558Z" fill="white"/>
<path d="M291.867 164.139C291.577 164.139 291.293 164.052 291.052 163.891C290.811 163.729 290.623 163.499 290.512 163.23C290.401 162.961 290.372 162.665 290.429 162.379C290.485 162.093 290.625 161.831 290.83 161.625C291.035 161.419 291.296 161.279 291.581 161.222C291.865 161.165 292.16 161.194 292.428 161.306C292.696 161.417 292.925 161.606 293.086 161.848C293.247 162.09 293.333 162.375 293.333 162.666C293.332 163.057 293.178 163.431 292.903 163.707C292.628 163.983 292.255 164.138 291.867 164.139ZM291.867 161.785C291.693 161.785 291.524 161.837 291.379 161.934C291.235 162.031 291.123 162.168 291.056 162.329C290.99 162.49 290.973 162.667 291.007 162.838C291.04 163.009 291.124 163.166 291.247 163.289C291.369 163.412 291.525 163.496 291.696 163.53C291.866 163.564 292.042 163.547 292.202 163.48C292.362 163.413 292.499 163.3 292.596 163.156C292.692 163.011 292.743 162.84 292.743 162.666C292.744 162.55 292.721 162.436 292.677 162.329C292.633 162.222 292.569 162.124 292.487 162.042C292.406 161.96 292.309 161.895 292.203 161.851C292.096 161.806 291.982 161.783 291.867 161.783V161.785Z" fill="white"/>
<path d="M285.533 164.817C285.318 164.817 285.108 164.753 284.93 164.633C284.751 164.513 284.612 164.343 284.53 164.144C284.448 163.944 284.426 163.725 284.468 163.514C284.51 163.302 284.614 163.108 284.765 162.955C284.917 162.803 285.111 162.699 285.321 162.657C285.532 162.615 285.75 162.637 285.949 162.719C286.147 162.802 286.316 162.942 286.436 163.121C286.555 163.301 286.618 163.511 286.618 163.727C286.618 164.016 286.503 164.293 286.3 164.497C286.096 164.702 285.82 164.817 285.533 164.817ZM285.533 163.228C285.435 163.228 285.339 163.257 285.257 163.312C285.176 163.367 285.112 163.445 285.074 163.536C285.037 163.627 285.027 163.727 285.046 163.823C285.065 163.92 285.112 164.009 285.182 164.079C285.251 164.148 285.339 164.196 285.436 164.215C285.532 164.234 285.632 164.225 285.722 164.187C285.813 164.149 285.89 164.086 285.945 164.004C286 163.922 286.029 163.826 286.029 163.727C286.029 163.595 285.976 163.468 285.883 163.375C285.79 163.281 285.664 163.228 285.533 163.228Z" fill="white"/>
<path d="M234.632 28.5962C234.58 28.5962 234.529 28.5826 234.484 28.5566C234.44 28.5306 234.402 28.4932 234.377 28.4483L232.25 24.7508C232.225 24.7058 232.211 24.6547 232.211 24.6028C232.211 24.5509 232.225 24.4998 232.25 24.4548L234.377 20.7573C234.402 20.7124 234.44 20.675 234.484 20.649C234.529 20.6231 234.58 20.6094 234.632 20.6094C234.683 20.6094 234.734 20.6231 234.779 20.649C234.824 20.675 234.861 20.7124 234.887 20.7573L237.018 24.4548C237.044 24.4998 237.058 24.5509 237.058 24.6028C237.058 24.6547 237.044 24.7058 237.018 24.7508L234.89 28.4488C234.864 28.4942 234.826 28.5317 234.781 28.5576C234.735 28.5835 234.684 28.5968 234.632 28.5962ZM232.846 24.6028L234.632 27.7096L236.422 24.6028L234.632 21.4966L232.846 24.6028Z" fill="white"/>
<path d="M229.6 23.0461C229.268 23.0462 228.944 22.9474 228.667 22.7622C228.391 22.5769 228.176 22.3136 228.049 22.0054C227.922 21.6973 227.888 21.3582 227.953 21.031C228.018 20.7039 228.178 20.4033 228.413 20.1675C228.647 19.9316 228.947 19.771 229.272 19.706C229.598 19.6409 229.936 19.6744 230.243 19.8021C230.549 19.9298 230.812 20.146 230.996 20.4234C231.18 20.7008 231.279 21.0269 231.279 21.3604C231.278 21.8073 231.101 22.2356 230.786 22.5515C230.472 22.8675 230.045 23.0453 229.6 23.0461ZM229.6 20.2643C229.385 20.2642 229.174 20.3283 228.995 20.4484C228.816 20.5686 228.676 20.7395 228.593 20.9395C228.511 21.1394 228.489 21.3595 228.531 21.5718C228.573 21.7841 228.677 21.9792 228.829 22.1323C228.981 22.2854 229.176 22.3897 229.387 22.432C229.598 22.4743 229.818 22.4526 230.017 22.3698C230.216 22.287 230.386 22.1467 230.506 21.9667C230.626 21.7868 230.689 21.5751 230.689 21.3587C230.689 21.0686 230.574 20.7905 230.37 20.5854C230.166 20.3802 229.889 20.2648 229.6 20.2643Z" fill="white"/>
<path d="M234.55 18.8756C234.26 18.8755 233.976 18.789 233.735 18.6272C233.494 18.4653 233.306 18.2352 233.195 17.9662C233.085 17.6971 233.056 17.401 233.112 17.1154C233.169 16.8298 233.309 16.5674 233.514 16.3615C233.719 16.1556 233.98 16.0154 234.264 15.9587C234.549 15.9019 234.844 15.9311 235.111 16.0426C235.379 16.154 235.608 16.3428 235.769 16.585C235.93 16.8271 236.016 17.1118 236.016 17.403C236.016 17.7935 235.861 18.1679 235.586 18.444C235.311 18.7201 234.938 18.8753 234.55 18.8756ZM234.55 16.5223C234.376 16.5224 234.207 16.5742 234.063 16.671C233.918 16.7679 233.806 16.9055 233.74 17.0664C233.674 17.2273 233.656 17.4044 233.69 17.5752C233.724 17.746 233.808 17.9029 233.93 18.026C234.053 18.1491 234.209 18.2329 234.379 18.2669C234.549 18.3008 234.726 18.2833 234.886 18.2166C235.046 18.15 235.183 18.0371 235.279 17.8923C235.376 17.7474 235.427 17.5772 235.427 17.403C235.427 17.1694 235.334 16.9455 235.17 16.7804C235.005 16.6153 234.782 16.5225 234.55 16.5223Z" fill="white"/>
<path d="M229.6 17.3167C229.385 17.3167 229.176 17.2528 228.997 17.133C228.819 17.0132 228.679 16.8429 228.597 16.6437C228.515 16.4445 228.494 16.2253 228.536 16.0138C228.577 15.8023 228.681 15.608 228.833 15.4556C228.984 15.3031 229.178 15.1992 229.388 15.1572C229.599 15.1151 229.817 15.1367 230.016 15.2192C230.214 15.3017 230.383 15.4415 230.503 15.6208C230.622 15.8001 230.686 16.0108 230.686 16.2265C230.685 16.5155 230.571 16.7927 230.367 16.9971C230.164 17.2014 229.888 17.3164 229.6 17.3167ZM229.6 15.7281C229.502 15.7281 229.406 15.7573 229.324 15.8121C229.243 15.8669 229.179 15.9447 229.142 16.0358C229.104 16.1268 229.094 16.227 229.113 16.3237C229.133 16.4204 229.18 16.5092 229.249 16.5789C229.319 16.6486 229.407 16.696 229.503 16.7153C229.6 16.7345 229.699 16.7246 229.79 16.6869C229.881 16.6492 229.958 16.5853 230.013 16.5034C230.067 16.4214 230.096 16.325 230.096 16.2265C230.096 16.0944 230.044 15.9677 229.951 15.8743C229.858 15.7808 229.732 15.7283 229.6 15.7281Z" fill="white"/>
<path d="M43.4494 162.869C43.3977 162.869 43.3469 162.855 43.3021 162.829C43.2573 162.803 43.2201 162.766 43.1942 162.721L40.4145 157.888C40.3886 157.843 40.375 157.792 40.375 157.74C40.375 157.688 40.3886 157.637 40.4145 157.592L43.1942 152.76C43.2201 152.715 43.2573 152.678 43.3021 152.652C43.3469 152.626 43.3977 152.612 43.4494 152.612C43.5009 152.612 43.5516 152.626 43.5963 152.652C43.6409 152.677 43.6781 152.715 43.704 152.759L46.4896 157.592C46.5155 157.637 46.5291 157.688 46.5291 157.74C46.5291 157.791 46.5155 157.843 46.4896 157.887L43.704 162.72C43.6782 162.765 43.6412 162.803 43.5965 162.829C43.5518 162.855 43.5011 162.869 43.4494 162.869ZM41.0103 157.74L43.4494 161.982L45.8944 157.74L43.4494 153.499L41.0103 157.74Z" fill="white"/>
<path d="M54.9957 159.778C54.6638 159.778 54.3393 159.679 54.0633 159.494C53.7873 159.309 53.5722 159.045 53.4451 158.737C53.3181 158.429 53.2849 158.09 53.3496 157.763C53.4144 157.436 53.5742 157.136 53.809 156.9C54.0437 156.664 54.3427 156.504 54.6683 156.439C54.9939 156.374 55.3313 156.407 55.638 156.535C55.9447 156.662 56.2068 156.878 56.3912 157.156C56.5756 157.433 56.674 157.759 56.674 158.092C56.6734 158.539 56.4964 158.967 56.1818 159.283C55.8672 159.599 55.4406 159.777 54.9957 159.778ZM54.9957 156.996C54.7803 156.996 54.5698 157.06 54.3907 157.18C54.2117 157.3 54.0721 157.471 53.9896 157.671C53.9072 157.871 53.8856 158.091 53.9276 158.303C53.9695 158.515 54.0732 158.71 54.2254 158.863C54.3777 159.016 54.5717 159.12 54.7829 159.163C54.9941 159.205 55.2131 159.183 55.4121 159.101C55.6111 159.018 55.7812 158.878 55.9009 158.698C56.0207 158.518 56.0846 158.307 56.0847 158.09C56.084 157.801 55.9689 157.523 55.7648 157.318C55.5607 157.113 55.2842 156.998 54.9957 156.998V156.996Z" fill="white"/>
<path d="M40.8211 150.878C40.5311 150.878 40.2477 150.792 40.0067 150.63C39.7656 150.468 39.5778 150.238 39.4669 149.969C39.356 149.7 39.3271 149.404 39.3837 149.118C39.4404 148.832 39.58 148.57 39.7851 148.364C39.9902 148.158 40.2514 148.018 40.5358 147.961C40.8202 147.905 41.115 147.934 41.3829 148.045C41.6507 148.157 41.8797 148.345 42.0408 148.588C42.2019 148.83 42.2878 149.114 42.2878 149.406C42.2872 149.796 42.1325 150.17 41.8575 150.447C41.5825 150.723 41.2098 150.878 40.8211 150.878ZM40.8211 148.525C40.6477 148.525 40.4782 148.577 40.3341 148.674C40.1899 148.771 40.0776 148.908 40.0114 149.069C39.9451 149.23 39.9278 149.407 39.9617 149.578C39.9956 149.749 40.0792 149.906 40.2018 150.029C40.3245 150.152 40.4807 150.236 40.6508 150.27C40.8209 150.303 40.9972 150.286 41.1574 150.219C41.3176 150.153 41.4545 150.04 41.5508 149.895C41.6471 149.75 41.6985 149.58 41.6985 149.406C41.6982 149.172 41.6057 148.948 41.4411 148.783C41.2766 148.618 41.0536 148.525 40.8211 148.525Z" fill="white"/>
<path d="M49.1814 156.43C48.9669 156.43 48.7572 156.366 48.579 156.246C48.4007 156.126 48.2618 155.956 48.1799 155.757C48.098 155.558 48.0767 155.339 48.1186 155.127C48.1606 154.916 48.2641 154.722 48.4158 154.57C48.5676 154.417 48.7609 154.314 48.9713 154.272C49.1818 154.23 49.3998 154.252 49.598 154.334C49.7962 154.417 49.9655 154.556 50.0847 154.735C50.2039 154.915 50.2675 155.125 50.2675 155.341C50.267 155.63 50.1524 155.907 49.9488 156.111C49.7452 156.315 49.4692 156.43 49.1814 156.43ZM49.1814 154.842C49.0834 154.843 48.9878 154.872 48.9064 154.927C48.8251 154.982 48.7618 155.059 48.7244 155.15C48.6871 155.241 48.6774 155.341 48.6966 155.438C48.7158 155.534 48.763 155.623 48.8323 155.692C48.9016 155.762 48.9899 155.809 49.0859 155.828C49.182 155.847 49.2816 155.838 49.3721 155.8C49.4626 155.762 49.54 155.699 49.5944 155.617C49.6489 155.535 49.678 155.439 49.6782 155.341C49.678 155.208 49.6256 155.082 49.5325 154.988C49.4393 154.895 49.313 154.842 49.1814 154.842Z" fill="white"/>
<path d="M49.5154 150.878C49.4636 150.878 49.4128 150.865 49.368 150.839C49.3232 150.813 49.286 150.775 49.2602 150.73L47.5141 147.696C47.4882 147.651 47.4746 147.6 47.4746 147.548C47.4746 147.496 47.4882 147.445 47.5141 147.4L49.2602 144.365C49.286 144.32 49.3232 144.282 49.368 144.256C49.4128 144.23 49.4636 144.217 49.5154 144.217C49.5669 144.217 49.6176 144.23 49.6622 144.256C49.7069 144.282 49.744 144.319 49.7699 144.364L51.5196 147.399C51.5454 147.444 51.559 147.495 51.559 147.547C51.559 147.599 51.5454 147.65 51.5196 147.695L49.7699 150.73C49.7442 150.775 49.7071 150.812 49.6624 150.838C49.6178 150.864 49.567 150.878 49.5154 150.878ZM48.1099 147.548L49.5154 149.991L50.9244 147.548L49.5154 145.104L48.1099 147.548Z" fill="white"/>
<path d="M34.4039 162.241C34.1892 162.241 33.9793 162.177 33.8008 162.058C33.6223 161.938 33.4831 161.767 33.401 161.568C33.3188 161.369 33.2973 161.15 33.3392 160.938C33.3811 160.727 33.4845 160.533 33.6363 160.38C33.7881 160.228 33.9815 160.124 34.1921 160.082C34.4027 160.04 34.6209 160.061 34.8193 160.144C35.0176 160.226 35.1871 160.366 35.3064 160.545C35.4257 160.725 35.4893 160.935 35.4893 161.151C35.489 161.44 35.3746 161.717 35.1711 161.922C34.9676 162.126 34.6916 162.241 34.4039 162.241ZM34.4039 160.653C34.3057 160.653 34.2098 160.682 34.1282 160.737C34.0466 160.791 33.983 160.869 33.9454 160.96C33.9079 161.051 33.898 161.152 33.9172 161.248C33.9363 161.345 33.9836 161.434 34.053 161.503C34.1224 161.573 34.2108 161.621 34.307 161.64C34.4033 161.659 34.5031 161.649 34.5937 161.611C34.6844 161.574 34.7619 161.51 34.8164 161.428C34.8709 161.346 34.9 161.25 34.9 161.151C34.8999 161.019 34.8476 160.892 34.7545 160.799C34.6615 160.705 34.5354 160.653 34.4039 160.653Z" fill="white"/>
<path d="M225.439 62.7508C225.361 62.7508 225.286 62.7196 225.231 62.6641C225.175 62.6086 225.144 62.5333 225.144 62.4549V31.1769C225.144 29.403 224.443 27.7018 223.194 26.4476C221.945 25.1933 220.251 24.4886 218.485 24.4886C216.719 24.4886 215.025 25.1933 213.776 26.4476C212.528 27.7018 211.826 29.403 211.826 31.1769V55.3659C211.835 56.3412 211.651 57.3086 211.285 58.2122C210.92 59.1158 210.38 59.9377 209.696 60.6305C209.012 61.3233 208.199 61.8732 207.303 62.2484C206.406 62.6237 205.445 62.8169 204.474 62.8169C203.503 62.8169 202.541 62.6237 201.645 62.2484C200.748 61.8732 199.935 61.3233 199.251 60.6305C198.568 59.9377 198.027 59.1158 197.662 58.2122C197.296 57.3086 197.113 56.3412 197.121 55.3659V7.25241C197.129 6.37251 196.964 5.49968 196.635 4.68435C196.305 3.86903 195.818 3.12737 195.201 2.50223C194.585 1.87709 193.851 1.38086 193.042 1.0422C192.234 0.703547 191.366 0.529182 190.49 0.529182C189.614 0.529182 188.747 0.703547 187.938 1.0422C187.129 1.38086 186.395 1.87709 185.779 2.50223C185.162 3.12737 184.675 3.86903 184.346 4.68435C184.016 5.49968 183.851 6.37251 183.859 7.25241V19.9684C183.857 21.8911 183.095 23.7344 181.742 25.0939C180.388 26.4534 178.553 27.2181 176.638 27.2201H169.618C169.54 27.2201 169.465 27.189 169.41 27.1335C169.354 27.078 169.323 27.0027 169.323 26.9242C169.323 26.8457 169.354 26.7704 169.41 26.7149C169.465 26.6594 169.54 26.6283 169.618 26.6283H176.641C178.399 26.6264 180.084 25.9241 181.327 24.6756C182.571 23.427 183.27 21.7342 183.272 19.9684V7.25241C183.263 6.29455 183.444 5.34446 183.803 4.45701C184.162 3.56956 184.692 2.76234 185.364 2.08194C186.035 1.40155 186.834 0.861477 187.714 0.492906C188.594 0.124335 189.539 -0.0654297 190.492 -0.0654297C191.446 -0.0654297 192.39 0.124335 193.271 0.492906C194.151 0.861477 194.95 1.40155 195.621 2.08194C196.293 2.76234 196.823 3.56956 197.182 4.45701C197.541 5.34446 197.721 6.29455 197.713 7.25241V55.3659C197.705 56.2633 197.873 57.1534 198.209 57.9849C198.546 58.8164 199.042 59.5727 199.671 60.2102C200.3 60.8477 201.048 61.3538 201.873 61.6992C202.698 62.0445 203.583 62.2223 204.476 62.2223C205.37 62.2223 206.254 62.0445 207.079 61.6992C207.904 61.3538 208.652 60.8477 209.281 60.2102C209.91 59.5727 210.406 58.8164 210.743 57.9849C211.079 57.1534 211.247 56.2633 211.239 55.3659V31.1769C211.239 29.2461 212.003 27.3943 213.362 26.029C214.721 24.6637 216.565 23.8967 218.488 23.8967C220.41 23.8967 222.254 24.6637 223.613 26.029C224.972 27.3943 225.736 29.2461 225.736 31.1769V62.4549C225.736 62.4939 225.728 62.5326 225.713 62.5687C225.698 62.6047 225.676 62.6375 225.649 62.665C225.621 62.6925 225.588 62.7142 225.552 62.729C225.516 62.7437 225.478 62.7511 225.439 62.7508Z" fill="white"/>
<path d="M336.705 262H28.2937C28.2155 262 28.1406 261.969 28.0853 261.913C28.0301 261.858 27.999 261.783 27.999 261.704C27.999 261.626 28.0301 261.55 28.0853 261.495C28.1406 261.439 28.2155 261.408 28.2937 261.408H336.705C336.783 261.408 336.858 261.439 336.913 261.495C336.968 261.55 337 261.626 337 261.704C337 261.783 336.968 261.858 336.913 261.913C336.858 261.969 336.783 262 336.705 262Z" fill="white"/>
</g>
<defs>
<clipPath id="clip0_314_619">
<rect width="337" height="262" fill="white"/>
</clipPath>
</defs>
</svg>
