<svg width="81" height="81" viewBox="0 0 81 81" fill="none" xmlns="http://www.w3.org/2000/svg">
<g clip-path="url(#clip0_11_4396)">
<path d="M70.6611 47.9219C71.3218 49.1133 72.5923 49.9219 74.0484 49.9219C76.1827 49.9219 77.9194 48.1854 77.9194 46.0509C77.9194 43.9164 76.1827 42.1799 74.0484 42.1799C72.5923 42.1799 71.3218 42.9885 70.6611 44.1799C71.1569 44.6503 71.4677 45.3136 71.4677 46.0509C71.4677 46.7882 71.1569 47.4515 70.6611 47.9219Z" fill="#FCD139"/>
<path d="M76.629 18.9542C74.4947 18.9542 72.7581 17.2178 72.7581 15.0832C72.7581 12.9487 74.4947 11.2123 76.629 11.2123C78.7634 11.2123 80.5 12.9487 80.5 15.0832C80.5 17.2178 78.7634 18.9542 76.629 18.9542Z" fill="#FCD139"/>
<path d="M51.989 19.7313C50.4385 18.0368 48.3877 16.9195 46.1492 16.5302C44.7298 13.3979 41.5761 11.2123 37.9193 11.2123C36.0613 11.2123 34.2652 11.7832 32.7581 12.8342C31.251 11.7832 29.4548 11.2123 27.5968 11.2123C23.9406 11.2123 20.7872 13.3971 19.3676 16.5287C17.1287 16.9179 15.0776 18.0355 13.5269 19.7307C11.7829 21.6371 10.8226 24.1108 10.8226 26.6962C10.8226 29.0858 11.6656 31.3458 13.0982 33.1387C11.6247 34.9649 10.8226 37.217 10.8226 39.5994C10.8226 42.1847 11.7831 44.6581 13.5271 46.5642C15.0776 48.2587 17.1284 49.376 19.3669 49.7653C20.7863 52.8976 23.94 55.0832 27.5968 55.0832C29.4548 55.0832 31.251 54.5123 32.7581 53.4613C34.2652 54.5123 36.0613 55.0832 37.9193 55.0832C41.5755 55.0832 44.7289 52.8984 46.1485 49.7668C48.3874 49.3776 50.4385 48.26 51.9892 46.5649C53.7332 44.6584 54.6935 42.1847 54.6935 39.5994C54.6935 37.2097 53.8505 34.9497 52.4179 33.157C53.8914 31.3307 54.6935 29.0786 54.6935 26.6962C54.6935 24.1108 53.7331 21.6374 51.989 19.7313ZM32.7566 14.4755L32.7581 14.4739L32.7595 14.4755H32.7566ZM32.7595 51.82L32.7581 51.8216L32.7566 51.82H32.7595ZM21.4571 48.0305C22.124 47.5831 22.9082 47.3413 23.7258 47.3413V44.7607C22.8455 44.7607 21.989 44.9324 21.1953 45.2584C21.301 44.4018 21.5755 43.5729 22.0074 42.8262L19.7735 41.5339C18.9827 42.9015 18.5645 44.4634 18.5645 46.051C18.5645 46.3439 18.5797 46.6332 18.6071 46.9191C15.5432 45.8705 13.4032 42.9845 13.4032 39.5994C13.4032 37.8966 13.9481 36.2816 14.9561 34.9479C15.9143 35.6723 17.0056 36.2366 18.1964 36.5912L18.9326 34.1178C18.2755 33.9221 17.6592 33.6403 17.0926 33.2894C18.2289 32.3691 19.649 31.8574 21.1452 31.8574V29.2768C18.9014 29.2768 16.779 30.0974 15.1376 31.5642C14.0461 30.2139 13.4032 28.5044 13.4032 26.6962C13.4032 23.31 15.5432 20.4236 18.6072 19.3749C18.5798 19.6612 18.5645 19.951 18.5645 20.2445C18.5645 21.8321 18.9827 23.3941 19.7737 24.7616L22.0076 23.4694C21.5756 22.7226 21.3011 21.8937 21.1955 21.0371C21.989 21.3631 22.8455 21.5349 23.7258 21.5349V18.9542C22.9082 18.9542 22.124 18.7124 21.4571 18.265C22.2948 15.6732 24.7298 13.7929 27.5968 13.7929C29.0005 13.7929 30.3552 14.2482 31.4677 15.0837V51.2118C30.3552 52.0473 29.0005 52.5026 27.5968 52.5026C24.7298 52.5026 22.2948 50.6223 21.4571 48.0305ZM46.9089 46.9207C46.9363 46.6344 46.9516 46.3445 46.9516 46.051C46.9516 44.4634 46.5334 42.9015 45.7424 41.5339L43.5085 42.8262C43.9405 43.5729 44.215 44.4018 44.3206 45.2584C43.5271 44.9324 42.6706 44.7607 41.7903 44.7607V47.3413C42.6079 47.3413 43.3921 47.5831 44.059 48.0305C43.2213 50.6223 40.7863 52.5026 37.9193 52.5026C36.5156 52.5026 35.161 52.0473 34.0484 51.2118V15.0837C35.161 14.2482 36.5156 13.7929 37.9193 13.7929C40.7863 13.7929 43.2213 15.6732 44.059 18.265C43.3921 18.7124 42.6079 18.9542 41.7903 18.9542V21.5349C42.6706 21.5349 43.5271 21.3631 44.3208 21.0371C44.2151 21.8937 43.9406 22.7226 43.5087 23.4694L45.7426 24.7616C46.5334 23.3941 46.9516 21.8321 46.9516 20.2445C46.9516 19.9516 46.9364 19.6623 46.909 19.3765C49.9729 20.425 52.1129 23.311 52.1129 26.6962C52.1129 28.3989 51.5681 30.0139 50.56 31.3476C49.6018 30.6231 48.5105 30.0587 47.3197 29.7044L46.5835 32.1778C47.2406 32.3734 47.8569 32.6552 48.4235 33.0061C47.2872 33.9265 45.8671 34.4381 44.371 34.4381V37.0187C46.6147 37.0187 48.7371 36.1981 50.3785 34.7313C51.47 36.0816 52.1129 37.7912 52.1129 39.5994C52.1129 42.9855 49.9727 45.872 46.9089 46.9207Z" fill="white"/>
<path d="M76.629 52.5025H58.5645C57.8531 52.5025 57.2742 51.9237 57.2742 51.2122C57.2742 50.5008 57.8531 49.9219 58.5645 49.9219H68.8871C71.0214 49.9219 72.7581 48.1855 72.7581 46.0509C72.7581 43.9164 71.0214 42.18 68.8871 42.18H63.7258C63.0144 42.18 62.4355 41.6011 62.4355 40.8896C62.4355 40.1782 63.0144 39.5993 63.7258 39.5993H72.7581C75.604 39.5993 77.9193 37.284 77.9193 34.438C77.9193 31.5921 75.604 29.2767 72.7581 29.2767H61.1452C60.4337 29.2767 59.8548 28.6979 59.8548 27.9864C59.8548 27.275 60.4337 26.6961 61.1452 26.6961H74.0484C77.6058 26.6961 80.5 23.8019 80.5 20.2445C80.5 19.2082 80.2577 18.2103 79.7942 17.3076C79.2818 18.0345 78.5261 18.5777 77.6461 18.8177C77.8247 19.2671 77.9193 19.748 77.9193 20.2445C77.9193 22.379 76.1827 24.1155 74.0484 24.1155H61.1452C59.0108 24.1155 57.2742 25.8519 57.2742 27.9864C57.2742 30.1209 59.0108 31.8574 61.1452 31.8574H72.7581C74.181 31.8574 75.3387 33.0151 75.3387 34.438C75.3387 35.8609 74.181 37.0187 72.7581 37.0187H63.7258C61.5914 37.0187 59.8548 38.7551 59.8548 40.8896C59.8548 43.0242 61.5914 44.7606 63.7258 44.7606H68.8871C69.5985 44.7606 70.1774 45.3395 70.1774 46.0509C70.1774 46.7624 69.5985 47.3413 68.8871 47.3413H58.5645C56.4302 47.3413 54.6935 49.0777 54.6935 51.2122C54.6935 53.3467 56.4302 55.0832 58.5645 55.0832H76.629C77.3405 55.0832 77.9193 55.6621 77.9193 56.3735C77.9193 57.085 77.3405 57.6638 76.629 57.6638H44.371C41.525 57.6638 39.2097 59.9792 39.2097 62.8251V65.4058H26.3064V64.428C26.3064 61.4971 24.5579 58.8753 21.8521 57.7492C19.9105 56.9409 17.7181 57.0169 15.8369 57.9574L15.6774 58.0372L7.85823 50.2182C8.78774 48.0632 8.80968 45.6195 7.90532 43.4384C7.0021 41.2598 5.25919 39.5496 3.08065 38.684V27.6116C5.25919 26.7458 7.0021 25.0358 7.90532 22.8572C8.80968 20.6761 8.78774 18.2324 7.85823 16.0774L15.6876 8.24804C17.8424 9.17723 20.2863 9.19949 22.4674 8.29513C24.646 7.39158 26.356 5.64884 27.2218 3.47045H65.0161C66.439 3.47045 67.5968 4.6282 67.5968 6.0511C67.5968 7.474 66.439 8.63174 65.0161 8.63174H53.4032C51.2689 8.63174 49.5323 10.3682 49.5323 12.5027C49.5323 14.6372 51.2689 16.3737 53.4032 16.3737H72.98C72.8368 15.9698 72.7581 15.5358 72.7581 15.0834C72.7581 14.6309 72.8368 14.1969 72.98 13.793H53.4032C52.6918 13.793 52.1129 13.2142 52.1129 12.5027C52.1129 11.7913 52.6918 11.2124 53.4032 11.2124H65.0161C67.8621 11.2124 70.1774 8.89707 70.1774 6.0511C70.1774 3.20513 67.8621 0.889648 65.0161 0.889648H25.3763L24.9426 2.1911C24.3813 3.87513 23.1187 5.2311 21.4789 5.9111C19.8373 6.59174 17.9844 6.52626 16.3948 5.73158L15.1677 5.11804L4.72855 15.5574L5.34226 16.7843C6.13694 18.3737 6.20226 20.2269 5.52161 21.8684C4.84161 23.5082 3.48565 24.7706 1.80145 25.3321L0.5 25.7661V40.5293L1.80129 40.963C3.48548 41.5245 4.84161 42.7869 5.52145 44.4267C6.2021 46.0684 6.13661 47.9214 5.3421 49.5108L4.72839 50.7379L15.1676 61.1771L16.991 60.2656C18.2008 59.6606 19.6111 59.6116 20.8603 60.1316C22.601 60.8561 23.7258 62.5427 23.7258 64.428V71.8574C23.7258 76.8377 27.7776 80.8896 32.7581 80.8896C37.7385 80.8896 41.7903 76.8377 41.7903 71.8574V62.8251C41.7903 61.4022 42.9481 60.2445 44.371 60.2445H76.629C78.7634 60.2445 80.5 58.508 80.5 56.3735C80.5 54.239 78.7634 52.5025 76.629 52.5025ZM39.2097 67.9864V70.5671H26.3064V67.9864H39.2097ZM32.7581 78.309C29.6424 78.309 27.0356 76.089 26.4363 73.1477H39.0798C38.4805 76.089 35.8737 78.309 32.7581 78.309Z" fill="white"/>
</g>
<defs>
<clipPath id="clip0_11_4396">
<rect width="80" height="80" fill="white" transform="translate(0.5 0.889648)"/>
</clipPath>
</defs>
</svg>
