<svg xmlns="http://www.w3.org/2000/svg" width="335" height="315" fill="none" viewBox="0 0 335 315">
  <g clip-path="url(#a)">
    <path fill="#EDBF34" d="M99.952 43.938a18.35 18.35 0 0 0-3.279-1.491 3.1 3.1 0 0 1-.024.325 3.143 3.143 0 0 1-1.267 2.012c-.67.48-1.501.678-2.316.553a3.049 3.049 0 0 1-2.003-1.239 3.03 3.03 0 0 1-.516-2.294c.026-.116.058-.23.096-.342a19.11 19.11 0 0 0-3.626.353c.058.1.11.202.154.308a3.125 3.125 0 0 1-.104 2.372 3.137 3.137 0 0 1-1.744 1.618 3.063 3.063 0 0 1-3.34-.758 3.048 3.048 0 0 1-.633-1.022 3.19 3.19 0 0 1-.097-.378 19.004 19.004 0 0 0-3.014 2.126c.111.064.218.135.32.212a3.115 3.115 0 0 1 1.024 3.506 3.112 3.112 0 0 1-1.745 1.83 3.127 3.127 0 0 1-3.56-.846 18.908 18.908 0 0 0-1.586 3.36 2.976 2.976 0 0 1 2.335 1.072 2.96 2.96 0 0 1 .622 2.489 3.144 3.144 0 0 1-1.267 2.012c-.67.48-1.502.678-2.317.553a3.106 3.106 0 0 1-.462-.121c-.02 1.24.083 2.479.308 3.698a3.13 3.13 0 0 1 .425-.21 3.063 3.063 0 0 1 3.34.757c.277.296.492.643.633 1.022a3.082 3.082 0 0 1-1.101 3.6c-.369.263-.79.44-1.236.522a18.213 18.213 0 0 0 2.14 3.03 3.072 3.072 0 0 1 2.355-1.54 3.082 3.082 0 0 1 3.034 1.614 3.062 3.062 0 0 1-.362 3.41c-.111.13-.234.252-.365.363a18.38 18.38 0 0 0 3.388 1.53c-.001-.163.01-.326.035-.488a3.142 3.142 0 0 1 1.267-2.013 3.156 3.156 0 0 1 2.317-.552 3.047 3.047 0 0 1 2.492 2.334c.089.394.098.802.027 1.199a3.14 3.14 0 0 1-.134.475 18.984 18.984 0 0 0 3.713-.384 2.974 2.974 0 0 1-.2-.41 3.126 3.126 0 0 1 .102-2.375 3.138 3.138 0 0 1 1.745-1.62 3.061 3.061 0 0 1 3.973 1.78c.05.144.087.292.113.442a19.014 19.014 0 0 0 3.024-2.173 3.03 3.03 0 0 1-.346-.23 3.107 3.107 0 0 1-.407-4.373 3.126 3.126 0 0 1 4.381-.427c.102.09.197.186.286.288a18.857 18.857 0 0 0 1.54-3.34 2.942 2.942 0 0 1-2.88-2.255 2.94 2.94 0 0 1-.013-1.304 3.143 3.143 0 0 1 1.267-2.013 3.156 3.156 0 0 1 2.317-.552c.121.024.239.055.355.094.01-1.211-.098-2.42-.322-3.61-.098.056-.2.108-.304.153a3.058 3.058 0 0 1-3.973-1.78 3.131 3.131 0 0 1 1.848-3.99c.11-.036.221-.066.334-.09a18.204 18.204 0 0 0-2.079-2.927c-.055.09-.114.178-.177.263a3.075 3.075 0 0 1-3.291 1.035 3.083 3.083 0 0 1-1.838-1.505 3.062 3.062 0 0 1 .377-3.422c.076-.083.157-.162.241-.236Zm-1.494 6.457a12.683 12.683 0 0 1 4.177 6.093c.756 2.4.78 4.97.069 7.382a12.684 12.684 0 0 1-4.062 6.17 12.741 12.741 0 0 1-14.083 1.464 12.7 12.7 0 0 1-5.25-5.2 12.659 12.659 0 0 1 1.37-14.06 12.566 12.566 0 0 1 8.502-4.626 12.6 12.6 0 0 1 9.277 2.777Z"/>
    <path fill="#EDBF34" d="M78.862 68.892a14.446 14.446 0 0 0 6.737 5.016 14.48 14.48 0 0 0 8.396.425 14.456 14.456 0 0 0 7.212-4.309 14.4 14.4 0 0 0 3.586-7.585 14.373 14.373 0 0 0-1.253-8.293 14.423 14.423 0 0 0-5.668-6.193 14.476 14.476 0 0 0-16.062.878 14.239 14.239 0 0 0-5.378 15.01 14.245 14.245 0 0 0 2.43 5.051Zm5.758-16.336a9.58 9.58 0 0 1 14.288 3.633 9.522 9.522 0 0 1-1.536 10.454 9.586 9.586 0 0 1-10.257 2.633 9.564 9.564 0 0 1-4.476-3.243 9.568 9.568 0 0 1-1.83-7.151 9.56 9.56 0 0 1 3.81-6.326Z"/>
    <path stroke="#2D2D2D" stroke-linecap="round" stroke-miterlimit="10" stroke-width=".5" d="M83.6 51.205a11.277 11.277 0 0 1 16.821 4.276 11.217 11.217 0 0 1-1.808 12.308 11.265 11.265 0 0 1-5.568 3.369 11.287 11.287 0 0 1-6.506-.27 11.26 11.26 0 0 1-5.27-3.818 11.264 11.264 0 0 1-2.154-8.418 11.256 11.256 0 0 1 4.485-7.447Z"/>
    <path fill="#EDBF34" d="M131.372 39.357a14.69 14.69 0 0 0-2.627-1.195 2.525 2.525 0 0 1-.02.26 2.529 2.529 0 0 1-2.872 2.054 2.444 2.444 0 0 1-1.606-.994 2.417 2.417 0 0 1-.412-1.84 2.3 2.3 0 0 1 .077-.273c-.976 0-1.949.095-2.906.282.045.08.085.163.121.248a2.506 2.506 0 0 1-1.479 3.198 2.45 2.45 0 0 1-3.183-1.426 2.5 2.5 0 0 1-.077-.308 15.218 15.218 0 0 0-2.416 1.705c.089.051.175.108.257.17a2.493 2.493 0 0 1-1.362 4.392 2.507 2.507 0 0 1-1.824-.546 2.744 2.744 0 0 1-.246-.248 15.143 15.143 0 0 0-1.271 2.693c.118-.002.235.005.352.02a2.448 2.448 0 0 1 1.604.996 2.432 2.432 0 0 1 .411 1.84A2.52 2.52 0 0 1 110.877 52a2.53 2.53 0 0 1-1.857.442 2.413 2.413 0 0 1-.368-.096 15.03 15.03 0 0 0 .244 2.964 2.53 2.53 0 0 1 .341-.17 2.454 2.454 0 0 1 3.336 2.489 2.463 2.463 0 0 1-1.034 1.823c-.296.21-.634.352-.991.417.488.866 1.063 1.68 1.716 2.43a2.455 2.455 0 0 1 1.696-1.213 2.472 2.472 0 0 1 2.021.52 2.457 2.457 0 0 1 .879 1.679 2.455 2.455 0 0 1-.864 2.096c.862.5 1.773.913 2.718 1.229 0-.13.009-.261.029-.39a2.52 2.52 0 0 1 1.015-1.614 2.53 2.53 0 0 1 1.857-.443 2.449 2.449 0 0 1 1.606.994 2.437 2.437 0 0 1 .413 1.84 2.46 2.46 0 0 1-.107.38c1-.004 1.996-.107 2.975-.306a2.36 2.36 0 0 1-.16-.33 2.511 2.511 0 0 1 1.478-3.198 2.455 2.455 0 0 1 2.677.608c.222.237.394.516.507.82.04.115.07.233.091.353.863-.5 1.675-1.083 2.424-1.741a2.332 2.332 0 0 1-.277-.184 2.491 2.491 0 0 1-.292-3.476 2.502 2.502 0 0 1 3.476-.37c.083.071.16.148.231.23a15.18 15.18 0 0 0 1.238-2.677 2.52 2.52 0 0 1-.301-.018 2.448 2.448 0 0 1-1.605-.994 2.432 2.432 0 0 1-.413-1.84 2.53 2.53 0 0 1 2.873-2.056c.096.02.191.045.284.076a14.94 14.94 0 0 0-.258-2.893 2.377 2.377 0 0 1-3.427-1.306 2.512 2.512 0 0 1 1.478-3.198c.088-.029.177-.053.268-.072a14.665 14.665 0 0 0-1.667-2.347 2.288 2.288 0 0 1-.143.212 2.463 2.463 0 0 1-3.485.361 2.461 2.461 0 0 1-.89-1.673 2.46 2.46 0 0 1 .567-1.808c.062-.067.128-.131.196-.192Zm-1.197 5.176a10.164 10.164 0 0 1 3.348 4.884c.606 1.923.625 3.982.055 5.916a10.164 10.164 0 0 1-3.256 4.946 10.204 10.204 0 0 1-11.287 1.173 10.176 10.176 0 0 1-4.208-4.17 10.151 10.151 0 0 1 1.097-11.268 10.073 10.073 0 0 1 6.816-3.707 10.101 10.101 0 0 1 7.435 2.226Z"/>
    <path fill="#EDBF34" d="M114.469 59.358a11.577 11.577 0 0 0 5.4 4.02c2.16.776 4.502.895 6.729.34a11.586 11.586 0 0 0 5.78-3.454 11.526 11.526 0 0 0 1.87-12.726 11.563 11.563 0 0 0-4.543-4.964 11.605 11.605 0 0 0-12.874.705 11.437 11.437 0 0 0-4.545 7.548 11.39 11.39 0 0 0 .235 4.483 11.425 11.425 0 0 0 1.948 4.048Zm4.614-13.093a7.68 7.68 0 0 1 8.481-.37 7.648 7.648 0 0 1 3.624 7.657 7.638 7.638 0 0 1-1.884 4.004 7.666 7.666 0 0 1-3.79 2.294 7.684 7.684 0 0 1-8.018-2.784 7.677 7.677 0 0 1-1.467-5.73 7.675 7.675 0 0 1 3.054-5.071Z"/>
    <path stroke="#2D2D2D" stroke-linecap="round" stroke-miterlimit="10" stroke-width=".5" d="M118.266 45.182a9.04 9.04 0 0 1 13.483 3.427 8.985 8.985 0 0 1-1.449 9.865 9.03 9.03 0 0 1-4.463 2.7 9.05 9.05 0 0 1-5.216-.216 9.026 9.026 0 0 1-4.223-3.06 9.032 9.032 0 0 1-1.726-6.747 9.028 9.028 0 0 1 3.594-5.97Z"/>
    <path fill="#FADDD4" d="M95.311 148.749c-1.094.329-1.899 1.871-1.899 1.871s-.81-1.529-1.906-1.844c-3.174-.901-4.592 1.954-3.377 4.589 1.172 2.543 5.302 5.6 5.302 5.6s4.116-3.127 5.276-5.684c1.204-2.656-.226-5.486-3.396-4.532Zm-14.931-2.983c-.7.211-1.214 1.196-1.214 1.196s-.518-.976-1.218-1.175c-2.028-.576-2.934 1.248-2.156 2.932.75 1.625 3.388 3.579 3.388 3.579s2.63-1.997 3.372-3.635c.767-1.697-.148-3.506-2.173-2.897Zm9.514-14.72c-1.094.33-1.898 1.872-1.898 1.872s-.812-1.528-1.907-1.843c-3.173-.902-4.592 1.953-3.377 4.589 1.172 2.541 5.301 5.6 5.301 5.6s4.117-3.127 5.278-5.689c1.2-2.65-.227-5.483-3.397-4.529Z"/>
    <path stroke="#fff" stroke-miterlimit="10" stroke-width=".5" d="m311.713 193.986-9.574 13.008m1.225 2.846 3.661-4.949m-238.779 49.63.489-3.772 3.31 1.437.918-3.907 3.44 1.632.765-3.917 3.589 1.466.87-3.883m127.49-99.072a3.092 3.092 0 0 1-.987 3.393c-.326.264-.702.46-1.106.575-1.617.461-2.654.492-3.927 1.936-.836.95-1.359 2.368-2.423 3.051-.946.607-2.301.723-2.945-.391a2.517 2.517 0 0 1 .063-2.305 12.4 12.4 0 0 1 1.37-1.964c.804-1.075 1.426-2.274 2.188-3.38a7.55 7.55 0 0 1 2.926-2.703 3.715 3.715 0 0 1 3.817.295c.48.387.836.906 1.024 1.493Z"/>
    <path fill="#fff" d="M211.359 136.755a1.722 1.722 0 0 1-2.943 1.216 1.713 1.713 0 0 1-.373-1.874 1.723 1.723 0 0 1 3.316.658ZM79.041 267.191a2.28 2.28 0 0 0 2.284-2.278 2.281 2.281 0 0 0-2.284-2.279 2.281 2.281 0 0 0-2.283 2.279 2.28 2.28 0 0 0 2.283 2.278ZM298.895 59.927a2.079 2.079 0 0 1-3.378-2.384 2.08 2.08 0 0 1 3.167-.543 2.078 2.078 0 0 1 .714 1.42 2.084 2.084 0 0 1-.503 1.507ZM61.597 73.04a3.135 3.135 0 0 1-2.934-1.915 3.115 3.115 0 0 1 1.722-4.103c.386-.154.797-.23 1.212-.224"/>
    <path stroke="#fff" stroke-miterlimit="10" stroke-width=".5" d="M105.591 89.23c1.077 0 2.11.427 2.871 1.186a4.043 4.043 0 0 1 0 5.728 4.064 4.064 0 0 1-2.871 1.186m96.889 112.421-1.582-4.916 5.032.335-1.294-5.3 5.467-.238-1.75-4.697M25.036 264.584c.25-.268.519-.528.806-.783 1.439-1.275 3.103-2.304 4.39-3.733a10.067 10.067 0 0 0 2.254-4.198c.385-1.487.517-3.22 1.728-4.169a3.072 3.072 0 0 1 3.157-.264c2.74 1.298 2.679 5.443 1.667 7.87-.54 1.295-1.463 2.395-2.114 3.636-2.008 3.818-2.74 9.946-8.212 10.54a4.686 4.686 0 0 1-3.154-.623 4.668 4.668 0 0 1-2.005-2.509c-.79-2.272-.024-4.15 1.483-5.767Zm184.532-12.922c-.191-3.37 1.751-6.54 1.848-9.915a28.12 28.12 0 0 0-.724-5.356 9.048 9.048 0 0 1 .376-5.32c.77-1.634 2.631-2.872 4.378-2.402 1.873.505 2.799 2.607 3.141 4.512a17.271 17.271 0 0 1-.064 6.414c-.539 2.689-1.723 5.295-1.592 8.032.095 1.97.874 3.876.83 5.849-.05 2.239-1.986 5.123-4.493 4.331-2.234-.706-3.581-4.051-3.7-6.145Z"/>
    <path fill="#EDBF34" d="M240.581 48.84c0-6.996-13.389-12.667-29.906-12.667s-29.906 5.67-29.907 12.667c0 5.232 6.489 8.18 10.593 9.673 9.366 3.404 21.825 3.756 31.588 1.88 5.555-1.068 17.632-4.004 17.632-11.553Z"/>
    <path fill="#222540" d="M219.318 53.18a.851.851 0 0 1-.291-.05 1.262 1.262 0 0 1-.7-.922 5.421 5.421 0 0 1 .707-4.417c.269-.428.592-.821.959-1.17a4.122 4.122 0 0 0-2.428-1.164 6.404 6.404 0 0 0-3.374.737 9.987 9.987 0 0 0-1.173.637c.65 1.516.044 3.451-.796 4.808a2.37 2.37 0 0 1-1.339 1.1.966.966 0 0 1-.763-.148 1.414 1.414 0 0 1-.519-1.196c-.067-1.97 1.261-3.598 2.867-4.708a2.53 2.53 0 0 0-.308-.419c-.685-.754-1.837-1.114-3.41-1.084a8.903 8.903 0 0 0-4.798 1.374 5.61 5.61 0 0 0-.271.193c.431.633.686 1.368.739 2.131a3.224 3.224 0 0 1-.947 2.62 1.973 1.973 0 0 1-1.573.524 1.03 1.03 0 0 1-.77-.53 1.618 1.618 0 0 1-.134-.874 5.844 5.844 0 0 1 2.099-3.943 3.246 3.246 0 0 0-.571-.528 5.703 5.703 0 0 0-5.68-.176 15.996 15.996 0 0 0-4.67 3.873l-.312-.287a16.324 16.324 0 0 1 4.799-3.969 6.132 6.132 0 0 1 6.113.214c.241.176.46.38.652.607.094-.07.191-.14.29-.206a9.338 9.338 0 0 1 5.028-1.447c1.705-.033 2.963.374 3.734 1.223.132.145.25.302.352.47.382-.24.779-.456 1.189-.644a6.826 6.826 0 0 1 3.598-.774 4.556 4.556 0 0 1 2.702 1.306 5.098 5.098 0 0 1 2.406-1.1 5.724 5.724 0 0 1 5.731 3.054 5.69 5.69 0 0 1 .619 2.198l-.425.012a5.272 5.272 0 0 0-1.899-3.662 5.3 5.3 0 0 0-3.959-1.183 4.67 4.67 0 0 0-2.185.994c.337.4.6.858.776 1.35a4.562 4.562 0 0 1-1.065 4.672 1.469 1.469 0 0 1-1 .504Zm.963-6.244c-.34.323-.638.687-.887 1.083a4.993 4.993 0 0 0-.659 4.071c.108.364.252.574.439.643.318.116.693-.208.836-.352a4.138 4.138 0 0 0 .965-4.23 3.994 3.994 0 0 0-.694-1.215Zm-7.623.138c-1.481 1.036-2.695 2.529-2.631 4.309a1.083 1.083 0 0 0 .335.861.544.544 0 0 0 .434.081 1.993 1.993 0 0 0 1.065-.906c.766-1.24 1.332-2.988.796-4.345h.001Zm-9.311-.053a5.405 5.405 0 0 0-1.932 3.633c-.03.218-.001.44.085.644a.61.61 0 0 0 .467.312 1.57 1.57 0 0 0 1.211-.414 2.81 2.81 0 0 0 .816-2.284 3.885 3.885 0 0 0-.648-1.891h.001Z"/>
    <path fill="#EDBF34" d="M211.924 56.607c-.154 3.881-.285 7.869.991 11.539a16.064 16.064 0 0 0 5.612 7.43 16.118 16.118 0 0 0 8.8 3.076 11.979 11.979 0 0 1-4.579-2.809 18.728 18.728 0 0 1-5.626-9.096 14.082 14.082 0 0 1 1.339-10.485"/>
    <path fill="#fff" stroke="#000" stroke-miterlimit="10" stroke-width=".5" d="M187.447 293.504c.064.287.201.551.399.768.273.214.598.352.941.401a91.314 91.314 0 0 0 8.825 1.573c-.936-7.498-.632-15.199-3.619-22.365a8.802 8.802 0 0 0-1.819-2.961 6.907 6.907 0 0 0-5.549-1.767c-1.556.187-4.638 1.282-5.067 2.831-.469 1.69 1.278 5.371 1.747 7.143a348.58 348.58 0 0 0 4.142 14.377Z"/>
    <path fill="#A6A696" d="M209.179 303.085a352.37 352.37 0 0 0-9.353-.998c-2.635-.243-5.282-.379-7.908-.729a25.454 25.454 0 0 1-5.571-1.256c-1.126-.425-.404-3.093-.24-3.841a22.15 22.15 0 0 0 .297-5.52c2.998-.05 6-.103 8.99-.218a4.456 4.456 0 0 1 1.653.144 5.41 5.41 0 0 1 1.759 1.313c2.19 2.033 15.696 6.556 14.944 10.32-.206 1.032-1.625 1.148-2.672 1.016-.631-.078-1.264-.155-1.899-.231Z"/>
    <path fill="#fff" stroke="#000" stroke-miterlimit="10" stroke-width=".5" d="M150.033 294.656a1.344 1.344 0 0 1-.251.756 1.576 1.576 0 0 1-.867.384 82.4 82.4 0 0 1-8.552 1.398c-.523-7.451-2.331-15.125-.729-22.204a6.743 6.743 0 0 1 1.25-2.914c1.14-1.357 3.211-1.925 5.225-1.653 1.599.216 4.907 1.365 5.639 2.919.802 1.695-.234 5.325-.36 7.078a306.647 306.647 0 0 1-1.355 14.236Zm1.029-212.412c.037.256.077.513.119.773.65 3.988-.893 8.15-.097 12.277.564 2.923 3.06 8.735 6.658 9.116.915.096 1.834-1.115 2.338-1.733a13.846 13.846 0 0 0 3.297-7.072c.097-1.272.07-2.55-.082-3.818l-.477-5.484a20.818 20.818 0 0 0-.33-2.56 9.052 9.052 0 0 0-2.035-4.141c-2.138-2.4-5.26-2.592-8.283-2.649a1.75 1.75 0 0 0-.991.187c-.554.355-.557 1.147-.496 1.8.103 1.11.222 2.21.379 3.304Z"/>
    <path fill="#000" d="M158.112 86.267c-1.907.573-6.89 1.348-6.89 1.348.1-1.248.136-2.5.107-3.752a54.35 54.35 0 0 0-.244-1.702 7.323 7.323 0 0 0-.231-1.183 3.104 3.104 0 0 0 1.244-.624c.21-.188.356-.437.571-.632a4.87 4.87 0 0 1 5.057-.855 5.997 5.997 0 0 1 2.492 1.92c.389.505.717 1.054.978 1.636.343.648.576 1.349.688 2.074l.062.471c-1.263.471-2.54.91-3.834 1.3Z"/>
    <path fill="#fff" d="M164.254 74.26c.782-2.42 3.481-1.424 4.071.568.145.514.157 1.057.034 1.577-.124.52-.379 1-.74 1.394a2.144 2.144 0 0 1-2.104.696"/>
    <path stroke="#000" stroke-miterlimit="10" stroke-width=".5" d="M164.254 74.26c.782-2.42 3.481-1.424 4.071.568.145.514.157 1.057.034 1.577-.124.52-.379 1-.74 1.394a2.144 2.144 0 0 1-2.104.696"/>
    <path fill="#fff" stroke="#000" stroke-miterlimit="10" stroke-width=".5" d="M163.851 65.703c-1.517-.809-5.626 2.08-7.343 2.295-1.689.374-4.323.8-5.513 2.041-2.52 2.626-2.053 7.19-.466 10.391.265.538.818 1.9 1.136 2.407 2.541 4.039 7.259 4.397 9.625 3.827 2.826-.683 4.361-3.035 4.84-6.33.085-.591.107-2.52.116-3.118.058-3.67-.796-10.663-2.395-11.513Z"/>
    <path fill="#000" d="M163.303 63.469a16.62 16.62 0 0 0-9.453-1.638 8.187 8.187 0 0 0-4.773 2.814 9.158 9.158 0 0 0-1.739 7.411c.324 1.824 1.015 4.677 2.926 5.494 1.172.5 1.949.053 2.147-1.172.231-1.423-.03-2.94.134-4.396a.921.921 0 0 1 .178-.538.967.967 0 0 1 .598-.23 18.852 18.852 0 0 0 8.652-3.943 3.56 3.56 0 0 0 2.155 1.3c.538.127 1.1.1 1.623-.076a1.382 1.382 0 0 0 .653-1.356 2.922 2.922 0 0 0-.639-1.44 8.41 8.41 0 0 0-2.462-2.23Z"/>
    <path fill="#000" d="M162.511 65.762c1.38-1.046 3.198.3 3.723 1.57.612 1.479.47 3.212.374 4.771-.056.913-.004 1.997-.123 2.952a30.847 30.847 0 0 0-.238-1.728 9.25 9.25 0 0 0-1.113-3.457 2.394 2.394 0 0 0-1.047-1.412c-.385-.213-.847-.278-1.22-.507a1.62 1.62 0 0 1-.693-.89 1.202 1.202 0 0 1 .337-1.299Z"/>
    <path fill="#fff" d="M151.798 79.155a1.882 1.882 0 0 1-1.42.909 1.895 1.895 0 0 1-1.582-.587c-1.911-1.857-1.111-6.625 2.272-5.666a3.91 3.91 0 0 1 2.002 1.958"/>
    <path stroke="#000" stroke-miterlimit="10" stroke-width=".5" d="M151.798 79.155a1.882 1.882 0 0 1-1.42.909 1.895 1.895 0 0 1-1.582-.587c-1.911-1.857-1.111-6.625 2.272-5.666a3.91 3.91 0 0 1 2.002 1.958"/>
    <path fill="#EDBF34" d="M133.646 206.012c-.323-11.647-.568-22.89 1.277-34.468.79-4.963 4.901-22.078 11.138-23.01.315-.05.637-.036.947.04a14.11 14.11 0 0 1 1.929-4.873c2.72-4.362 7.657-7.545 12.708-8.739 5.604-1.323 12.436-.563 14.9 5.88 1.263 3.303.969 6.656 2.474 9.848 4.25 9.014 4.795 17.962 6.06 27.889a3567.108 3567.108 0 0 0 4.659 35.151 3515.187 3515.187 0 0 0 9.822 66.657 57.863 57.863 0 0 1-7.024 1.26 54.2 54.2 0 0 1-12.349-.134 2250.368 2250.368 0 0 0-12.858-60.353c-2.286-10.037-3.995-15.148-6.357-24.679a815.687 815.687 0 0 1-.792 7.327c-.975 8.652-1.729 17.327-2.982 25.946a290.583 290.583 0 0 0-2.625 53.082c-3.879.154-11.549-.139-15.261-.403-.555-.04-4.687-.584-4.734-1.103-1.265-13.979-1.217-25.216-1.509-39.897-.225-11.032.878-24.596.577-35.421Z"/>
    <path fill="#fff" d="M157.22 79.963c.111.86 1.373 1.512 2.906 1.468Z"/>
    <path stroke="#000" stroke-miterlimit="10" stroke-width=".5" d="M157.22 79.963c.111.86 1.373 1.512 2.906 1.468"/>
    <path fill="#4764A8" d="M126.753 101.137a14.47 14.47 0 0 1 1.632-2.458c3.398-4.127 8.47-5.737 13.628-6.248 2.931-.29 5.908-.047 8.741-.954a8.17 8.17 0 0 0 .524 2.415c1.009 2.354 3.927 2.893 6.463 2.874a5.695 5.695 0 0 0 3.672-1.492 5.67 5.67 0 0 0 1.803-3.522c2.906.479 5.889.307 8.796.779a11.294 11.294 0 0 1 6.336 2.934 36.06 36.06 0 0 1 4.892 6.539c.385.643.758 1.293 1.125 1.942 5.482 9.699 8.258 19.723 4.851 30.534-.729 2.315-1.721 4.77-3.812 6.009a5.868 5.868 0 0 1-3.032.775c1.441.007.831 7.804 1.756 20.242a2083.757 2083.757 0 0 0-49.116-1.152l1.589-12.685c.438-3.493 1.386-5.945-.948-8.663a46.351 46.351 0 0 1-10.029-19.758 35.396 35.396 0 0 1-.734-11.648 17.904 17.904 0 0 1 1.863-6.463Z"/>
    <path fill="#fff" stroke="#222221" stroke-miterlimit="10" stroke-width=".5" d="M164.326 130.412c-1.393-1.229-2.735-2.452-4.039-3.774a14.845 14.845 0 0 0-3.766-3.088c-4.225-.16-8.511-.159-12.489 1.214-4.726 1.632-9.249 6.007-9.418 11.265-.148 4.618 5.357 5.406 8.854 5.321a39.166 39.166 0 0 0 8.719-1.546l15.59-4.001c.679-.174 1.36-.334 2.042-.493-1.874-1.591-3.656-3.278-5.493-4.898Zm26.296-1.761a10.984 10.984 0 0 0-6.804-3.693c-3.943-.492-8.14-.037-12.132-.274-4.619-.274-9.234-.544-13.855-.749a22.643 22.643 0 0 1 2.133 1.915c1.34 1.334 2.658 2.643 4.087 3.883 2.28 1.977 4.46 4.083 6.781 6.015 2.528-.566 5.067-1.069 7.592-1.593 2.323-.482 4.801-.711 6.699-.167a5.518 5.518 0 0 1 3.03 2.124c.384.395.683.863.88 1.377.154.768-.378 1.632-.409 2.405a.583.583 0 0 0 .047.303.598.598 0 0 0 .565.222c2.132-.048 2.747-3.43 2.541-5.106.114.922.293 1.839.401 2.76.055.467-.244 1.762.126 2.089.154.136.381-.056.481-.237a6.96 6.96 0 0 0 .512-3.208 11.649 11.649 0 0 0-2.675-8.066Z"/>
    <path fill="#fff" d="M191.813 136.184a12.266 12.266 0 0 0-.438-2.738 4.996 4.996 0 0 0-.731-1.459"/>
    <path stroke="#222221" stroke-miterlimit="10" stroke-width=".5" d="M191.813 136.184a12.266 12.266 0 0 0-.438-2.738 4.996 4.996 0 0 0-.731-1.459"/>
    <path fill="#fff" d="M189.295 140.45a8.425 8.425 0 0 0 .729-6.529c-.184-.523-.4-1.035-.649-1.53"/>
    <path stroke="#222221" stroke-miterlimit="10" stroke-width=".5" d="M189.295 140.45a8.425 8.425 0 0 0 .729-6.529c-.184-.523-.4-1.035-.649-1.53"/>
    <path fill="#fff" stroke="#222221" stroke-miterlimit="10" stroke-width=".5" d="M165.015 137.279c.403.27.811.534 1.223.792a40.63 40.63 0 0 0 4.425 2.17c4.761 2.227 9.638 2.022 14.587.763 5.108-1.302 3.898-6.91.967-9.966-1.968-2.052-4.632-3.289-7.304-4.27-6.341-2.327-12.965-2.811-19.434-4.518-5.929-1.565-12.809-3.066-18.519.024a7.044 7.044 0 0 0-2.761 2.793 8.503 8.503 0 0 0-.83 1.925 4.375 4.375 0 0 0-.129 1.377c.078.341.09.694.034 1.039a12.384 12.384 0 0 1 2.354-1.843l3.619-1.873a.648.648 0 0 1 .743-.025c6.172 2.865 12.373 5.747 18.016 9.547 1.011.68 1.998 1.388 3.009 2.065Z"/>
    <path stroke="#222221" stroke-miterlimit="10" stroke-width=".5" d="m143.878 125.564-1.732-.517"/>
    <path fill="#fff" d="M136.494 136.449a2.122 2.122 0 0 0 1.263 1.931"/>
    <path stroke="#222221" stroke-miterlimit="10" stroke-width=".5" d="M136.494 136.449a2.122 2.122 0 0 0 1.263 1.931"/>
    <path fill="#fff" d="M187.299 137.921a4.432 4.432 0 0 1-2.681 1.69Z"/>
    <path stroke="#222221" stroke-miterlimit="10" stroke-width=".5" d="M187.299 137.921a4.432 4.432 0 0 1-2.681 1.69"/>
    <path fill="#fff" d="m183.555 140.012-1.59.293Z"/>
    <path stroke="#222221" stroke-miterlimit="10" stroke-width=".5" d="m183.555 140.012-1.59.293"/>
    <path fill="#A6A696" d="M151.578 302.114c-.074.02-.148.035-.224.046-.599.009-1.199.026-1.798.051a5.49 5.49 0 0 0-.452.02c-.716.032-1.432.073-2.148.123-5.576.399-11.279 1.306-16.78 1.409a16.487 16.487 0 0 1-5.688-.627c-4.502-1.587.984-3.669 2.771-4.59 1.875-.967 3.501-1.877 5.502-2.688a43.431 43.431 0 0 0 7.277-3.777c3.215.71 6.51.997 9.799.853 1.683-.071 4.19 8.468 1.741 9.18Z"/>
    <path stroke="#000" stroke-miterlimit="10" stroke-width=".5" d="M176.039 124.509a67.804 67.804 0 0 0-3.276-17.095m-29.402 13.562c-.822-4.507-1.644-9.011-2.468-13.513"/>
    <path stroke="#131834" stroke-miterlimit="10" stroke-width=".5" d="m160.698 198.536 2.019-26.347"/>
    <path fill="#fff" d="M149.576 75.494a2.386 2.386 0 0 1 2.536 1.36c.143.312.216.652.215.996"/>
    <path stroke="#000" stroke-miterlimit="10" stroke-width=".5" d="M149.576 75.494a2.386 2.386 0 0 1 2.536 1.36c.143.312.216.652.215.996"/>
    <path fill="#000" d="M179.057 219.503c.616 1.893 1.986 3.918 3.978 3.895a3.61 3.61 0 0 0 3.016-2.128 7.902 7.902 0 0 0 .608-3.79c-.341-9.295-10.258-6.178-7.602 2.023Zm-35.975 1.977a6.219 6.219 0 0 0-.046 3.216 2.913 2.913 0 0 0 2.259 2.098 3.7 3.7 0 0 0 2.789-1.16 9.807 9.807 0 0 0 3.003-5.139 5.52 5.52 0 0 0-.3-3.737c-3.149-6.027-7.04 1.819-7.705 4.722Z"/>
    <path fill="#D47172" d="m135.779 171.682-.052-1.937c4.166-.112 6.765-.772 7.724-3.813a4.196 4.196 0 0 0-.478-3.632 4.271 4.271 0 0 0-2.856-1.656 6.703 6.703 0 0 0-3.555.521l-.748-1.789a8.622 8.622 0 0 1 4.598-.647 6.225 6.225 0 0 1 4.145 2.448 6.086 6.086 0 0 1 .747 5.336c-1.562 4.954-6.742 5.094-9.525 5.169Z"/>
    <path fill="#D47172" d="M138.43 173.669h-13.461l-.648-18.067h14.756l-.647 18.067Z"/>
    <path stroke="#000" stroke-miterlimit="10" stroke-width=".5" d="M137.312 158.838v7.922"/>
    <path fill="#5F76E8" d="M137.2 168.095v1.784Z"/>
    <path stroke="#000" stroke-miterlimit="10" stroke-width=".5" d="M137.2 168.095v1.784"/>
    <path fill="#EBEBEB" d="m189.782 172.007-.042-1.408c3.42-.082 5.554-.562 6.342-2.773a2.76 2.76 0 0 0-.393-2.64 3.62 3.62 0 0 0-2.344-1.205 6.148 6.148 0 0 0-2.92.379l-.616-1.3a7.918 7.918 0 0 1 3.773-.471 5.26 5.26 0 0 1 3.402 1.78c.428.54.71 1.18.818 1.86a4.005 4.005 0 0 1-.202 2.02c-1.279 3.602-5.533 3.704-7.818 3.758Z"/>
    <path fill="#EBEBEB" d="m177.138 160.918.358 6.751a7.006 7.006 0 0 0 1.384 3.655 7.034 7.034 0 0 0 3.13 2.349h6.443a7.046 7.046 0 0 0 3.13-2.349 7.006 7.006 0 0 0 1.384-3.655l.358-6.751h-16.187Z"/>
    <path stroke="#8CC9DE" stroke-miterlimit="10" stroke-width=".5" d="M190.933 164.232c-.035.626.014 1.256-.015 1.883a7.71 7.71 0 0 1-2.053 4.866"/>
    <path fill="#D47172" d="m160.6 170.407-.032-2.579c0 .224-2.499-.138-2.717-.191a3.74 3.74 0 0 1-2.618-3.259 2.387 2.387 0 0 1 2.122-2.668c.256-.033 2.68-.115 2.577.269l.643-2.392c-2.294-1.022-6.016-.198-7.385 1.966a5.242 5.242 0 0 0-.407 4.309c1.207 4.127 5.532 4.479 7.817 4.545Z"/>
    <path fill="#D47172" d="m174.689 157.505-.358 10.162a7.023 7.023 0 0 1-4.514 6.004h-6.443a7.026 7.026 0 0 1-3.13-2.349 7 7 0 0 1-1.384-3.655l-.358-10.162h16.187Z"/>
    <path stroke="#000" stroke-miterlimit="10" stroke-width=".5" d="M169.29 171.309a4.562 4.562 0 0 0 2.663-2.733c.428-1.244.611-2.56.538-3.874m.104-3.839a8.874 8.874 0 0 0-.146 2.482"/>
    <path fill="#fff" stroke="#222221" stroke-miterlimit="10" stroke-width=".5" d="M238.527 278.655c-.41-4.504-.484-9.161 1.042-13.42a9.143 9.143 0 0 1 2.849-4.317 4.61 4.61 0 0 1 4.928-.567c1.486.851 2.163 2.63 2.451 4.316 1.052 6.15.225 6.642-.081 12.873-.117 2.386-1.705 10.464-2.133 12.814-.443 2.43-1.829 5.129-4.362 5.899-1.838.558-3.498.084-3.968-1.848-.489-2.014.062-4.336.077-6.376.032-3.136-.519-6.263-.803-9.374Z"/>
    <path fill="#A6A696" d="M219.234 299.564c.459-.363.981-.64 1.539-.818 3.614-1.396 7.284-2.639 10.875-4.096 2.59-1.051 5.412-1.938 7.091-4.317.077-.112.149-.211.212-.297 3.095.328 6.291.269 9.071-.921.419 4.084.462 8.197.13 12.289a.568.568 0 0 1-.169.418.578.578 0 0 1-.354.077h-.182c-2.713.008-5.41.223-8.127.237-2.803.014-5.608-.057-8.41.017-2.549.066-5.282.501-7.777.406-1.272-.055-6.189-.956-3.899-2.995Z"/>
    <path fill="#fff" stroke="#222221" stroke-miterlimit="10" stroke-width=".5" d="M288.345 276.111c-1.904-4.105-3.542-8.466-3.542-12.989a9.136 9.136 0 0 1 1.232-5.023 4.595 4.595 0 0 1 1.905-1.742 4.623 4.623 0 0 1 2.546-.444c1.686.307 2.926 1.754 3.762 3.244 3.063 5.44 2.326.264 4.137 6.236.693 2.287 2.042 16.343 2.43 18.7.401 2.437.005 5.443-2.121 7.017-1.54 1.142-3.267 1.253-4.36-.41-1.14-1.732-1.403-4.104-2.075-6.034-1.026-2.957-2.599-5.721-3.914-8.555Z"/>
    <path fill="#8CC9DE" d="M263.984 199.282c.854-4.589.026-8.893 1.101-13.596 2.805-12.282.947-22.583-2.515-34.829-.855-3.026-2.051-6.068-4.263-8.304-2.212-2.236-5.642-3.513-8.607-2.449-5.23 1.877-5.151 7.078-5.918 11.488-.863 4.962-3.45 9.24-4.851 14.009-1.337 4.557-1.661 9.563-2.33 14.287a677.462 677.462 0 0 0-3.85 32.998 677.118 677.118 0 0 0-2.808 67.338c8.331.941 20.949-.254 29.335-.126.554-18.333 2.156-41.797 2.714-60.13.25-8.326.532-12.831 1.992-20.686Z"/>
    <path fill="#8CC9DE" d="M282.464 279.082a91.768 91.768 0 0 0 22.168-5.155 5008.237 5008.237 0 0 0-2.381-15.855c-4.406-28.765-11.133-57.349-11.9-86.449-.131-4.982-2.078-10.468-4.685-14.721-2.641-4.305-5.613-8.39-5.654-13.661-.008-1.059-.049-2.336-.97-2.866a2.895 2.895 0 0 0-1.369-.269c-4.138-.121-9.59-1.052-13.32 1.279-2.279 1.424-6.974 6.298-7.324 8.871-.264 1.943.26 3.896.751 5.794 3.936 15.244 4.814 30.672 6.218 46.169.317 3.499.66 7.001 1.072 10.506l7.874 67.021c3.179-.098 6.357-.307 9.52-.664Z"/>
    <path stroke="#222540" stroke-miterlimit="10" stroke-width=".75" d="M244.419 147.711c11.282 1.425 24.08.862 35.408-.139"/>
    <path fill="#D47172" d="M275.107 146.175c-10.191.255-22.246.519-32.424-.057-.564-.033.869-16.676.624-18.286-.883-5.838-2.155-11.853-2.014-17.758a9.648 9.648 0 0 1 1.742-5.645 9.683 9.683 0 0 1 4.709-3.581c1.806-.719 3.996-.103 5.929.171.824.118 1.81-.803 2.666-.724 1.078.101 2.156.22 3.223.392 2.222.437 4.49.594 6.752.467.231-.021 2.066-.384 2.304-.399 2.813-.219 9.291 1.071 11.658 2.676 5.044 3.42 2.966 12.981 2.908 18.211a331.356 331.356 0 0 1-1.16 24.296c-2.306.1-4.612.179-6.917.237Z"/>
    <path fill="#D47172" d="M238.19 113.164a7.91 7.91 0 0 1-4.434 4.446 3.226 3.226 0 0 1-2.056.101 4.512 4.512 0 0 1-2.105-2.058c-2.339-3.633-4.715-7.337-7.885-10.319-2.318-2.183-6.433-5.575-9.661-2.864a6.34 6.34 0 0 0-1.735 2.661 11.98 11.98 0 0 0 .275 8.932c1.29 2.955 2.841 5.914 4.389 8.764 1.877 3.461 4.128 6.821 7.27 9.2a19.176 19.176 0 0 0 7.393 3.291c2.671.559 5.431.543 8.095-.047a22.318 22.318 0 0 0 13.218-8.923 26.63 26.63 0 0 0 4.725-15.326 14.911 14.911 0 0 0-1.063-6.076c-1.359-3.069-4.096-5.462-7.577-4.554a10.09 10.09 0 0 0-5.155 3.267 14.057 14.057 0 0 0-2.432 4.67c-.514 1.555-.601 3.375-1.262 4.835Zm38.982-11.391c1.369.434 2.733.881 4.065 1.414 6.54 2.616 6.342 10.707 6.818 16.609.262 3.249 1.675 7.527.676 10.629.132-.409 2.167-1.193 2.59-1.432 4.103-2.324 8.25-4.835 12.735-6.396a11.268 11.268 0 0 1 5.707-.786c3.419.643 4.199 3.877 4.919 6.8 1.249 5.069-4.126 8.654-7.859 11.151a113.592 113.592 0 0 1-12.453 7.229c-2.791 1.393-5.707 2.689-8.815 2.996a14.53 14.53 0 0 1-7.277-1.176c-6.424-2.854-6.761-12.226-7.682-18.257a132.915 132.915 0 0 1-1.477-15.348c.038-2.064.237-4.122.595-6.155.191-1.706.207-3.426.378-5.133a25.597 25.597 0 0 0-.17-4.8 52.743 52.743 0 0 0 7.25 2.655Z"/>
    <path fill="#fff" stroke="#000" stroke-miterlimit="10" stroke-width=".5" d="M252.843 86.266c.303.38.681.695 1.11.927a1.98 1.98 0 0 1 1.134 1.986 37.22 37.22 0 0 1-.118 5.332c3.713-.608 7.546-.032 11.298-.287a9.443 9.443 0 0 1-.112-2.277c.324-4.553 1.913-10.938-.128-15.248-2.887-6.097-13.054-8.173-14.629-.006a17.148 17.148 0 0 0 0 5.265 8.522 8.522 0 0 0 1.445 4.308Z"/>
    <path fill="#D47172" d="M267.25 94.605a7.498 7.498 0 0 1-.308-2.544 170.63 170.63 0 0 1-12.345-.642c-.546 2.003-.092 4.293-1.172 6.068a5.35 5.35 0 0 1-2.709 2.097 16.003 16.003 0 0 1-3.4.763c.231-.035 1.514 1.345 1.694 1.563.35.494.762.942 1.225 1.333a16.451 16.451 0 0 0 3.567 1.879 18.821 18.821 0 0 0 15.256-.192c1.968-.894 3.715-2.05 5.589-3.043a.48.48 0 0 0-.113-.896 10.631 10.631 0 0 1-4.95-2.585 8.707 8.707 0 0 1-2.334-3.802Z"/>
    <path fill="#000" d="M274.371 62.314c-1.196-1.861-3.85-2.412-5.909-2.15a7.733 7.733 0 0 0-2.998 1.007 4.277 4.277 0 0 0-2.111 2.31 4.972 4.972 0 0 0 .782 3.573c-2.276-.588-5.595-.112-7.829.529a8.237 8.237 0 0 0-5.294 4.07 16.366 16.366 0 0 1-.933 2.054 6.903 6.903 0 0 0-.77 1.175c-.693 1.757 2.172 1.363 3.151 1.372l4.947.044a3.192 3.192 0 0 0 1.75-.32c.529-.333.82-.95 1.331-1.305a1.428 1.428 0 0 1 1.437-.154c1.368.702.15 2.963 0 3.986a.537.537 0 0 0 .035.36.638.638 0 0 0 .414.216 3.334 3.334 0 0 1 2.129 1.711c.294.733.503 1.498.622 2.278.349 1.266.833 2.49 1.443 3.654a.59.59 0 0 0 .154.218c.285.214.616-.203.742-.537a10.83 10.83 0 0 1 2.079-3.276 8.163 8.163 0 0 0 1.48-3.372c.332-1.3.443-2.647.328-3.985a10.156 10.156 0 0 0-3.059-6.398 7.081 7.081 0 0 0 4.963-1.454c1.599-1.324 2.293-3.776 1.116-5.606Z"/>
    <path fill="#262626" d="M257.453 87.837a17.64 17.64 0 0 1-2.897-.205c.071.012.189.253.22.307.056.108.094.224.112.343.058.294.101.591.127.89.056.8.095 1.6.117 2.4.194-.364.415-.713.661-1.043.284-.37.589-.725.912-1.062a8.64 8.64 0 0 1 2.092-1.707 4.144 4.144 0 0 0-.462.041c-.18.011-.361.02-.539.025-.115.008-.229.01-.343.011Z"/>
    <path fill="#fff" d="M261.81 79.105c.372-1.554 2.045-1.613 2.883-1.363 2.781.82 2.598 4.17.142 5.253a1.905 1.905 0 0 1-1.933-.194"/>
    <path stroke="#000" stroke-miterlimit="10" stroke-width=".5" d="M261.81 79.105c.372-1.554 2.045-1.613 2.883-1.363 2.781.82 2.598 4.17.142 5.253a1.905 1.905 0 0 1-1.933-.194"/>
    <path fill="#fff" stroke="#000" stroke-miterlimit="10" stroke-width=".5" d="M252.9 83.618a1.675 1.675 0 0 0 1.705 1.353 1.675 1.675 0 0 0 1.606-1.469l-3.311.116Zm78.222 39.849c1.938-.94 4.029-2.529 3.635-4.968a3.218 3.218 0 0 0-1.011-1.83 2.422 2.422 0 0 0-.764-.493 2.508 2.508 0 0 0-1.749.06c-1.339.497-2.43 1.505-3.788 2.049a7.875 7.875 0 0 1-4.299.656c-1.914-.349-.358-1.21.496-1.797.589-.403 1.475-.982 1.454-1.798-.027-1.052-.991-.876-1.569-.323a7.653 7.653 0 0 1-3.678 1.943c-.836.095-1.657.292-2.445.585-.994.482-1.648 1.449-2.506 2.145-1.562 1.267-3.575 1.939-5.196 3.149-1.2.896-.743 2.842.031 3.933.8 1.125 2.186 1.987 3.4 1.174a14.196 14.196 0 0 1 4.728-2.206 16.549 16.549 0 0 1 3.134-.275c3.493-.082 6.677-.384 9.906-1.896.074-.037.148-.071.221-.108ZM213.894 94.714c-1.694-1.934-4.206-2.655-6.548-3.456a4.48 4.48 0 0 1-1.336-.63 1.109 1.109 0 0 0-.361-.23c-.368-.103-.708.328-.661.707.169.509.488.955.915 1.28.452.426 3.841 1.441 1.938 2.004a7.819 7.819 0 0 1-4.388-.265 29.478 29.478 0 0 0-4.287-1.195 2.921 2.921 0 0 0-3.3 1.57c-.931 2.02.91 4.268 2.669 5.063 2.516 1.138 5.409 1.26 8.097 1.703 1.167.192 2.873.461 3.55 1.541.814 1.297.763 3.113 1.386 4.512.16.429.447.8.821 1.063.398.212.854.286 1.298.212a3.861 3.861 0 0 0 2.74-1.709c1.068-1.653.07-4.407-.224-6.244-.333-2.11-.861-4.275-2.309-5.926Z"/>
    <path fill="#fff" d="M265.219 78.935a2.352 2.352 0 0 0-2.65 1.52"/>
    <path stroke="#000" stroke-miterlimit="10" stroke-width=".5" d="M265.219 78.935a2.352 2.352 0 0 0-2.65 1.52"/>
    <path fill="#fff" d="M333.319 116.493a15.968 15.968 0 0 1-7.705 3.757Z"/>
    <path stroke="#000" stroke-miterlimit="10" stroke-width=".5" d="M333.319 116.493a15.968 15.968 0 0 1-7.705 3.757"/>
    <path fill="#fff" d="M334.516 117.925c-2.286 2.235-5.393 3.442-8.509 4.171Z"/>
    <path stroke="#000" stroke-miterlimit="10" stroke-width=".5" d="M334.516 117.925c-2.286 2.235-5.393 3.442-8.509 4.171"/>
    <path fill="#fff" d="M334.778 119.67c-2.528 1.743-5.553 3.419-8.579 3.952Z"/>
    <path stroke="#000" stroke-miterlimit="10" stroke-width=".5" d="M334.778 119.67c-2.528 1.743-5.553 3.419-8.579 3.952"/>
    <path fill="#fff" d="M204.098 95.777c-2.557-.184-4.884-1.478-7.347-2.183-.085-.024-.226.032-.167.097"/>
    <path stroke="#000" stroke-miterlimit="10" stroke-width=".5" d="M204.098 95.777c-2.557-.184-4.884-1.478-7.347-2.183-.085-.024-.226.032-.167.097"/>
    <path fill="#fff" d="M195.96 97.045a16.085 16.085 0 0 0 7.805 1.85Z"/>
    <path stroke="#000" stroke-miterlimit="10" stroke-width=".5" d="M195.96 97.045a16.085 16.085 0 0 0 7.805 1.85"/>
    <path fill="#fff" d="M195.722 95.137a30.967 30.967 0 0 0 7.768 2.18Z"/>
    <path stroke="#000" stroke-miterlimit="10" stroke-width=".5" d="M195.722 95.137a30.967 30.967 0 0 0 7.768 2.18"/>
    <path stroke="#222540" stroke-miterlimit="10" stroke-width=".5" d="M263.998 199.243c-.707-4.367-2.849-23.884-3.553-28.251-.259-1.597-.556-3.281-1.604-4.515m17.914-7.095a10.579 10.579 0 0 0 1.952 3.52 5.078 5.078 0 0 0 3.523 1.778"/>
    <path stroke="#222540" stroke-miterlimit="10" stroke-width=".75" d="M248.02 158.69c.173.013.188.263.138.43a4.98 4.98 0 0 1-2.521 2.808 14.773 14.773 0 0 1-3.675 1.2m47.546-33.367a7.282 7.282 0 0 1-1.643 1.861 2.415 2.415 0 0 0-.861 2.217"/>
    <path fill="#A6A696" d="M277.278 302.361a4.95 4.95 0 0 1 1.186-1.292c2.964-2.535 6.033-4.951 8.955-7.539 2.107-1.865 4.491-3.657 5.285-6.466.037-.132.07-.248.102-.351 3.051-.738 6.069-1.876 8.309-3.94a66.74 66.74 0 0 1 4.26 11.532.574.574 0 0 1-.021.451.594.594 0 0 1-.308.191l-.173.062c-2.575.926-5.065 2.041-7.642 2.973-2.659.963-5.347 1.844-7.986 2.863-2.401.921-4.851 2.26-7.256 3.015-1.225.383-6.201 1.199-4.711-1.499Z"/>
    <path stroke="#000" stroke-miterlimit="10" stroke-width=".5" d="M275.248 146.818c-1.776-1.299-1.934-3.846-1.88-6.042.163-6.705.35-15.994.939-22.675m-31.138 14.995.924-19.251"/>
    <path stroke="#222540" stroke-miterlimit="10" stroke-width=".5" d="M234.87 221.686a3.24 3.24 0 0 0 .628 2.113 3.254 3.254 0 0 0 1.836 1.226m34.579-1.275c1.54.181 3.1.049 4.586-.388"/>
    <mask id="b" width="38" height="142" x="229" y="139" maskUnits="userSpaceOnUse" style="mask-type:luminance">
      <path fill="#fff" d="M263.984 199.282c.854-4.589.026-8.893 1.101-13.596 2.805-12.282.947-22.583-2.515-34.829-.855-3.026-2.051-6.068-4.263-8.304-2.212-2.236-5.642-3.513-8.607-2.449-5.23 1.877-5.151 7.078-5.918 11.488-.863 4.962-3.45 9.24-4.851 14.009-1.337 4.557-1.661 9.563-2.33 14.287a677.462 677.462 0 0 0-3.85 32.998 677.118 677.118 0 0 0-2.808 67.338c8.331.941 20.949-.254 29.335-.126.554-18.333 2.156-41.797 2.714-60.13.25-8.326.532-12.831 1.992-20.686Z"/>
    </mask>
    <g mask="url(#b)">
      <path stroke="#222540" stroke-miterlimit="10" stroke-width="2" d="M226.375 273.933c12.116.889 24.285.787 36.384-.308m2.112-5.406a149.327 149.327 0 0 1-41.256.513"/>
    </g>
    <mask id="c" width="49" height="141" x="256" y="139" maskUnits="userSpaceOnUse" style="mask-type:luminance">
      <path fill="#fff" d="M282.464 279.082a91.768 91.768 0 0 0 22.168-5.155 5008.237 5008.237 0 0 0-2.381-15.855c-4.406-28.765-11.133-57.349-11.9-86.449-.131-4.982-2.078-10.468-4.685-14.721-2.641-4.305-5.613-8.39-5.654-13.661-.008-1.059-.049-2.336-.97-2.866a2.895 2.895 0 0 0-1.369-.269c-4.138-.121-9.59-1.052-13.32 1.279-2.279 1.424-6.974 6.298-7.324 8.871-.264 1.943.26 3.896.751 5.794 3.936 15.244 4.814 30.672 6.218 46.169.317 3.499.66 7.001 1.072 10.506l7.874 67.021c3.179-.098 6.357-.307 9.52-.664Z"/>
    </mask>
    <g mask="url(#c)">
      <path stroke="#222540" stroke-miterlimit="10" stroke-width="2" d="M268.577 275.571c14.009.255 29.596-3.326 41.531-10.645m-40.279 5.519c10.401.086 27.066-2.737 36.52-7.066"/>
    </g>
    <path fill="#fff" d="m80.521 217.983 3.085-1.731Z"/>
    <path stroke="#222221" stroke-miterlimit="10" stroke-width=".5" d="m80.521 217.983 3.085-1.731"/>
    <path fill="#fff" d="M101.93 209.847a3.266 3.266 0 0 1-.59 2.706"/>
    <path stroke="#222221" stroke-miterlimit="10" stroke-width=".5" d="M101.93 209.847a3.266 3.266 0 0 1-.59 2.706"/>
    <path stroke="#4764A8" stroke-miterlimit="10" stroke-width="3" d="m319.401 176.801 1.924 131.469m-190.3-131.469-5.828 131.469"/>
    <path fill="#4764A8" d="M328.072 173.355H119.153v4.886h208.919v-4.886Z"/>
    <path stroke="#fff" stroke-miterlimit="10" d="M58.43 217.698v67.312m11.23 11.912-11.23-12.935-12.691 12.935"/>
    <path stroke="#fff" stroke-miterlimit="10" d="m86.132 294.955-27.828-11.264-26.941 11.264"/>
    <path fill="#fff" d="M81.671 295.162a3.157 3.157 0 0 0 1.956 2.919 3.167 3.167 0 0 0 4.319-2.303 3.164 3.164 0 0 0-3.107-3.776c-.84 0-1.646.333-2.24.925a3.158 3.158 0 0 0-.928 2.235Zm-52.639 0a2.726 2.726 0 0 0 1.69 2.522 2.734 2.734 0 0 0 3.731-1.989 2.726 2.726 0 0 0-1.164-2.803 2.74 2.74 0 0 0-3.455.34 2.726 2.726 0 0 0-.802 1.93Zm13.776 1.54a3.722 3.722 0 0 0 2.307 3.444 3.744 3.744 0 0 0 4.072-.808 3.724 3.724 0 0 0-.566-5.735 3.74 3.74 0 0 0-4.718.463 3.723 3.723 0 0 0-1.095 2.636Zm23.375.919c0 .673.2 1.332.575 1.891a3.415 3.415 0 0 0 6.186-1.227 3.396 3.396 0 0 0-1.451-3.495 3.412 3.412 0 0 0-3.203-.315 3.413 3.413 0 0 0-1.847 1.843 3.39 3.39 0 0 0-.26 1.303Z"/>
    <path fill="#D47172" d="M101.314 212.494a47.015 47.015 0 0 0 2.309-14.292c.03-3.512-.55-7.509-3.447-9.503-1.666-1.152-3.78-1.383-5.799-1.548-10.754-.871-22.169-.811-31.393-6.398-4.734-2.866-8.488-7.025-11.737-11.445-1.65-2.241-3.178-4.567-4.697-6.898-1.351-2.078-3.795-3.05-5.395-5.031-2.152-2.661-3.525-5.792-5.503-8.582-1.272-1.792-2.588-3.627-4.434-4.821-2.233-1.446-5.02-1.793-7.68-1.675-7.777.346-15.382 4.65-19.22 11.484C-.4 162.187-.676 171.52.778 180.906c3.403 21.942 18.136 42.682 39.196 49.86a51.964 51.964 0 0 0 17.503 2.716c9.985-.099 20.146-.637 29.536-4.029 2.81-1.016 5.24-1.753 7.188-4.045a36.91 36.91 0 0 0 5.227-8.177 42.182 42.182 0 0 0 1.887-4.737Z"/>
    <path fill="#222221" d="M132.114 273.645c-.031-.097-2.71.876-3.177.508a2.955 2.955 0 0 1-.77-1.204c-1.457-3.389-3.53-7.228-4.988-10.617.841-.027 2.233 1.613 3.176 1.87 1.096.241 2.22.331 3.341.269 3.684-.04 7.222-1.433 10.971-.827 1.092.177 3.224.797 4.312.991 2.916.519 5.178 1.258 8.392 1.22.292-.03.586.016.854.132a1.107 1.107 0 0 1 .452 1.21 2.656 2.656 0 0 1-.72 1.166c-2.925 3.139-7.545 3.692-11.614 3.835a25.504 25.504 0 0 1-10.994-2.064c.151 1.19.407 2.365.765 3.511Z"/>
    <path fill="#A6A696" d="M92.56 304.465c-.975-.627-1.092.138-1.463 1.11a16.205 16.205 0 0 0-.787 2.754 18.715 18.715 0 0 1-4.098-1.401 145.516 145.516 0 0 1 2.782-15.014c.019-.077 4.17 2.305 4.536 2.561a30.733 30.733 0 0 1 3.895 3.318c1.186 1.185 2.426 2.2 3.556 3.447l4.102 4.532a18.977 18.977 0 0 0 4.803 4.102 6.553 6.553 0 0 1 1.897 1.355c.616.733 1.07 2.236.476 3.095-.457.663-1.404.728-2.208.657-3.188-.285-6.16-1.666-9.055-3.026a15.432 15.432 0 0 1-2.575-1.417c-2.238-1.631-3.473-4.365-5.725-5.977a2.18 2.18 0 0 0-.137-.096Z"/>
    <path fill="#fff" stroke="#222221" stroke-miterlimit="10" stroke-width=".5" d="M137.03 266.539c-2.57-.547-5.174-.818-7.747-1.388-1.771-.394-4.572-.985-5.762-2.514-1.038-1.335-1.533-3.425-2.31-4.953a322.788 322.788 0 0 0-21.228-35.878 5.717 5.717 0 0 0-2.36-2.42 5.75 5.75 0 0 0-3.316-.668 127.703 127.703 0 0 1-18.394-2.594c-5.344-1.152-11.114-2.588-15.698-5.697-1.75-1.187-3.976-2.984-3.69-5.33.633-5.204 4.26-7.048 7.255-10.697 2.618-3.193 6.743-6.622 8.572-5.886 4.225 1.702 7.968 1.371 12.497 1.871 6.93.763 22.466 3.356 27.712 7.919 5.621 4.89 7.053 11.266 8.878 18.307.973 3.749 2.125 7.242 3.324 10.916 2.633 8.071 5.159 16.178 7.642 24.294 1.249 4.078 2.746 8.219 6.554 10.528a29.263 29.263 0 0 0 6.844 2.653c.279.619-.357 1.264-.97 1.56a8.954 8.954 0 0 1-5.273.48c-.848-.135-1.688-.324-2.53-.503Z"/>
    <path fill="#fff" stroke="#222221" stroke-miterlimit="10" stroke-width=".5" d="M63.836 155.981c3.338 5.102 5.258 10.981 6.951 16.834a14.505 14.505 0 0 0 1.827 4.443c1.238 1.75 3.187 2.835 5.041 3.918a117.595 117.595 0 0 1 13.11 8.854c.304.195.545.474.693.803.25.745-.485 1.444-1.176 1.822-5.101 2.798-11.516.732-16.503-2.261-6.57-3.943-12.295-9.594-15.283-16.637-2.029-4.781-2.735-9.999-3.42-15.145-.275-2.052-1.707-9.468 1.178-9.64 2.696-.16 6.349 5.124 7.582 7.009Zm-.681 64.912a17.493 17.493 0 0 1-3.664-5.806c-.978-2.985 2.204-.523 3.506 0a28.46 28.46 0 0 0 3.972 1.271c2.711.651 5.506.887 8.288.702 4.373-.296 8.597-1.625 12.829-2.758 4.232-1.133 8.613-2.083 12.969-1.602a15.431 15.431 0 0 1 8.945 3.918c2.187 2.089 3.119 5.496 3.552 8.427.616 4.173.115 8.425-.543 12.591-2.686 17.014-8.037 33.401-11.626 50.107-.278 1.294-.577 2.589-.754 3.899-.068.51-.118 1.023-.141 1.536a18.147 18.147 0 0 0 1.386 7.627c.612 1.448 1.356 3.581 2.459 4.645l2.102 2.03a1.059 1.059 0 0 1 .434.785.716.716 0 0 1-.808.545 2.08 2.08 0 0 1-.964-.461l-1.611-1.152c-4.454-3.195-9.02-5.272-12.461-9.803a8.316 8.316 0 0 1-1.555-2.853 9.734 9.734 0 0 1-.224-2.24c-.123-5.505-.194-10.973-.43-16.467-.154-3.533.87-44.83 1.244-44.806a56.621 56.621 0 0 1-19.287-5.019 23.542 23.542 0 0 1-7.618-5.116Z"/>
    <path fill="#fff" d="M48.171 162.992a7.593 7.593 0 0 0 7.114-1.055 8.223 8.223 0 0 0 2.948-6.298 9.412 9.412 0 0 0-4.056-7.733 36.795 36.795 0 0 0-4.893-3.107 13.58 13.58 0 0 1 .296-4.272c.318-.964 1.4-1.344 2.213-1.799a14.409 14.409 0 0 0 2.016-1.139c2.926-2.316 3.575-5.523 4.131-9.04a11.22 11.22 0 0 0-.977-5.353c-.642-1.268-1.223-.938-2.55-1.454a16.019 16.019 0 0 0-7.917-1.142c-1.789.29-3.387 1.997-4.32 3.496-2.156 3.472-2.43 8.057-1.973 12.016.347 3.017.362 6.385-1.602 8.705-1.833 2.163-4.923 2.842-6.998 4.772-5.352 4.993-1.994 15.011 5.759 14.084 2.437-.291 5.543-2.134 7.884-1.645 1.006.207 1.943.661 2.925.964Z"/>
    <path stroke="#222221" stroke-miterlimit="10" stroke-width=".5" d="M48.171 162.992a7.593 7.593 0 0 0 7.114-1.055 8.223 8.223 0 0 0 2.948-6.298 9.412 9.412 0 0 0-4.056-7.733 36.795 36.795 0 0 0-4.893-3.107 13.58 13.58 0 0 1 .296-4.272c.318-.964 1.4-1.344 2.213-1.799a14.409 14.409 0 0 0 2.016-1.139c2.926-2.316 3.575-5.523 4.131-9.04a11.22 11.22 0 0 0-.977-5.353c-.642-1.268-1.223-.938-2.55-1.454a16.019 16.019 0 0 0-7.917-1.142c-1.789.29-3.387 1.997-4.32 3.496-2.156 3.472-2.43 8.057-1.973 12.016.347 3.017.362 6.385-1.602 8.705-1.833 2.163-4.923 2.842-6.998 4.772-5.352 4.993-1.994 15.011 5.759 14.084 2.437-.291 5.543-2.134 7.884-1.645 1.006.207 1.943.661 2.925.964Z"/>
    <path fill="#4764A8" d="M35.813 147.825a14.43 14.43 0 0 0 4.894 2.64 12.14 12.14 0 0 0 5.4.769c1.18-.129 2.694-.545 3.473-1.499a6.979 6.979 0 0 0 1.287-4.206c2.393.625 5.324 1.178 7.401 2.619 2.303 1.597 3.216 5.048 4.146 7.62 2.623 7.257 3.618 14.983 4.275 22.632a4.947 4.947 0 0 0 .668 2.502c.377.471.844.862 1.373 1.152a40.626 40.626 0 0 0 17.677 5.825l9.679.88c-5.024 13.667-13.381 28.369-24.272 38.191a4.092 4.092 0 0 1-1.941 1.178c-2.818.475-10.151-3.718-12.802-4.903-4.466-1.997-8.721-4.595-11.764-8.495a27.028 27.028 0 0 1-4.009-7.539c-2.427-6.759-1.961-13.327-1.21-20.307l-6.439-19.126c.77-1.648 1.914-3.065 2.746-4.648a4.039 4.039 0 0 0 .425-1.828c-.01-.797-.104-1.59-.279-2.368-.148-.755-3.49-8.761-4.455-7.947l3.727-3.142Z"/>
    <path fill="#fff" stroke="#222221" stroke-miterlimit="10" stroke-width=".5" d="M41.17 165.587a72.328 72.328 0 0 1 .508 15.059c-.136 1.928-.42 4.105-1.765 5.593a4.947 4.947 0 0 1-3.567 1.652 7.65 7.65 0 0 1-2.44-.475c-3.363-1.106-5.202-4.378-6.082-7.681-1.087-4.081-2.377-16.272-1.402-19.564.923-3.127 3.618-5.982 6.887-5.999 2.654-.014 5.771 1.606 6.439 4.204a65.66 65.66 0 0 1 1.423 7.211Z"/>
    <path fill="#4764A8" d="M41.106 150.028c.246.254.521.478.82.668a6.53 6.53 0 0 0 3.34.604 7.243 7.243 0 0 1-.822 1.374c-.328.531-.847.902-1.188 1.421-.308.503-.574 1.03-.796 1.577l-.544 1.24c-.196.447.118 1.142.2 1.613.113.644.21 1.291.28 1.941a18.42 18.42 0 0 1 .063 3.712c-2.511.64-5.717.191-8.31.167a245.063 245.063 0 0 1-8.95-.25.773.773 0 0 1-.584-.197.757.757 0 0 1-.111-.484 31.9 31.9 0 0 1 .385-5.147c.274-1.663.317-3.36.738-5.009a7.395 7.395 0 0 1 .86-2.151c1.514-2.386 4.192-3.461 6.732-4.416l4.067-1.529a13.519 13.519 0 0 0 3.1 4.117c.242.244.474.501.72.749Z"/>
    <path fill="#222221" d="M49.533 129.225a5.261 5.261 0 0 1 1.51-2.485 4.454 4.454 0 0 1 3.14-1.01c1.31.094 2.552.404 3.893.465a.648.648 0 0 0 .577-.167.626.626 0 0 0 .087-.338c.163-2.874-3.332-5.474-5.625-6.562a16.19 16.19 0 0 0-10.62-1.153 10.23 10.23 0 0 0-2.71 1.024 7.514 7.514 0 0 0-2.875 2.964 3.852 3.852 0 0 1-.766 1.165c-.599.52-1.479.497-2.244.706-3.074.84-2.043 4.278-3.982 6.074-.642.595-1.552.806-2.261 1.319a3.76 3.76 0 0 0-1.439 2.539 4.705 4.705 0 0 0 1.057 3.647c1.306 1.741 3.89 1.925 5.998 1.371a3.459 3.459 0 0 1 1.781-.191c.826.231 1.28 1.08 1.823 1.744a5.524 5.524 0 0 0 5.638 1.755 5.724 5.724 0 0 0 3.984-4.387c.164-.881.119-1.794.322-2.668.19-.816.974-1.582 1.404-2.28a17.005 17.005 0 0 0 1.308-3.532Z"/>
    <path fill="#222221" d="m53.039 138.043-.039.087a5.89 5.89 0 0 0-2.676 1.67 4.347 4.347 0 0 1-2.048-1.796 3.654 3.654 0 0 1-.368-1.165 6.88 6.88 0 0 0 5.13 1.204Z"/>
    <path stroke="#222221" stroke-miterlimit="10" stroke-width=".5" d="M55.004 134.813a1.963 1.963 0 0 1-3.047.787 1.956 1.956 0 0 1-.66-.996"/>
    <path fill="#fff" stroke="#222221" stroke-miterlimit="10" stroke-width=".5" d="m69.28 198.479 28.188-3.78a.134.134 0 0 0 .049-.248l-16.173-7.469-28.643 3.841 16.579 7.656Z"/>
    <path fill="#fff" stroke="#222221" stroke-miterlimit="10" stroke-width=".5" d="m70.382 196.138 14.805-1.986-8.546-3.437-14.806 1.986 8.547 3.437Z"/>
    <path fill="#000" d="m98.227 193.956 7.609-16.987-29.592 3.736-6.96 17.771 27.96-3.749a1.302 1.302 0 0 0 .983-.771Z"/>
    <path fill="#222221" d="m64.54 167.684-7.022-.838-.252-.38 4.364-14.882a.298.298 0 0 1 .322-.212l7.023.838.252.38-4.364 14.882-.322.212Z"/>
    <path fill="#fff" d="M38.708 176.304a30.508 30.508 0 0 1 4.4-2.351 96.799 96.799 0 0 0 7.704-4.403 53.522 53.522 0 0 0 3.635-2.502c.976-.739 2.515-1.683 2.762-2.967.394-2.054.7-4.758 2.25-6.294.09-.09.257-.173.322-.063a.2.2 0 0 1 .013.128c-.14 1.13-.591 2.409.81 2.829.62.141 1.263.148 1.886.021a4.477 4.477 0 0 0 1.727-.754c1.288-.841 2.28-2.059 3.486-3.014.215-.17.594-.3.71-.05.031.096.031.2 0 .296a4.745 4.745 0 0 1-1.029 2.151c.043.396.055.794.037 1.191.298 2.35.753 3.388-.92 5.234-1.314 1.448-2.975 2.316-4.348 3.61-2.271 2.144-4.121 4.648-6.242 6.925-2.443 2.626-4.726 5.401-7.283 7.92-4.421 4.355-10.36 9.303-16.23 4.111-2.47-2.186-3.814-5.382-4.572-8.587"/>
    <path stroke="#222221" stroke-miterlimit="10" stroke-width=".5" d="M38.708 176.304a30.508 30.508 0 0 1 4.4-2.351 96.799 96.799 0 0 0 7.704-4.403 53.522 53.522 0 0 0 3.635-2.502c.976-.739 2.515-1.683 2.762-2.967.394-2.054.7-4.758 2.25-6.294.09-.09.257-.173.322-.063a.2.2 0 0 1 .013.128c-.14 1.13-.591 2.409.81 2.829.62.141 1.263.148 1.886.021a4.477 4.477 0 0 0 1.727-.754c1.288-.841 2.28-2.059 3.486-3.014.215-.17.594-.3.71-.05.031.096.031.2 0 .296a4.745 4.745 0 0 1-1.029 2.151c.043.396.055.794.037 1.191.298 2.35.753 3.388-.92 5.234-1.314 1.448-2.975 2.316-4.348 3.61-2.271 2.144-4.121 4.648-6.242 6.925-2.443 2.626-4.726 5.401-7.283 7.92-4.421 4.355-10.36 9.303-16.23 4.111-2.47-2.186-3.814-5.382-4.572-8.587"/>
    <path fill="#fff" stroke="#222221" stroke-miterlimit="10" stroke-width=".5" d="M101.693 184.274a18.664 18.664 0 0 0-1.664-.238 3.646 3.646 0 0 0-1.123.006c-.313.065-.715.185-.817.553a.655.655 0 0 0 .163.629c-.14-.137-.395-.018-.539.057a.691.691 0 0 0-.338.442.702.702 0 0 0 .094.549c.152.192.36.331.595.399-.261-.105-.726.236-.86.453a.992.992 0 0 0 .082 1.039c.161.194.36.354.584.47a.763.763 0 0 0-.514.171.544.544 0 0 0-.175.525c.082.203.24.365.44.453.819.446 1.699.77 2.612.959.576.137 2.102.605 2.37-.2a.847.847 0 0 0-.24-.891c.275-.027.538-.122.766-.277.504-.404.216-.879-.089-1.264a.794.794 0 0 0 .892-.68 1.058 1.058 0 0 0-.543-1.022c1.06-.049.693-1.152.06-1.511a6.022 6.022 0 0 0-1.756-.622Z"/>
    <path stroke="#222221" stroke-miterlimit="10" stroke-width=".5" d="M97.738 188.62c1.542.502 3.133.84 4.746 1.009m.649-1.513c-.944-.248-2.227-.657-3.171-.905a12.599 12.599 0 0 0-2.45-.609m5.951-.186c-1.814-.376-3.66-.775-5.442-1.275"/>
    <path fill="#fff" d="M35.716 188.509a2.814 2.814 0 0 0 2.239.323"/>
    <path stroke="#222221" stroke-miterlimit="10" stroke-width=".5" d="M35.716 188.509a2.814 2.814 0 0 0 2.239.323"/>
    <path fill="#fff" d="M39.45 188.438c.28-.15.584-.252.898-.299Z"/>
    <path stroke="#222221" stroke-miterlimit="10" stroke-width=".5" d="M39.45 188.438c.28-.15.584-.252.898-.299"/>
    <path fill="#fff" d="m66.374 161.486-.6.495Z"/>
    <path stroke="#222221" stroke-miterlimit="10" stroke-width=".5" d="m66.374 161.486-.6.495"/>
    <path fill="#fff" d="m66.57 162.675-.498.299Z"/>
    <path stroke="#222221" stroke-miterlimit="10" stroke-width=".5" d="m66.57 162.675-.498.299"/>
    <path fill="#fff" d="m67.169 163.67-.299.298Z"/>
    <path stroke="#222221" stroke-miterlimit="10" stroke-width=".5" d="m67.169 163.67-.299.298"/>
    <path stroke="#000" stroke-miterlimit="10" stroke-width=".5" d="M114.032 215.243c.457.999.806 2.044 1.042 3.117M7.962 164.541a69.934 69.934 0 0 0 17.35 46.122m3.9 3.377a29.917 29.917 0 0 0 7.765 6.169m-.639-30.417a1.895 1.895 0 0 0 1.871.49m3.975 5.222a15.293 15.293 0 0 0 .046 4.519c.658 3.114 3.167 5.494 5.775 7.326m1.876 1.14a9.357 9.357 0 0 0 2.291 1.143m-10.902-45.2-1.007-5.598m19.686-1.081a78.563 78.563 0 0 0-1.707-3.078"/>
    <path stroke="#fff" stroke-miterlimit="10" stroke-width=".5" d="m17.732 76.372-4.73 5.246a2.732 2.732 0 0 0-.384 1.4v27.619a2.738 2.738 0 0 0 .807 1.943 2.755 2.755 0 0 0 1.948.804l26.233-.096c.343.023 1.694.065 2.34-.577 1.206-1.205 5.532-5.969 5.532-5.969"/>
    <path stroke="#fff" stroke-miterlimit="10" stroke-width=".5" d="M45.982 75.265H20.938a3.684 3.684 0 0 0-3.688 3.68V104.7a3.683 3.683 0 0 0 3.688 3.679h25.044a3.683 3.683 0 0 0 3.688-3.679V78.945a3.684 3.684 0 0 0-3.688-3.68ZM18.021 107.32l-4.76 5.037"/>
    <path stroke="#fff" stroke-miterlimit="10" stroke-width=".5" d="M48.174 98.25a65.976 65.976 0 0 1-.108 5.255m-.093 1.29-.217.964m-1.406.994-2.258.203"/>
    <path fill="#A8DCA4" stroke="#fff" stroke-miterlimit="10" stroke-width=".5" d="m42.681 88.934-8.877-8.663-9.65 8.663h4.632v14.057h9.263V88.934h4.632Z"/>
    <path stroke="#fff" stroke-miterlimit="10" stroke-width=".5" d="M29.893 89.78a30.886 30.886 0 0 0-.09 4.07m-.008 1.399v1.291"/>
    <path fill="#A8DCA4" d="M281.358 20.785a13.764 13.764 0 0 0-1.741-6.635 13.806 13.806 0 0 0-4.731-4.976 13.842 13.842 0 0 0-18.57 3.627 13.765 13.765 0 0 0 2.463 18.717 10.222 10.222 0 0 1 3.78 6.76l.82 7.428 8.599-.048.736-7.44a10.135 10.135 0 0 1 3.671-6.77 13.749 13.749 0 0 0 3.688-4.774 13.71 13.71 0 0 0 1.285-5.89Z"/>
    <path fill="#000" d="M267.69 47.52a5.431 5.431 0 0 1-5.032-3.314 5.408 5.408 0 0 1-.424-2.07l-.013-2.348 10.851-.061.014 2.348a5.407 5.407 0 0 1-1.568 3.837 5.434 5.434 0 0 1-3.828 1.607Z"/>
    <path stroke="#222221" stroke-miterlimit="10" stroke-width=".5" d="m270.198 40.63 1.715-9.28 1.217-6.592c.308-1.676 1.81-4.8-.924-5.337a1.772 1.772 0 0 0-2.093 1.69c.011.232.1.453.254.628a.967.967 0 0 0 1.291-.116.96.96 0 0 0 .223-.411 1.472 1.472 0 0 0-.901-1.565 2.091 2.091 0 0 0-2.811 1.55.501.501 0 0 0 .05.347c.161.237.558.094.706-.153a1.15 1.15 0 0 0-.528-1.514 2.16 2.16 0 0 0-1.745 0c-.828.307-1.623 1.158-1.309 1.982a.52.52 0 0 0 .343.35.486.486 0 0 0 .3-.044c1.602-.722-.596-3.11-2.114-2.36a2.912 2.912 0 0 0-1.428 2.517c.018 1.014.2 2.018.539 2.974a63.376 63.376 0 0 1 2.381 14.548c.037.425-.055.851-.265 1.223"/>
    <path stroke="#fff" stroke-miterlimit="10" stroke-width=".5" d="m246.273 17.312 4.227.587m-.508-10.847 3.236 2.934m10.133-9.58c.21 1.08.424 2.862.634 3.943m8.432-4.324c-.308 2.32-.515 3.912-.64 4.857m13.702 4.461-4.201 2.938m3.282 6.56 4.543.298"/>
    <mask id="d" width="12" height="9" x="262" y="39" maskUnits="userSpaceOnUse" style="mask-type:luminance">
      <path fill="#fff" d="M267.69 47.52a5.431 5.431 0 0 1-5.032-3.314 5.408 5.408 0 0 1-.424-2.07l-.013-2.348 10.851-.061.014 2.348a5.407 5.407 0 0 1-1.568 3.837 5.434 5.434 0 0 1-3.828 1.607Z"/>
    </mask>
    <g mask="url(#d)">
      <path stroke="#A8DCA4" stroke-miterlimit="10" stroke-width=".5" d="m261.007 42.45 13.309-.075m-13.293 2.731 13.308-.076"/>
    </g>
    <path stroke="#222221" stroke-miterlimit="10" stroke-width=".5" d="M274.957 12.014a9.908 9.908 0 0 1 3.031 3.645 9.873 9.873 0 0 1 .988 4.632m-.576 4.625a9.484 9.484 0 0 1-2.512 4.129"/>
    <path fill="#8CC9DE" d="M174.692 27.075h-.108a1.301 1.301 0 0 0 1.22-.79 1.28 1.28 0 0 0 .102-.5 1.33 1.33 0 0 0-1.318-1.3c-1.115-.022-3.238.376-4.214-.083-1.703-.8-.385-3.668-.365-5.015a2.94 2.94 0 0 0-.27-1.469 1.214 1.214 0 0 0-1.247-.66c-.669.155-.924.942-1.125 1.596a16.841 16.841 0 0 1-2.432 4.24 11.476 11.476 0 0 0-1.903 4.956 24.121 24.121 0 0 0-.136 4.455c.093 1.475.698 2.112 2.105 2.147 1.001.026 2.002.04 3.003.06l2.35.047 3.015.06a1.323 1.323 0 0 0 1.369-1.247 1.288 1.288 0 0 0-.771-1.23 1.3 1.3 0 0 0-.499-.112l.524.011a1.312 1.312 0 0 0 1.313-.973 1.307 1.307 0 0 0-.664-1.491 1.302 1.302 0 0 0 1.326-1.273V28.4a1.297 1.297 0 0 0-1.275-1.324Zm-13.131-.757-.92-.23a1.476 1.476 0 0 0-1.011-.013c-1.232.61-.904 3.708-.907 4.817-.004 1.11-.636 3.744 1.072 3.898a2.134 2.134 0 0 0 1.68-.322c.286-.333.457-.749.487-1.186.215-1.283.341-2.578.377-3.878.017-.598.154-2.381-.276-2.886a.583.583 0 0 0-.317-.154l-.185-.046Zm136.32 57.865h-.083a.982.982 0 0 0 1.001-.976 1 1 0 0 0-.996-.983c-.847-.017-2.449.284-3.187-.063-1.288-.605-.291-2.774-.276-3.792a2.215 2.215 0 0 0-.204-1.111.916.916 0 0 0-.943-.499c-.506.115-.702.712-.847 1.207a12.744 12.744 0 0 1-1.839 3.206 8.672 8.672 0 0 0-1.44 3.749 18.158 18.158 0 0 0-.101 3.37c.069 1.116.526 1.597 1.59 1.624.756.018 1.513.03 2.269.045l1.778.035 2.28.045a1.003 1.003 0 0 0 1.035-.943.97.97 0 0 0-.267-.708.99.99 0 0 0-.693-.306l.396.008a.99.99 0 0 0 .999-.734.983.983 0 0 0-.508-1.13.982.982 0 0 0 1-.962v-.077a.978.978 0 0 0-.964-1.005Zm-9.931-.576-.693-.175a1.13 1.13 0 0 0-.77-.01c-.929.462-.682 2.805-.685 3.645-.003.84-.481 2.83.811 2.947a1.611 1.611 0 0 0 1.27-.243c.217-.252.346-.567.369-.897.162-.97.258-1.95.285-2.933.013-.452.118-1.8-.209-2.183a.442.442 0 0 0-.239-.115l-.139-.036ZM84.264 92.474h-.089a1.054 1.054 0 0 0 .988-.64c.054-.127.082-.264.083-.403a1.07 1.07 0 0 0-1.067-1.053c-.902-.018-2.618.304-3.41-.067-1.377-.649-.307-2.968-.296-4.058a2.359 2.359 0 0 0-.217-1.189.979.979 0 0 0-1.01-.537c-.539.123-.75.76-.91 1.292a13.61 13.61 0 0 1-1.967 3.43 9.3 9.3 0 0 0-1.54 4.01 19.596 19.596 0 0 0-.11 3.607c.078 1.194.565 1.708 1.704 1.737.808.02 1.617.033 2.427.048l1.903.038 2.44.049a1.075 1.075 0 0 0 1.106-1.01 1.045 1.045 0 0 0-.624-.995 1.053 1.053 0 0 0-.404-.09l.425.008a1.059 1.059 0 0 0 1.076-.785 1.053 1.053 0 0 0-.551-1.212 1.055 1.055 0 0 0 1.073-1.029v-.085a1.05 1.05 0 0 0-1.03-1.066Zm-10.626-.61-.744-.188a1.204 1.204 0 0 0-.821-.01c-.994.495-.73 3.001-.733 3.9-.004.897-.515 3.029.867 3.153a1.727 1.727 0 0 0 1.36-.26c.231-.27.37-.607.394-.961a23.04 23.04 0 0 0 .308-3.138c.013-.483.126-1.926-.224-2.335a.472.472 0 0 0-.255-.124l-.152-.037Z"/>
    <path fill="#fff" stroke="#fff" stroke-miterlimit="10" stroke-width=".5" d="M94.698 119.696c-5.663 0-10.255-5.109-10.255-5.109s4.591-5.109 10.255-5.109c5.664 0 10.257 5.109 10.257 5.109s-4.592 5.109-10.257 5.109Z"/>
    <path fill="#D7D7D7" d="M94.662 119.709c-2.47 0-4.474-2.291-4.474-5.116 0-2.825 2.002-5.116 4.474-5.116 2.472 0 4.474 2.29 4.474 5.116 0 2.826-2.002 5.116-4.474 5.116Z"/>
    <path fill="#EBEBEB" d="M197.683 174.375h46.043c.677 0 1.412-2.073 1.412-2.073 0-.676-.582-.365-1.259-.365h-46.197a1.219 1.219 0 0 0-.866.358 1.222 1.222 0 0 0-.359.864 1.218 1.218 0 0 0 1.226 1.216Z"/>
    <path fill="#EBEBEB" d="M204.537 173.249h40.431l8.398-20.69a1.016 1.016 0 0 0-.101-.957 1.033 1.033 0 0 0-.851-.451h-38.215a1.026 1.026 0 0 0-.953.639l-8.709 21.459Z"/>
    <path stroke="#AFAFAF" stroke-miterlimit="10" stroke-width=".5" d="M232.661 161.686a2.832 2.832 0 0 1-2.52 1.579c-1.056 0-1.642-.707-1.308-1.579a2.825 2.825 0 0 1 2.519-1.578c1.057-.004 1.643.702 1.309 1.578Z"/>
    <path fill="#A8DCA4" d="M298.007 112.397a49.772 49.772 0 0 1 3.683-4.39 39.28 39.28 0 0 1 8.638-6.841c1.674 6.162.05 12.976-3.043 18.414a46.764 46.764 0 0 1-7.204 9.283c-1.508 1.561-3.08 2.989-4.646 4.511-.133.13-.317.267-.473.173a.524.524 0 0 1-.17-.398c-.712-5.811-1.361-12.06 1.078-17.256a21.89 21.89 0 0 1 2.137-3.496Zm-22.581 6.933c.03 3.939.116 7.936 1.133 11.709 1.017 3.773 3.087 7.355 6.215 9.189 1.693.994 3.601 1.429 5.403 2.151a8.931 8.931 0 0 1 4.505 3.61c.57-5.368-1.836-11.146-4.416-15.528a25.405 25.405 0 0 0-12.84-11.131Zm29.325 11.713c4.473-3.323 9.825-4.78 15.069-6.089-1.534 4.773-3.141 9.678-6.208 13.424a20.43 20.43 0 0 1-10.985 6.731c-.783.193-5.677 2.289-5.987 2.098-.763-.471.436-3.515.608-4.241 1.183-4.996 3.599-9.022 7.503-11.923Z"/>
    <path stroke="#1C0C03" stroke-miterlimit="10" stroke-width=".5" d="M294.996 159.51a54.286 54.286 0 0 1 1.348-10.499 18.219 18.219 0 0 1 5.185-9.082c3.623-3.218 8.981-4.545 11.513-8.674m-13.975-10.491a15.83 15.83 0 0 1-.973 3.132c-1.694 4.395-3.222 8.902-3.736 13.582-.413 3.764-.159 7.575-.393 11.357a87.542 87.542 0 0 1-.288 3.316l-.366 3.669m-10.273-25.373c.285 2.497 1.795 4.679 3.431 6.592 2.848 3.332 6.292 6.399 6.251 11.09-.021 2.32-.585 4.602-.765 6.913"/>
    <path fill="#EDBF34" d="M286.072 173.464s17.088.101 17.093 0l1.085-17.821h-19.533l1.355 17.821Z"/>
    <path fill="#1C0C03" d="M285.984 161.17c.394-.132.75-.36 1.034-.663a2.744 2.744 0 0 1 2.531-1.389c1.378-.106 2.749-.281 4.118-.471a6.848 6.848 0 0 0 3.42-1.215c.439-.285.763-.717.913-1.218a1.001 1.001 0 0 0-.693-1.207 1.556 1.556 0 0 0-.32-.006c-.97.049-12.222 1.172-12.27.639.174 1.943.399 3.893.511 5.838.232-.108.496-.201.756-.308Z"/>
    <path fill="#EDBF34" d="m305.054 152.404-20.423.028c-.17.001-.341.017-.509.047v4.712c.168.031.339.047.509.048l19.997-.041.426-4.794Z"/>
    <path stroke="#222221" stroke-miterlimit="10" stroke-width=".5" d="M317.039 130.738a33.338 33.338 0 0 1-1.704 4.005m-6.011-25.731a27.806 27.806 0 0 1-2.088 6.428m-.362 1.093-1.262 2.253m-2.626 40.961c-.075 2.187-.2 4.372-.375 6.554m.053.789-.103 1.397"/>
    <path stroke="#000" stroke-miterlimit="10" stroke-width=".5" d="M231.099 133.019c.238.27.563.448.919.504.356.057.721-.013 1.031-.197"/>
    <path fill="#fff" d="m193.732 79.936-3.646-1.95-3.678 1.895.733-4.062-2.939-2.905 4.098-.56 1.861-3.688 1.801 3.716 4.089.627-2.986 2.856.667 4.071Z"/>
    <path stroke="#fff" stroke-miterlimit="10" stroke-width=".5" d="M297.195 44.584c-.416.28-.71.705-.823 1.192a1.694 1.694 0 0 0 .43 1.253c.678.83 1.756 1.2 2.661 1.775a6.42 6.42 0 0 1 2.607 3.316c.186.74.423 1.466.708 2.173a2.075 2.075 0 0 0 1.764 1.265 1.87 1.87 0 0 0 1.531-1.109 4.48 4.48 0 0 0 .348-1.936 19.16 19.16 0 0 0-1.3-6.406c-.605-1.717-2.527-2.618-4.271-2.693a5.58 5.58 0 0 0-3.655 1.17Z"/>
    <path fill="#fff" d="m316.346 86.098-8.793 8.137Z"/>
    <path stroke="#fff" stroke-miterlimit="10" stroke-width=".5" d="m316.346 86.098-8.793 8.137"/>
    <path fill="#fff" d="M311.242 93.016a61.822 61.822 0 0 1-3.983 3.722Z"/>
    <path stroke="#fff" stroke-miterlimit="10" stroke-width=".5" d="M311.242 93.016a61.822 61.822 0 0 1-3.983 3.722"/>
    <path fill="#fff" d="m237.334 83.882-7.622 7.358Z"/>
    <path stroke="#fff" stroke-miterlimit="10" stroke-width=".5" d="m237.334 83.882-7.622 7.358"/>
    <path fill="#fff" d="M232.729 90.746a115.78 115.78 0 0 0 4.619-4.448Z"/>
    <path stroke="#fff" stroke-miterlimit="10" stroke-width=".5" d="M232.729 90.746a115.78 115.78 0 0 0 4.619-4.448"/>
  </g>
  <defs>
    <clipPath id="a">
      <path fill="#fff" d="M0 0h335v315H0z"/>
    </clipPath>
  </defs>
</svg>
