<svg width="79" height="78" viewBox="0 0 79 78" fill="none" xmlns="http://www.w3.org/2000/svg">
<path d="M72 0.139648H52C48.5537 0.139648 45.75 2.9434 45.75 6.38965V22.6396H7C3.55375 22.6396 0.75 25.4434 0.75 28.8896V63.8896C0.75 67.3359 3.55375 70.1396 7 70.1396H23.25V75.1396H18.25V77.6396H50.75V75.1396H45.75V70.1396H62C65.4463 70.1396 68.25 67.3359 68.25 63.8896V57.6396H72C75.4463 57.6396 78.25 54.8359 78.25 51.3896V6.38965C78.25 2.9434 75.4463 0.139648 72 0.139648ZM52 2.63965H72C74.0675 2.63965 75.75 4.32215 75.75 6.38965V7.63965H48.25V6.38965C48.25 4.32215 49.9325 2.63965 52 2.63965ZM75.75 10.1396V45.1396H48.25V10.1396H75.75ZM43.25 75.1396H25.75V70.1396H43.25V75.1396ZM62 67.6396H7C4.9325 67.6396 3.25 65.9571 3.25 63.8896V62.6396H65.75V63.8896C65.75 65.9571 64.0675 67.6396 62 67.6396ZM65.75 60.1396H3.25V28.8896C3.25 26.8221 4.9325 25.1396 7 25.1396H45.75V51.3896C45.75 54.8359 48.5537 57.6396 52 57.6396H65.75V60.1396ZM72 55.1396H52C49.9325 55.1396 48.25 53.4571 48.25 51.3896V47.6396H75.75V51.3896C75.75 53.4571 74.0675 55.1396 72 55.1396Z" fill="white"/>
<path d="M65.75 50.1396H58.25V52.6396H65.75V50.1396Z" fill="white"/>
<path d="M73.25 40.1396H70.75V42.6396H73.25V40.1396Z" fill="#2F373B"/>
<path d="M68.25 40.1396H50.75V42.6396H68.25V40.1396Z" fill="#2F373B"/>
<path d="M73.25 35.1396H50.75V37.6396H73.25V35.1396Z" fill="#2F373B"/>
<path d="M73.25 30.1396H50.75V32.6396H73.25V30.1396Z" fill="#2F373B"/>
<path d="M43.25 45.1396H25.75V47.6396H43.25V45.1396Z" fill="#2F373B"/>
<path d="M43.25 50.1396H25.75V52.6396H43.25V50.1396Z" fill="#2F373B"/>
<path d="M38.25 55.1396H25.75V57.6396H38.25V55.1396Z" fill="#2F373B"/>
<path d="M43.25 55.1396H40.75V57.6396H43.25V55.1396Z" fill="#2F373B"/>
</svg>
