<svg width="81" height="81" viewBox="0 0 81 81" fill="none" xmlns="http://www.w3.org/2000/svg">
<path d="M69.4992 20.1196C69.4992 15.9834 66.1355 12.6196 61.9992 12.6196V15.1196C64.7567 15.1196 66.9992 17.3621 66.9992 20.1196H69.4992Z" fill="white"/>
<path d="M58.8305 44.7534L57.063 46.5209C58.2417 47.7009 59.8117 48.3521 61.4817 48.3521C63.1517 48.3521 64.7217 47.7009 65.9005 46.5209C67.0805 45.3421 67.7317 43.7721 67.7317 42.1021C67.7317 40.4321 67.0805 38.8634 65.9005 37.6821L64.133 39.4496C64.8405 40.1584 65.2317 41.0996 65.2317 42.1021C65.2317 43.1046 64.8417 44.0459 64.133 44.7534C62.7167 46.1696 60.2467 46.1696 58.8305 44.7534Z" fill="white"/>
<path d="M51.9992 25.1196V27.6196C55.4455 27.6196 58.2492 24.8159 58.2492 21.3696C58.2492 17.9234 55.4455 15.1196 51.9992 15.1196V17.6196C54.0667 17.6196 55.7492 19.3021 55.7492 21.3696C55.7492 23.4371 54.0667 25.1196 51.9992 25.1196Z" fill="white"/>
<path d="M44.4992 12.6196H46.9992C46.9992 10.5521 48.6817 8.86963 50.7492 8.86963V6.36963C47.303 6.36963 44.4992 9.17338 44.4992 12.6196Z" fill="white"/>
<path d="M79.4992 40.1196C79.4992 34.8034 76.8642 29.8221 72.5467 26.7996C73.7767 24.8646 74.4992 22.5771 74.4992 20.1196C74.4992 13.2271 68.8917 7.61963 61.9992 7.61963C61.623 7.61963 61.2417 7.63963 60.8467 7.67838C58.9742 3.86838 55.0355 1.36963 50.7492 1.36963C44.5455 1.36963 39.4992 6.41713 39.4992 12.6196V18.8696H36.9992V13.8696H34.4992V18.8696H29.4992V13.8696H26.9992V18.8696H21.9992V13.8696H19.4992V18.8696H14.4992V13.8696H11.9992V18.8696H11.4817L6.99921 23.3521V23.8696H1.99921V26.3696H6.99921V31.3696H1.99921V33.8696H6.99921V38.8696H1.99921V41.3696H6.99921V46.3696H1.99921V48.8696H6.99921V53.8696H1.99921V56.3696H6.99921V61.3696H11.9992V66.3696H14.4992V61.3696H19.4992V66.3696H21.9992V61.3696H26.9992V66.3696H29.4992V61.3696H34.4992V66.3696H36.9992V61.3696H39.4992V67.6196C39.4992 73.8234 44.5455 78.8696 50.7492 78.8696C55.2592 78.8696 59.1455 76.1971 60.9392 72.3571L60.9992 72.3446C67.373 71.0496 71.9992 65.3834 71.9992 58.8696C71.9992 57.2946 71.7317 55.7534 71.2005 54.2746C76.2792 51.4146 79.4992 45.9809 79.4992 40.1196ZM69.0817 52.5559L67.9617 53.0821L68.4767 54.2071C69.1555 55.6896 69.4992 57.2584 69.4992 58.8696C69.4992 63.7309 66.3455 68.0059 61.8242 69.5271C61.9317 68.9059 61.9992 68.2709 61.9992 67.6196C61.9992 65.6421 61.478 63.6971 60.493 61.9934L58.3305 63.2459C59.0955 64.5696 59.4992 66.0821 59.4992 67.6196C59.4992 72.4434 55.573 76.3696 50.7492 76.3696C45.9255 76.3696 41.9992 72.4434 41.9992 67.6196V52.6196H39.4992V58.8696H9.49921V24.3871L12.5167 21.3696H39.4992V27.6196H41.9992V12.6196C41.9992 7.79463 45.9255 3.86963 50.7492 3.86963C54.3417 3.86963 57.623 6.12963 58.913 9.49338L59.2805 10.4534L60.293 10.2784C60.9067 10.1709 61.4642 10.1196 61.9992 10.1196C67.513 10.1196 71.9992 14.6059 71.9992 20.1196C71.9992 25.6334 67.513 30.1196 61.9992 30.1196V32.6196C65.5267 32.6196 68.7105 31.1446 70.9855 28.7871C74.708 31.3371 76.9992 35.5746 76.9992 40.1196C76.9992 45.4134 73.8917 50.2959 69.0817 52.5559Z" fill="white"/>
<path d="M46.9992 67.6196H44.4992C44.4992 71.0659 47.303 73.8696 50.7492 73.8696V71.3696C48.6817 71.3696 46.9992 69.6871 46.9992 67.6196Z" fill="white"/>
<path d="M11.9992 56.3696H34.4992V53.8696H14.4992V33.8696H11.9992V56.3696Z" fill="white"/>
<path d="M19.4992 27.6196C19.4992 25.5521 17.8167 23.8696 15.7492 23.8696C13.6817 23.8696 11.9992 25.5521 11.9992 27.6196C11.9992 29.6871 13.6817 31.3696 15.7492 31.3696C17.8167 31.3696 19.4992 29.6871 19.4992 27.6196ZM14.4992 27.6196C14.4992 26.9309 15.0592 26.3696 15.7492 26.3696C16.4392 26.3696 16.9992 26.9309 16.9992 27.6196C16.9992 28.3084 16.4392 28.8696 15.7492 28.8696C15.0592 28.8696 14.4992 28.3084 14.4992 27.6196Z" fill="white"/>
<path d="M44.1505 53.8696H37.3492L36.3267 50.7996L33.433 52.2471L28.623 47.4371L30.0705 44.5434L26.9992 43.5209V36.7196L30.0692 35.6971L28.6217 32.8034L33.4317 27.9934L36.3255 29.4409L37.348 26.3696H44.1492L45.1717 29.4396L48.0655 27.9921L52.8755 32.8021L51.428 35.6959L54.4992 36.7184V43.5196L51.4292 44.5421L52.8767 47.4359L48.0667 52.2459L45.173 50.7984L44.1505 53.8696Z" fill="#FCD139"/>
<path d="M40.7492 46.3696C37.303 46.3696 34.4992 43.5659 34.4992 40.1196C34.4992 36.6734 37.303 33.8696 40.7492 33.8696C44.1955 33.8696 46.9992 36.6734 46.9992 40.1196C46.9992 43.5659 44.1955 46.3696 40.7492 46.3696ZM40.7492 36.3696C38.6817 36.3696 36.9992 38.0521 36.9992 40.1196C36.9992 42.1871 38.6817 43.8696 40.7492 43.8696C42.8167 43.8696 44.4992 42.1871 44.4992 40.1196C44.4992 38.0521 42.8167 36.3696 40.7492 36.3696Z" fill="white"/>
<path d="M34.4992 23.8696H21.9992V26.3696H34.4992V23.8696Z" fill="white"/>
</svg>
